<svg width="76" height="75" viewBox="0 0 76 75" fill="none" xmlns="http://www.w3.org/2000/svg">
<path fill-rule="evenodd" clip-rule="evenodd" d="M65.8275 64.4606C64.5156 65.3003 63.0042 65.6988 61.4776 65.6139C62.0365 64.1891 63.0253 62.9849 64.3365 62.1368C65.6467 61.2972 67.1589 60.8985 68.688 60.9834C68.1283 62.4083 67.1403 63.621 65.8275 64.4606ZM55.6768 62.2556C56.5825 63.6633 57.9132 64.698 59.4754 65.2323C60.8845 61.1811 64.8973 58.5975 69.1665 58.9989C69.5109 55.5902 67.4418 52.4367 64.2366 51.3408C62.8146 55.4015 58.8459 57.9414 54.5515 57.5657C54.3928 59.1516 54.7473 60.8054 55.6768 62.2556ZM57.8853 52.104C59.2143 51.2493 60.744 50.8526 62.2342 50.9507C61.6744 52.3755 60.6856 53.5797 59.377 54.4193C58.0684 55.2674 56.5572 55.6575 55.0306 55.5812C55.5751 54.1988 56.5419 52.9691 57.8853 52.104ZM69.7303 53.2235C66.9393 48.8813 61.1376 47.6177 56.7963 50.4078C52.455 53.198 51.1939 58.9989 53.9841 63.341C56.7918 67.7112 62.6014 68.9387 66.9165 66.1566C71.2581 63.3575 72.5232 57.5714 69.7303 53.2235ZM32.526 18.2573V23.6595H28.8861C29.7925 21.7597 31.0096 19.928 32.526 18.2573ZM46.5184 11.0486L48.1153 10.9892V15.8657H42.3331V11.8797C43.7028 11.4471 45.1056 11.1672 46.5184 11.0486ZM59.2617 15.8657H57.9234V14.5257C58.4512 14.9985 58.7958 15.3308 59.2617 15.8657ZM62.7388 27.2722C62.6209 28.68 62.3403 30.0879 61.912 31.4533H57.9235V25.6779H62.8017C62.8032 26.2036 62.7846 26.7295 62.7388 27.2722ZM29.8417 41.2656H32.5258V43.9455C31.5214 43.1988 30.5982 42.2661 29.8417 41.2656ZM40.3198 15.8657H35.0295C36.667 14.5172 38.4507 13.4318 40.3198 12.626V15.8657ZM48.1153 23.6595H42.3331V17.8757H48.1153V23.6595ZM48.1153 41.2656V45.735C46.2012 46.4219 44.248 46.7951 42.3331 46.8714V41.2656H48.1153ZM42.3331 31.4533V25.6779H48.1153V31.4533H42.3331ZM48.1153 33.4718V39.2556H42.3331V33.4718H48.1153ZM34.5384 41.2656H40.3197V46.829C38.275 46.6593 36.3124 46.125 34.5384 45.2091V41.2656ZM40.3198 33.4718V39.2556H34.5384V33.4718H40.3198ZM40.3198 25.6779V31.4533H34.5384V25.6779H40.3198ZM34.5384 17.8755H40.3197V23.6594H34.5384V17.8755ZM55.5352 41.2656C53.8603 42.7836 52.0309 43.9964 50.1288 44.9039V41.2656H55.5352ZM55.911 15.8657H50.1288V11.1164C52.2286 11.3793 54.1843 12.0408 55.911 13.0669V15.8657ZM57.9234 33.4718H61.1656C60.3591 35.3375 59.2684 37.1185 57.9234 38.7552V33.4718ZM55.911 33.4718V39.2556H50.1288V33.4718H55.911ZM50.1286 23.6595V17.8757H55.9108V23.6595H50.1286ZM55.911 25.6779V31.4533H50.1288V25.6779H55.911ZM62.6727 23.6595H57.9234V17.8757H60.7221C61.7508 19.6056 62.4114 21.5562 62.6727 23.6595ZM26.9202 31.4533C26.9905 29.5452 27.3697 27.5861 28.0506 25.6779H32.5258V31.4533H26.9202ZM32.526 33.4718V39.2556H28.5765C27.6622 37.4746 27.1272 35.5155 26.9634 33.4718H32.526ZM29.6662 44.1236C22.5255 36.9828 23.5287 24.3633 31.9035 15.9843C35.937 11.9559 41.0686 9.48795 46.3506 9.04695C51.6969 8.5974 56.5572 10.2682 60.0403 13.7538C63.5208 17.231 65.1916 22.0905 64.7446 27.4419C63.7722 39.0576 53.1294 48.8898 41.6862 48.8898C37.1623 48.8898 32.8651 47.3209 29.6662 44.1236ZM23.5414 53.4101L36.138 51.1373C29.4595 49.3514 24.4416 44.3349 22.6527 37.6527L20.3773 50.2467C20.2399 51.0015 19.9465 51.6545 19.4902 52.2398L21.5511 54.3006C22.1311 53.8427 22.7857 53.5458 23.5414 53.4101ZM19.5453 57.5573L16.2318 54.2414L17.4394 53.037L20.7537 56.3531L19.5453 57.5573ZM10.5175 66.5892L18.1222 58.982L14.808 55.6661L7.20327 63.2733C6.66732 63.8076 6.66732 64.6811 7.20327 65.2155L8.57202 66.5894C9.10512 67.1192 9.97558 67.1223 10.5175 66.5892ZM31.2216 15.3059C35.8435 10.6839 41.8603 8.0208 48.039 8.0208C52.9773 8.0208 57.4366 9.7848 60.7221 13.0668C68.2377 20.5807 67.2345 33.8193 58.4848 42.5715C53.6736 47.3801 47.5098 49.848 41.6844 49.848C36.9139 49.848 32.3691 48.1857 28.9843 44.802C21.4678 37.2881 22.4719 24.0581 31.2216 15.3059ZM59.9088 43.9879C69.4429 34.4556 70.4454 19.9449 62.1451 11.6423C58.1032 7.60545 52.4982 5.62095 46.3615 6.07035C33.9732 6.9645 23.3973 17.4406 22.0743 29.5961H22.0641L18.3952 49.8906C18.3223 50.2977 18.1815 50.6285 17.9542 50.9423C17.3962 50.7473 16.7533 50.8745 16.3098 51.3155L5.78007 61.8486C4.45873 63.1716 4.45873 65.3172 5.78007 66.6402L7.14807 68.0056C8.46897 69.3315 10.6209 69.3303 11.9415 68.0056L22.4704 57.4811C22.9149 57.0315 23.0412 56.3955 22.852 55.8357C23.1573 55.6068 23.4931 55.4711 23.8995 55.3947L44.1982 51.7226L44.1957 51.714C49.7563 51.1118 55.3911 48.5082 59.9088 43.9879Z" fill="black"/>
</svg>
