<svg xmlns="http://www.w3.org/2000/svg" viewBox="0 0 39.29 9.33"><defs><style>.cls-1{fill:#fff;}</style></defs><g id="Layer_2" data-name="Layer 2"><g id="Layer_1-2" data-name="Layer 1"><path class="cls-1" d="M16.2,9.31H13l.3-.44a1.08,1.08,0,0,0,.12-.24,2.48,2.48,0,0,0,.21-1c0-.69,0-1.39,0-2.08a1.29,1.29,0,0,0-.52-1.07,1.2,1.2,0,0,0-1.21-.16,1,1,0,0,0-.62.89c0,.84,0,1.68,0,2.52A2.49,2.49,0,0,0,11.67,9a1.43,1.43,0,0,0,.2.23.91.91,0,0,1,.06.11H8.76L9,8.9a2,2,0,0,0,.23-.43,3.11,3.11,0,0,0,.15-1c0-.92,0-1.84,0-2.77a1.25,1.25,0,0,0-.26-.81.12.12,0,0,1,0-.07l1.14-.44.65-.26c.12,0,.24,0,.38-.05V4.41c.06,0,.11-.07.12-.1a3.26,3.26,0,0,1,.66-.91,4.86,4.86,0,0,1,1.33-1A7.28,7.28,0,0,1,14.52,2,8.46,8.46,0,0,1,18,1.81a7.58,7.58,0,0,1,1,.25,4.57,4.57,0,0,1,.74.24c.35.17.69.37,1,.57a3.51,3.51,0,0,1,.86.72,4.09,4.09,0,0,1,.4.53,7.4,7.4,0,0,1,.48,1,2.55,2.55,0,0,1,.14.72c0,.58.05,1.16.08,1.74a2.9,2.9,0,0,0,.08.79,1.92,1.92,0,0,0,.6,1H20.05a1,1,0,0,0,.5-.65,1,1,0,0,0-.11.1,1.41,1.41,0,0,1-1.2.58A3.31,3.31,0,0,1,17.75,9a2.06,2.06,0,0,1-.88-.85,2.61,2.61,0,0,1-.29-1.77,3.35,3.35,0,0,1,.22-.84,2.19,2.19,0,0,1,.6-.79,1.93,1.93,0,0,1,1.41-.44,2.11,2.11,0,0,1,1.27.54,4.55,4.55,0,0,1,.62.77s0,0,.08,0a5,5,0,0,0-.19-1.1c-.14-.29-.22-.6-.37-.88a2.6,2.6,0,0,0-.77-.88c-.3-.21-.62-.41-.94-.6a2.24,2.24,0,0,0-.37-.1A5.53,5.53,0,0,0,16,1.92a11.92,11.92,0,0,0-1.33.23,5.7,5.7,0,0,0-1.34.51c-.25.13-.49.3-.73.45,0,0,0,.05,0,.11s.22-.08.33-.1a2.48,2.48,0,0,1,1.45.13,1.9,1.9,0,0,1,1.07,1.23,3,3,0,0,1,.11.73c0,.87,0,1.74,0,2.61a1.88,1.88,0,0,0,.61,1.42S16.19,9.27,16.2,9.31Zm4.6-2.37A1.83,1.83,0,0,0,20.58,6a1.37,1.37,0,0,0-1.09-.68.86.86,0,0,0-.74.35,1.73,1.73,0,0,0-.31,1,8.15,8.15,0,0,0,0,1A1.71,1.71,0,0,0,19,8.77a.77.77,0,0,0,1,.12,1.58,1.58,0,0,0,.67-1A6.57,6.57,0,0,0,20.8,6.94Z"/><path class="cls-1" d="M36.74,5.67c0-.12-.05-.24-.07-.36a2.65,2.65,0,0,0-1.05-1.69,1.27,1.27,0,0,0-.87-.32.66.66,0,0,0-.55.32.26.26,0,0,0,0,.21,1.12,1.12,0,0,0,.6.61,1.18,1.18,0,0,1-.27.11c-.43.06-.85.11-1.27.14a1.29,1.29,0,0,1-.47-.08.29.29,0,0,1-.08-.5,2.37,2.37,0,0,1,.78-.59,4.41,4.41,0,0,1,1.21-.4,4.71,4.71,0,0,1,1.5-.06,2.79,2.79,0,0,1,.86.22,2.29,2.29,0,0,1,1.07.9,3.35,3.35,0,0,1,.37.92,4.11,4.11,0,0,1,.11,1.1c0,.47,0,1,0,1.42A2.52,2.52,0,0,0,39,8.91a1.61,1.61,0,0,0,.24.28,1.3,1.3,0,0,1,.06.12H36a1.27,1.27,0,0,0,.5-.68,4.78,4.78,0,0,1-.39.39,1.71,1.71,0,0,1-1.5.25A3.38,3.38,0,0,1,33.79,9a3.25,3.25,0,0,1-.64-.46,1.84,1.84,0,0,1-.53-.94,2.6,2.6,0,0,1-.13-1,2.45,2.45,0,0,1,.35-1.15,1.84,1.84,0,0,1,.86-.66A2.86,2.86,0,0,1,35,4.71a2.56,2.56,0,0,1,1.58.75.91.91,0,0,1,.15.23ZM34.37,7a2.82,2.82,0,0,0,.43,1.65.77.77,0,0,0,.8.4,1.28,1.28,0,0,0,.94-.9,2.89,2.89,0,0,0,.16-.66,2.26,2.26,0,0,0,0-1.21,1.31,1.31,0,0,0-.92-.89.9.9,0,0,0-1.22.7A4.67,4.67,0,0,0,34.37,7Z"/><path class="cls-1" d="M2.37,0H5.31a1,1,0,0,1-.2.21A.27.27,0,0,0,5,.55c.06.28.15.57.24.85s.1.29.15.43L5.77,3c.09.27.16.54.25.81s.19.45.27.69.14.48.22.72.18.49.27.73.14.44.22.66.19.53.29.8.13.34.2.51a2.87,2.87,0,0,0,1,1.29l.07.09h-3l.18-.42a.88.88,0,0,0,0-.62c-.08-.21-.15-.42-.22-.64S5.27,7,5.17,6.76,4.9,6,4.76,5.55a1,1,0,0,0-.1-.24.23.23,0,0,0-.16-.1H2.59a.19.19,0,0,0-.21.16c-.08.34-.17.67-.26,1-.15.51-.32,1-.47,1.5a1.4,1.4,0,0,0-.1.39A.8.8,0,0,0,2,9.09l.44.21H0v0l.18,0A1.28,1.28,0,0,0,1,8.55a2.81,2.81,0,0,0,.16-.49l.3-1c.08-.3.15-.62.24-.92s.18-.52.25-.78.15-.58.24-.87.13-.4.2-.61.09-.39.15-.58l.36-1.16c0-.17.08-.35.12-.52s.08-.25.1-.38a.33.33,0,0,0,0-.22A1.59,1.59,0,0,0,2.54.16,1.18,1.18,0,0,0,2.35.05ZM3.43,1.78l0,0c-.11.37-.21.74-.32,1.12-.06.22-.12.43-.19.65s-.13.48-.2.72a2.8,2.8,0,0,1-.13.41c0,.12,0,.15.1.15H4.38c.1,0,.13-.05.09-.14s-.12-.33-.17-.5L4,3.27l-.21-.63c-.09-.25-.17-.5-.26-.74A1.27,1.27,0,0,0,3.43,1.78Z"/><path class="cls-1" d="M27.44,3.44,27,3.88c-.06.06-.1.09-.18,0l-.62-.45a1.22,1.22,0,0,0-1-.16.64.64,0,0,0-.29,1,3,3,0,0,0,.8.66c.32.19.62.41.92.63a10.47,10.47,0,0,1,.93.67,3.05,3.05,0,0,1,.76.91,1,1,0,0,1,.07.86,1.38,1.38,0,0,1-.35.49,5.09,5.09,0,0,1-.64.48,1,1,0,0,1-.24.09,4.59,4.59,0,0,1-2,.27A3.9,3.9,0,0,1,23.81,9a1.21,1.21,0,0,1-.74-1.18.72.72,0,0,1,.42-.6.9.9,0,0,1,.8,0,.7.7,0,0,1,.39.66,1.28,1.28,0,0,1-.21.51.14.14,0,0,0,0,.2,1.94,1.94,0,0,0,.68.36,2,2,0,0,0,.72.07,1.09,1.09,0,0,0,.9-.49.64.64,0,0,0,0-.57,1.37,1.37,0,0,0-.53-.51l-.84-.53c-.35-.23-.7-.44-1-.69a4,4,0,0,1-1-.95A1.17,1.17,0,0,1,23.33,4a1.54,1.54,0,0,1,.5-.45,4.12,4.12,0,0,1,2.67-.38,5.46,5.46,0,0,1,.87.27S27.43,3.44,27.44,3.44Z"/><path class="cls-1" d="M27.68,9a.94.94,0,0,1,.08-.15,4.33,4.33,0,0,1,.41-.3.19.19,0,0,1,.18,0A1.89,1.89,0,0,0,29.78,9a1,1,0,0,0,.8-.48.61.61,0,0,0-.1-.72,7,7,0,0,0-.74-.58c-.3-.21-.62-.4-.93-.6s-.54-.32-.78-.51a3.86,3.86,0,0,1-.76-.75A1.25,1.25,0,0,1,27,4.18a1.23,1.23,0,0,1,.5-.6,4.07,4.07,0,0,1,2.73-.46,2.69,2.69,0,0,1,.68.16,1.36,1.36,0,0,1,.89.84.81.81,0,0,1-1.1,1A.69.69,0,0,1,30.42,4a.29.29,0,0,0-.14-.43l-.56-.29a1,1,0,0,0-1,.26.69.69,0,0,0,0,.68,3.09,3.09,0,0,0,.82.71c.36.25.72.48,1.09.72s.52.35.76.56a2.56,2.56,0,0,1,.85,1.12,1,1,0,0,1-.25,1,2.66,2.66,0,0,1-1.16.74,4.52,4.52,0,0,1-2,.22A10,10,0,0,1,27.68,9Z"/></g></g></svg>