<svg xmlns="http://www.w3.org/2000/svg" viewBox="0 0 40.54 34.08"><defs><style>.cls-1{fill:#fdfeff;}.cls-2{fill:#edc070;}.cls-3{font-size:3.28px;fill:#fff;font-family:Roboto-Bold, Roboto;font-weight:700;letter-spacing:0.01em;}.cls-4{letter-spacing:0em;}.cls-5{letter-spacing:0em;}.cls-6{letter-spacing:0em;}.cls-7{letter-spacing:0em;}.cls-8{letter-spacing:0.02em;}.cls-9{letter-spacing:0em;}.cls-10{letter-spacing:0.01em;}</style></defs><g id="Layer_2" data-name="Layer 2"><g id="Layer_1-2" data-name="Layer 1"><path class="cls-1" d="M.28,25.89v-8.6H3.12a6.2,6.2,0,0,1,1.18.08,2.08,2.08,0,0,1,.75.27,1.94,1.94,0,0,1,.77.76,2.2,2.2,0,0,1,.27,1.09,2,2,0,0,1-.33,1.13,2.13,2.13,0,0,1-1,.73A2,2,0,0,1,6,22.11a2.33,2.33,0,0,1,.45,1.46,2.4,2.4,0,0,1-.36,1.32,2.06,2.06,0,0,1-1,.81,2.81,2.81,0,0,1-.78.15c-.35,0-.91,0-1.69,0ZM3,18H1.07v3.12H2.91a3.43,3.43,0,0,0,1.85-.36,1.35,1.35,0,0,0,.52-1.21,1.39,1.39,0,0,0-.5-1.2A3.34,3.34,0,0,0,3,18Zm-1.91,7.2H3.39a3.09,3.09,0,0,0,1.78-.38,1.46,1.46,0,0,0,.5-1.27,1.58,1.58,0,0,0-.56-1.32,2.61,2.61,0,0,0-1.66-.45H1.07Z"/><path class="cls-1" d="M8.2,22.92v0a2.75,2.75,0,0,0,.55,1.81,1.81,1.81,0,0,0,1.47.68,1.83,1.83,0,0,0,1.22-.4A1.63,1.63,0,0,0,12,24h.72a2.22,2.22,0,0,1-.82,1.51,2.7,2.7,0,0,1-1.76.57,2.43,2.43,0,0,1-2-.86,3.58,3.58,0,0,1-.72-2.38,3.71,3.71,0,0,1,.72-2.43,2.47,2.47,0,0,1,2-.87,2.41,2.41,0,0,1,2,.84,3.53,3.53,0,0,1,.7,2.32v.24Zm0-.57h3.9a2.61,2.61,0,0,0-.56-1.61,1.7,1.7,0,0,0-1.36-.59,1.81,1.81,0,0,0-1.39.59A2.56,2.56,0,0,0,8.21,22.35Z"/><path class="cls-1" d="M14.2,25.89v-8.6h.71v8.6Z"/><path class="cls-1" d="M16.66,25.89v-8.6h.72v8.6Z"/><path class="cls-1" d="M23.1,25a3.45,3.45,0,0,1-1.07.8,3,3,0,0,1-1.23.26,2.17,2.17,0,0,1-1.5-.49,1.66,1.66,0,0,1-.56-1.31,1.71,1.71,0,0,1,.26-.93,1.69,1.69,0,0,1,.74-.62,5.71,5.71,0,0,1,1.85-.35l.38,0,.2,0c.6-.12.89-.38.89-.77a1.32,1.32,0,0,0-.36-1,1.78,1.78,0,0,0-1.18-.31,2.05,2.05,0,0,0-1.28.35,1.29,1.29,0,0,0-.48,1h-.71a1.88,1.88,0,0,1,.69-1.47,2.72,2.72,0,0,1,1.78-.54,2.58,2.58,0,0,1,1.69.48,1.72,1.72,0,0,1,.58,1.41v3.38c0,.26,0,.42.1.48a.44.44,0,0,0,.35.1h.26v.53l-.27.05H24a.93.93,0,0,1-.66-.21.87.87,0,0,1-.22-.65Zm-.05-2.35a4.41,4.41,0,0,1-.73.17c-.3,0-.78.08-1.44.11a2.47,2.47,0,0,0-1,.52,1,1,0,0,0-.35.8,1.06,1.06,0,0,0,.37.85,1.56,1.56,0,0,0,1,.31,2.3,2.3,0,0,0,1.57-.51,1.75,1.75,0,0,0,.59-1.39Z"/><path class="cls-1" d="M30.8,19.68v5.89a2.87,2.87,0,0,1-.75,2.15,3,3,0,0,1-2.2.72A2.86,2.86,0,0,1,26.1,28a1.74,1.74,0,0,1-.74-1.33h.74a1.13,1.13,0,0,0,.51.87,2.11,2.11,0,0,0,1.23.31,2.33,2.33,0,0,0,1.69-.56,2.24,2.24,0,0,0,.56-1.65v-.76a2.64,2.64,0,0,1-.92.93,2.54,2.54,0,0,1-1.25.3,2.49,2.49,0,0,1-2-.87,3.6,3.6,0,0,1-.74-2.39,3.55,3.55,0,0,1,.75-2.39,2.47,2.47,0,0,1,2-.89,2.56,2.56,0,0,1,1.26.31,2.52,2.52,0,0,1,.9.93V19.68ZM25.94,22.8a3,3,0,0,0,.55,1.93,2,2,0,0,0,3.09,0,3,3,0,0,0,.56-1.94,3.1,3.1,0,0,0-.55-1.95,2.11,2.11,0,0,0-3.11,0A3.11,3.11,0,0,0,25.94,22.8Z"/><path class="cls-1" d="M32.47,18.37V17.29h.72v1.08Zm0,7.52V19.68h.72v6.21Z"/><path class="cls-1" d="M34.56,22.8a3.56,3.56,0,0,1,.74-2.42,3,3,0,0,1,4.21,0,3.56,3.56,0,0,1,.75,2.42,3.57,3.57,0,0,1-.74,2.4,2.67,2.67,0,0,1-2.12.85,2.64,2.64,0,0,1-2.1-.85A3.52,3.52,0,0,1,34.56,22.8Zm.74,0a3,3,0,0,0,.55,1.94,1.87,1.87,0,0,0,1.55.69A1.89,1.89,0,0,0,39,24.74a3,3,0,0,0,.55-1.94A3,3,0,0,0,39,20.85a1.89,1.89,0,0,0-1.56-.69,1.87,1.87,0,0,0-1.55.69A3,3,0,0,0,35.3,22.8Z"/><path class="cls-1" d="M18.23,5.28h2.19a2.05,2.05,0,0,1,1.33.36,1.4,1.4,0,0,1,.44,1.14,1.63,1.63,0,0,1-.17.81,1.27,1.27,0,0,1-.51.49,1.3,1.3,0,0,1,.82,1.35c0,1.09-.61,1.64-1.84,1.64H18.23Zm2.14.81h-1.2V7.75h1.24c.55,0,.82-.29.82-.86S21,6.09,20.37,6.09Zm.05,2.45H19.17v1.71h1.27a1.08,1.08,0,0,0,.7-.19.85.85,0,0,0,.23-.67.76.76,0,0,0-.27-.66A1.14,1.14,0,0,0,20.42,8.54Z"/><path class="cls-2" d="M26.58,5.54c-.16.35-.35.68-.53,1a6.49,6.49,0,0,0-.41.84,3.76,3.76,0,0,0-.2.82,3.82,3.82,0,0,0,.2.81,7.3,7.3,0,0,0,.41.85c.18.32.37.65.53,1a11.39,11.39,0,0,1-1.09.34,7,7,0,0,0-.88.31,2.82,2.82,0,0,0-.72.44,3.27,3.27,0,0,0-.43.71,7.77,7.77,0,0,0-.32.89c-.1.35-.2.73-.33,1.09-.35-.16-.69-.36-1-.53a7.3,7.3,0,0,0-.85-.41,2.82,2.82,0,0,0-.81-.2,2.74,2.74,0,0,0-.81.2,6.6,6.6,0,0,0-.85.41c-.33.17-.66.37-1,.53-.13-.36-.23-.74-.34-1.09a6.22,6.22,0,0,0-.31-.89,3.27,3.27,0,0,0-.43-.71,3,3,0,0,0-.72-.44,7,7,0,0,0-.88-.31,11.39,11.39,0,0,1-1.09-.34c.16-.35.35-.68.53-1A7.3,7.3,0,0,0,14.64,9a3.26,3.26,0,0,0,.19-.81,3.23,3.23,0,0,0-.19-.82,6.49,6.49,0,0,0-.41-.84c-.18-.33-.37-.66-.53-1,.36-.14.73-.23,1.09-.34a7,7,0,0,0,.88-.31,3,3,0,0,0,.72-.44,3,3,0,0,0,.43-.71,5.82,5.82,0,0,0,.31-.89c.11-.35.21-.73.34-1.09.35.16.68.36,1,.54a6.51,6.51,0,0,0,.85.4,2.74,2.74,0,0,0,.81.2A2.82,2.82,0,0,0,21,2.7a7.18,7.18,0,0,0,.85-.4c.32-.18.66-.38,1-.54.13.36.23.74.33,1.09a7.14,7.14,0,0,0,.32.89,3,3,0,0,0,.43.71,2.82,2.82,0,0,0,.72.44,7,7,0,0,0,.88.31C25.85,5.31,26.22,5.4,26.58,5.54Zm-1,2.67a4.51,4.51,0,0,1,.67-1.54c.17-.27.35-.56.51-.87.07-.14.13-.28.19-.42l-.43-.16c-.33-.11-.66-.18-1-.26A4.46,4.46,0,0,1,24,4.35a4.54,4.54,0,0,1-.62-1.56c-.07-.31-.15-.64-.25-1-.05-.15-.1-.29-.16-.44l-.42.19c-.32.16-.6.35-.87.51a4.6,4.6,0,0,1-1.54.67,4.6,4.6,0,0,1-1.54-.67c-.27-.16-.56-.35-.87-.51l-.42-.19c-.06.15-.11.29-.16.44-.1.33-.18.66-.26,1a4.35,4.35,0,0,1-.61,1.56A4.54,4.54,0,0,1,14.72,5c-.31.08-.64.15-1,.26l-.43.16a3.89,3.89,0,0,0,.19.42c.16.31.34.6.5.87a4.51,4.51,0,0,1,.67,1.54A4.47,4.47,0,0,1,14,9.74c-.16.28-.34.56-.5.87a3.89,3.89,0,0,0-.19.42,3.75,3.75,0,0,0,.43.16c.33.11.66.18,1,.26a4.75,4.75,0,0,1,1.56.61,4.35,4.35,0,0,1,.61,1.56c.08.31.16.64.26,1,.05.14.1.28.16.43a4.08,4.08,0,0,0,.42-.19c.31-.16.6-.34.87-.51a4.6,4.6,0,0,1,1.54-.67,4.6,4.6,0,0,1,1.54.67,10,10,0,0,0,.87.51A4.08,4.08,0,0,0,23,15c.06-.15.11-.29.16-.43.1-.34.18-.67.25-1A4.54,4.54,0,0,1,24,12.06a4.66,4.66,0,0,1,1.56-.61c.31-.08.64-.15,1-.26A3.75,3.75,0,0,0,27,11c-.06-.14-.12-.28-.19-.42-.16-.31-.34-.59-.51-.87A4.47,4.47,0,0,1,25.59,8.21Z"/><path class="cls-2" d="M26.68,6.87l0,0a.52.52,0,0,0,.11.07.59.59,0,0,0,.44,0,.55.55,0,0,0,.33-.44.66.66,0,0,0-.21-.6.61.61,0,0,0-.53-.15.56.56,0,0,0-.33.21.74.74,0,0,0-.15.3.66.66,0,0,1,0-.09.56.56,0,0,1,0-.29.68.68,0,0,1,.39-.37.84.84,0,0,1,.39,0,.79.79,0,0,1,.41.2.88.88,0,0,1,.25.41.8.8,0,0,1,0,.46.78.78,0,0,1-.22.36.63.63,0,0,1-.82,0A.47.47,0,0,1,26.68,6.87Z"/><path class="cls-2" d="M23.82,2.63h.05a.3.3,0,0,0,.12,0,.54.54,0,0,0,.32-.3.54.54,0,0,0-.07-.55.7.7,0,0,0-.58-.27.58.58,0,0,0-.47.27.58.58,0,0,0-.1.38.63.63,0,0,0,.12.32l-.08,0A.51.51,0,0,1,23,2.18a.68.68,0,0,1,0-.54.77.77,0,0,1,.25-.3.76.76,0,0,1,.43-.14.84.84,0,0,1,.47.11.92.92,0,0,1,.33.32.76.76,0,0,1,.1.41.66.66,0,0,1-.11.35.65.65,0,0,1-.44.26A.37.37,0,0,1,23.82,2.63Z"/><path class="cls-2" d="M18.8,1.66l0,0,.08-.11a.62.62,0,0,0,0-.43.53.53,0,0,0-.44-.34.69.69,0,0,0-.6.21.62.62,0,0,0-.15.53.56.56,0,0,0,.21.34.58.58,0,0,0,.3.14.15.15,0,0,1-.08,0,.7.7,0,0,1-.29,0,.62.62,0,0,1-.37-.4.78.78,0,0,1,0-.38.81.81,0,0,1,.21-.41.78.78,0,0,1,.41-.26.9.9,0,0,1,.46,0,.77.77,0,0,1,.36.21.7.7,0,0,1,.17.33.64.64,0,0,1-.13.5A.31.31,0,0,1,18.8,1.66Z"/><path class="cls-2" d="M14.57,4.53v0a1.11,1.11,0,0,0,0-.13A.58.58,0,0,0,14.25,4a.54.54,0,0,0-.55.08.65.65,0,0,0-.28.57.61.61,0,0,0,.27.48.56.56,0,0,0,.38.09.78.78,0,0,0,.32-.11.46.46,0,0,1,0,.08.55.55,0,0,1-.24.17.63.63,0,0,1-.54,0,.76.76,0,0,1-.29-.25.73.73,0,0,1-.15-.44.86.86,0,0,1,.11-.47.82.82,0,0,1,.32-.32A.87.87,0,0,1,14,3.79a.59.59,0,0,1,.35.12.6.6,0,0,1,.27.43A.76.76,0,0,1,14.57,4.53Z"/><path class="cls-2" d="M13.6,9.54l0,0a.26.26,0,0,0-.11-.07.52.52,0,0,0-.76.42.65.65,0,0,0,.21.6.61.61,0,0,0,.53.15.6.6,0,0,0,.33-.2.8.8,0,0,0,.15-.31.66.66,0,0,1,0,.09.56.56,0,0,1,0,.29.67.67,0,0,1-.4.37.68.68,0,0,1-.38,0,.79.79,0,0,1-.41-.2,1,1,0,0,1-.26-.41.9.9,0,0,1,0-.46.78.78,0,0,1,.22-.36A.56.56,0,0,1,13,9.28a.59.59,0,0,1,.49.12A.85.85,0,0,1,13.6,9.54Z"/><path class="cls-2" d="M16.46,13.78h-.05l-.12,0a.58.58,0,0,0-.32.3.53.53,0,0,0,.07.55.7.7,0,0,0,.57.27.59.59,0,0,0,.48-.27.58.58,0,0,0,.1-.38.69.69,0,0,0-.12-.32l.08.05a.58.58,0,0,1,.18.23.68.68,0,0,1,0,.54.77.77,0,0,1-.25.3.85.85,0,0,1-.43.15,1,1,0,0,1-.47-.11.87.87,0,0,1-.33-.33.86.86,0,0,1-.11-.4.67.67,0,0,1,.12-.36.63.63,0,0,1,.44-.26A.37.37,0,0,1,16.46,13.78Z"/><path class="cls-2" d="M21.48,14.75l0,0a.72.72,0,0,0-.07.11.55.55,0,0,0,.43.77.67.67,0,0,0,.6-.21.58.58,0,0,0,.14-.53.55.55,0,0,0-.2-.34.58.58,0,0,0-.3-.14l.08,0a.53.53,0,0,1,.29,0,.67.67,0,0,1,.37.4.78.78,0,0,1,0,.38.88.88,0,0,1-.21.42.83.83,0,0,1-.41.25.9.9,0,0,1-.46,0,.77.77,0,0,1-.36-.21.7.7,0,0,1-.17-.33.66.66,0,0,1,.12-.49A.34.34,0,0,1,21.48,14.75Z"/><path class="cls-2" d="M25.71,11.88v0a.39.39,0,0,0,0,.13.58.58,0,0,0,.29.32.54.54,0,0,0,.55-.08.65.65,0,0,0,.28-.57.63.63,0,0,0-.27-.48.6.6,0,0,0-.39-.09.76.76,0,0,0-.31.11.46.46,0,0,1,0-.08.64.64,0,0,1,.24-.17.61.61,0,0,1,.54,0,.81.81,0,0,1,.29.24.89.89,0,0,1,.15.44.86.86,0,0,1-.11.47.89.89,0,0,1-.32.32.79.79,0,0,1-.41.11A.57.57,0,0,1,26,12.5a.6.6,0,0,1-.27-.43A.43.43,0,0,1,25.71,11.88Z"/><path class="cls-2" d="M26.68,9.54l0,0a.52.52,0,0,1,.11-.07.59.59,0,0,1,.44,0,.55.55,0,0,1,.33.44.65.65,0,0,1-.21.6.61.61,0,0,1-.53.15.6.6,0,0,1-.33-.2.8.8,0,0,1-.15-.31.66.66,0,0,0,0,.09.56.56,0,0,0,0,.29.68.68,0,0,0,.39.37.73.73,0,0,0,.39,0,.79.79,0,0,0,.41-.2.88.88,0,0,0,.25-.41.8.8,0,0,0,0-.46.78.78,0,0,0-.22-.36.63.63,0,0,0-.82,0A.47.47,0,0,0,26.68,9.54Z"/><path class="cls-2" d="M25.71,4.53v0a.39.39,0,0,1,0-.13A.58.58,0,0,1,26,4a.54.54,0,0,1,.55.08.65.65,0,0,1,.28.57.61.61,0,0,1-.27.48.6.6,0,0,1-.39.09.76.76,0,0,1-.31-.11.46.46,0,0,0,0,.08.55.55,0,0,0,.24.17.63.63,0,0,0,.54,0A.84.84,0,0,0,27,5.13a.89.89,0,0,0,.15-.44A.86.86,0,0,0,27,4.22a.89.89,0,0,0-.32-.32.9.9,0,0,0-.41-.11.57.57,0,0,0-.35.12.6.6,0,0,0-.27.43A.43.43,0,0,0,25.71,4.53Z"/><path class="cls-2" d="M21.48,1.66l0,0a.72.72,0,0,1-.07-.11.52.52,0,0,1,0-.43A.52.52,0,0,1,21.8.75a.69.69,0,0,1,.6.21.58.58,0,0,1,.14.53.55.55,0,0,1-.2.34A.58.58,0,0,1,22,2a.15.15,0,0,0,.08,0,.7.7,0,0,0,.29,0,.64.64,0,0,0,.37-.4.78.78,0,0,0,0-.38.81.81,0,0,0-.21-.41A.78.78,0,0,0,22.2.51a.9.9,0,0,0-.46,0,.77.77,0,0,0-.36.21.7.7,0,0,0-.17.33.69.69,0,0,0,.12.5A.36.36,0,0,0,21.48,1.66Z"/><path class="cls-2" d="M16.46,2.63h-.05a.3.3,0,0,1-.12,0,.54.54,0,0,1-.32-.3A.54.54,0,0,1,16,1.76a.7.7,0,0,1,.57-.27.59.59,0,0,1,.48.27.58.58,0,0,1,.1.38.63.63,0,0,1-.12.32l.08,0a.51.51,0,0,0,.18-.23.68.68,0,0,0,0-.54.77.77,0,0,0-.25-.3.76.76,0,0,0-.43-.14.88.88,0,0,0-.8.43.87.87,0,0,0-.11.41.67.67,0,0,0,.12.35.63.63,0,0,0,.44.26A.37.37,0,0,0,16.46,2.63Z"/><path class="cls-2" d="M13.6,6.87l0,0a.26.26,0,0,1-.11.07.52.52,0,0,1-.76-.42A.66.66,0,0,1,12.9,6a.61.61,0,0,1,.53-.15.56.56,0,0,1,.33.21.74.74,0,0,1,.15.3.66.66,0,0,0,0-.09.56.56,0,0,0,0-.29.67.67,0,0,0-.4-.37.8.8,0,0,0-.79.17,1,1,0,0,0-.26.41.9.9,0,0,0,0,.46.78.78,0,0,0,.22.36.56.56,0,0,0,.33.17A.59.59,0,0,0,13.48,7,.85.85,0,0,0,13.6,6.87Z"/><path class="cls-2" d="M14.57,11.88v0a1.11,1.11,0,0,1,0,.13.58.58,0,0,1-.29.32.54.54,0,0,1-.55-.08.65.65,0,0,1-.28-.57.63.63,0,0,1,.27-.48.56.56,0,0,1,.38-.09.78.78,0,0,1,.32.11l0-.08a.64.64,0,0,0-.24-.17.61.61,0,0,0-.54,0,.77.77,0,0,0-.44.68.86.86,0,0,0,.11.47.82.82,0,0,0,.32.32.77.77,0,0,0,.41.11.59.59,0,0,0,.35-.12.6.6,0,0,0,.27-.43A.76.76,0,0,0,14.57,11.88Z"/><path class="cls-2" d="M18.8,14.75l0,0,.08.11a.62.62,0,0,1,0,.43.53.53,0,0,1-.44.34.67.67,0,0,1-.6-.21.62.62,0,0,1-.15-.53.56.56,0,0,1,.21-.34.58.58,0,0,1,.3-.14l-.08,0a.53.53,0,0,0-.29,0,.64.64,0,0,0-.37.4.78.78,0,0,0,0,.38.88.88,0,0,0,.21.42.83.83,0,0,0,.41.25.9.9,0,0,0,.46,0,.77.77,0,0,0,.36-.21.7.7,0,0,0,.17-.33.62.62,0,0,0-.13-.49A.3.3,0,0,0,18.8,14.75Z"/><path class="cls-2" d="M23.82,13.78h.05l.12,0a.58.58,0,0,1,.32.3.53.53,0,0,1-.07.55.7.7,0,0,1-.58.27.58.58,0,0,1-.47-.27.58.58,0,0,1-.1-.38.69.69,0,0,1,.12-.32l-.08.05a.58.58,0,0,0-.18.23.68.68,0,0,0,0,.54.77.77,0,0,0,.25.3.85.85,0,0,0,.43.15,1,1,0,0,0,.47-.11,1,1,0,0,0,.33-.33.74.74,0,0,0,.1-.4.67.67,0,0,0-.11-.36.65.65,0,0,0-.44-.26A.37.37,0,0,0,23.82,13.78Z"/><path class="cls-2" d="M26.06,8.21l.27-.3a1.8,1.8,0,0,0,.31-.49A.87.87,0,0,0,26.71,7a.55.55,0,0,0,0-.16.48.48,0,0,1,.07.15.88.88,0,0,1,0,.44,1.6,1.6,0,0,1-.25.6l-.1.15.1.15a1.5,1.5,0,0,1,.25.59.87.87,0,0,1,0,.44.48.48,0,0,1-.07.15.44.44,0,0,0,0-.15.91.91,0,0,0-.07-.4,1.8,1.8,0,0,0-.31-.49Z"/><path class="cls-2" d="M24.33,12.4l.4,0a1.5,1.5,0,0,0,.56-.12,1,1,0,0,0,.33-.23.56.56,0,0,0,.1-.13.64.64,0,0,1-.06.16,1,1,0,0,1-.3.33,1.59,1.59,0,0,1-.59.24l-.19,0a.57.57,0,0,1,0,.18,1.48,1.48,0,0,1-.24.6,1.09,1.09,0,0,1-.33.3l-.15,0a.41.41,0,0,0,.12-.09.87.87,0,0,0,.23-.33,1.84,1.84,0,0,0,.13-.56C24.32,12.67,24.32,12.54,24.33,12.4Z"/><path class="cls-2" d="M20.14,14.13c.1.09.2.19.3.27a1.63,1.63,0,0,0,.48.31,1.12,1.12,0,0,0,.4.07.55.55,0,0,0,.16,0l-.15.07a1,1,0,0,1-.45,0,1.63,1.63,0,0,1-.59-.25l-.15-.11L20,14.6a1.63,1.63,0,0,1-.59.25,1,1,0,0,1-.45,0l-.15-.07a.55.55,0,0,0,.16,0,1.12,1.12,0,0,0,.4-.07,1.77,1.77,0,0,0,.48-.31C19.94,14.32,20,14.22,20.14,14.13Z"/><path class="cls-2" d="M16,12.4c0,.14,0,.27,0,.4a1.84,1.84,0,0,0,.13.56,1,1,0,0,0,.22.33.52.52,0,0,0,.13.09l-.15,0a1,1,0,0,1-.33-.3,1.48,1.48,0,0,1-.24-.6,1.16,1.16,0,0,1,0-.18l-.18,0a1.59,1.59,0,0,1-.59-.24,1,1,0,0,1-.3-.33.64.64,0,0,1-.06-.16.56.56,0,0,0,.1.13,1,1,0,0,0,.33.23,1.5,1.5,0,0,0,.56.12Z"/><path class="cls-2" d="M14.21,8.21,14,8.5a1.8,1.8,0,0,0-.31.49,1.13,1.13,0,0,0-.08.4.61.61,0,0,0,0,.15.48.48,0,0,1-.07-.15.87.87,0,0,1,0-.44,1.5,1.5,0,0,1,.25-.59l.1-.15-.1-.15a1.6,1.6,0,0,1-.25-.6.88.88,0,0,1,0-.44.48.48,0,0,1,.07-.15.81.81,0,0,0,0,.16,1.08,1.08,0,0,0,.08.39,1.8,1.8,0,0,0,.31.49Z"/><path class="cls-2" d="M16,4l-.4,0a1.72,1.72,0,0,0-.56.12,1,1,0,0,0-.33.23.56.56,0,0,0-.1.13.64.64,0,0,1,.06-.16,1,1,0,0,1,.3-.33,1.59,1.59,0,0,1,.59-.24l.18,0a1.16,1.16,0,0,1,0-.18A1.54,1.54,0,0,1,16,3a1,1,0,0,1,.33-.3l.15-.05a.52.52,0,0,0-.13.09,1,1,0,0,0-.22.34,1.71,1.71,0,0,0-.13.56C16,3.74,16,3.88,16,4Z"/><path class="cls-2" d="M20.14,2.28c-.11-.09-.2-.19-.3-.27a1.77,1.77,0,0,0-.48-.31,1.12,1.12,0,0,0-.4-.07l-.16,0L19,1.59a.89.89,0,0,1,.45,0,1.63,1.63,0,0,1,.59.25l.15.11.15-.11a1.63,1.63,0,0,1,.59-.25.89.89,0,0,1,.45,0l.15.06-.16,0a1.12,1.12,0,0,0-.4.07,1.63,1.63,0,0,0-.48.31C20.34,2.09,20.24,2.19,20.14,2.28Z"/><path class="cls-2" d="M24.33,4c0-.14,0-.28,0-.4a1.71,1.71,0,0,0-.13-.56A.84.84,0,0,0,24,2.72a.41.41,0,0,0-.12-.09.69.69,0,0,1,.15.05,1.09,1.09,0,0,1,.33.3,1.54,1.54,0,0,1,.24.6.57.57,0,0,1,0,.18l.19,0a1.59,1.59,0,0,1,.59.24,1,1,0,0,1,.3.33.64.64,0,0,1,.06.16.56.56,0,0,0-.1-.13,1,1,0,0,0-.33-.23A1.72,1.72,0,0,0,24.73,4Z"/><path class="cls-2" d="M25.92,5.81a2.12,2.12,0,0,0-.22.51,1.2,1.2,0,0,0,0,.49,1,1,0,0,0,.08.28.41.41,0,0,0,0,.09.24.24,0,0,1-.08-.06.78.78,0,0,1-.19-.26,1.21,1.21,0,0,1-.08-.58A2,2,0,0,1,25.53,6a.88.88,0,0,1-.27-.16,1.14,1.14,0,0,1-.35-.47A.73.73,0,0,1,24.85,5a.65.65,0,0,1,0-.1l0,.09a.82.82,0,0,0,.14.25,1.06,1.06,0,0,0,.36.33A1.66,1.66,0,0,0,25.92,5.81Z"/><path class="cls-2" d="M25.92,10.6a1.66,1.66,0,0,0-.52.21,1.06,1.06,0,0,0-.36.33.82.82,0,0,0-.14.25l0,.09a.65.65,0,0,1,0-.1.73.73,0,0,1,.06-.31,1.15,1.15,0,0,1,.62-.63,2,2,0,0,1-.08-.31,1.23,1.23,0,0,1,.08-.58,1.08,1.08,0,0,1,.19-.26l.08-.06a.41.41,0,0,0,0,.09,1,1,0,0,0-.08.28,1.2,1.2,0,0,0,0,.49A2.12,2.12,0,0,0,25.92,10.6Z"/><path class="cls-2" d="M22.53,14a1.67,1.67,0,0,0-.51-.22,1.22,1.22,0,0,0-.49,0,1.43,1.43,0,0,0-.28.08l-.08,0a.3.3,0,0,1,0-.08.81.81,0,0,1,.27-.19,1.06,1.06,0,0,1,.57-.08,2,2,0,0,1,.31.07,1.78,1.78,0,0,1,.17-.27A1.15,1.15,0,0,1,23,13a.88.88,0,0,1,.32-.05h.1l-.09,0a1,1,0,0,0-.26.13,1.55,1.55,0,0,0-.33.37A2.15,2.15,0,0,0,22.53,14Z"/><path class="cls-2" d="M17.74,14a1.82,1.82,0,0,0-.2-.52,1.55,1.55,0,0,0-.33-.37A1.23,1.23,0,0,0,17,13l-.09,0H17a.88.88,0,0,1,.32.05,1.15,1.15,0,0,1,.46.35,1.78,1.78,0,0,1,.17.27,1.73,1.73,0,0,1,.31-.07,1.08,1.08,0,0,1,.57.08.66.66,0,0,1,.26.19.24.24,0,0,1,.06.08l-.08,0a1.43,1.43,0,0,0-.28-.08,1.21,1.21,0,0,0-.49,0A1.72,1.72,0,0,0,17.74,14Z"/><path class="cls-2" d="M14.36,10.6a2.12,2.12,0,0,0,.22-.51,1.2,1.2,0,0,0,0-.49,1,1,0,0,0-.08-.28l0-.09.08.06a.88.88,0,0,1,.18.26,1.12,1.12,0,0,1,.08.58,1.25,1.25,0,0,1-.07.31,1.75,1.75,0,0,1,.27.16,1.14,1.14,0,0,1,.35.47.94.94,0,0,1,.06.31.65.65,0,0,1,0,.1l0-.09a.82.82,0,0,0-.14-.25,1.17,1.17,0,0,0-.36-.33A1.66,1.66,0,0,0,14.36,10.6Z"/><path class="cls-2" d="M14.36,5.81a1.66,1.66,0,0,0,.52-.21,1.17,1.17,0,0,0,.36-.33A.82.82,0,0,0,15.38,5l0-.09a.65.65,0,0,1,0,.1.94.94,0,0,1-.06.31,1.14,1.14,0,0,1-.35.47,1.2,1.2,0,0,1-.27.16,1.25,1.25,0,0,1,.07.31,1.1,1.1,0,0,1-.08.58.66.66,0,0,1-.18.26.24.24,0,0,1-.08.06l0-.09a1,1,0,0,0,.08-.28,1.2,1.2,0,0,0,0-.49A2.12,2.12,0,0,0,14.36,5.81Z"/><path class="cls-2" d="M17.74,2.42a1.77,1.77,0,0,0,.52.23,1.39,1.39,0,0,0,.49,0A1.43,1.43,0,0,0,19,2.59l.08,0-.06.07a.58.58,0,0,1-.26.19,1.08,1.08,0,0,1-.57.08,1.16,1.16,0,0,1-.31-.07,1.78,1.78,0,0,1-.17.27,1.15,1.15,0,0,1-.46.35.71.71,0,0,1-.32.05h-.1l.09,0a2.46,2.46,0,0,0,.26-.14,1.38,1.38,0,0,0,.33-.37A1.71,1.71,0,0,0,17.74,2.42Z"/><path class="cls-2" d="M22.53,2.42a2,2,0,0,0,.21.52,1.38,1.38,0,0,0,.33.37,1.76,1.76,0,0,0,.26.14l.09,0h-.1A.71.71,0,0,1,23,3.44a1.15,1.15,0,0,1-.46-.35,1.78,1.78,0,0,1-.17-.27,1.25,1.25,0,0,1-.31.07,1.06,1.06,0,0,1-.57-.08.69.69,0,0,1-.27-.19l0-.07.08,0a1.43,1.43,0,0,0,.28.08,1.4,1.4,0,0,0,.49,0A1.72,1.72,0,0,0,22.53,2.42Z"/><path class="cls-2" d="M27,7.29h0a0,0,0,0,1,0,0s0,0,0,0S27,7.3,27,7.29Z"/><path class="cls-2" d="M24.35,2.7s0,0,0,0,0,0,0,0a0,0,0,0,1,0,0S24.35,2.72,24.35,2.7Z"/><path class="cls-2" d="M19.22,1.34a0,0,0,0,1,0,0,0,0,0,0,1,0,0s0,0,0,0S19.23,1.35,19.22,1.34Z"/><path class="cls-2" d="M14.64,4s0,0,0,0a0,0,0,0,1,0,0s0,0,0,0A0,0,0,0,1,14.64,4Z"/><path class="cls-2" d="M13.27,9.12a0,0,0,0,1,0,0,0,0,0,0,1,0,0s0,0,0,0A0,0,0,0,1,13.27,9.12Z"/><path class="cls-2" d="M15.93,13.71s0,0,0,0l0,0a0,0,0,0,1,0,0S15.93,13.7,15.93,13.71Z"/><path class="cls-2" d="M21.06,15.07s0,0,0,0h0s0,0,0,0S21,15.06,21.06,15.07Z"/><path class="cls-2" d="M25.64,12.41s0,0,0,0,0,0,0,0,0,0,0,0Z"/><path class="cls-2" d="M27,9.12a0,0,0,0,0,0,0,0,0,0,0,0,0,0s0,0,0,0A0,0,0,0,0,27,9.12Z"/><path class="cls-2" d="M25.64,4s0,0,0,0,0,0,0,0l0,0S25.63,4,25.64,4Z"/><path class="cls-2" d="M21.06,1.34a0,0,0,0,0,0,0,0,0,0,0,0,0,0s0,0,0,0S21,1.35,21.06,1.34Z"/><path class="cls-2" d="M15.93,2.7s0,0,0,0l0,0a0,0,0,0,0,0,0S15.93,2.72,15.93,2.7Z"/><path class="cls-2" d="M13.27,7.29h0a0,0,0,0,0,0,0s0,0,0,0S13.28,7.3,13.27,7.29Z"/><path class="cls-2" d="M14.64,12.41s0,0,0,0a0,0,0,0,0,0,0s0,0,0,0S14.65,12.42,14.64,12.41Z"/><path class="cls-2" d="M19.22,15.07s0,0,0,0h0s0,0,0,0S19.23,15.06,19.22,15.07Z"/><path class="cls-2" d="M24.35,13.71s0,0,0,0,0,0,0,0a0,0,0,0,0,0,0S24.35,13.7,24.35,13.71Z"/><path class="cls-2" d="M27.15,7.36a0,0,0,0,1,0,0s0,0,0,0l0,0S27.14,7.38,27.15,7.36Z"/><path class="cls-2" d="M24.5,2.65s0,0,0,0,0,0,0,0a0,0,0,0,1,0,0S24.5,2.67,24.5,2.65Z"/><path class="cls-2" d="M19.3,1.2s0,0,0,0,0,0,0,0,0,0,0,0S19.31,1.2,19.3,1.2Z"/><path class="cls-2" d="M14.59,3.85a0,0,0,0,1,0,0s0,0,0,0,0,0,0,0S14.6,3.84,14.59,3.85Z"/><path class="cls-2" d="M13.13,9.05l0,0a.05.05,0,0,1,0,0l0,0S13.14,9,13.13,9.05Z"/><path class="cls-2" d="M15.78,13.76a0,0,0,0,1,0,0s0,0,0,0a0,0,0,0,1,0,0S15.77,13.74,15.78,13.76Z"/><path class="cls-2" d="M21,15.21s0,0,0,0,0,0,0,0,0,0,0,0S21,15.21,21,15.21Z"/><path class="cls-2" d="M25.69,12.56a0,0,0,0,1,0,0s0,0,0,0a0,0,0,0,1,0,0S25.68,12.57,25.69,12.56Z"/><path class="cls-2" d="M27.15,9.05l0,0a.05.05,0,0,0,0,0l0,0S27.14,9,27.15,9.05Z"/><path class="cls-2" d="M25.69,3.85a0,0,0,0,0,0,0s0,0,0,0a0,0,0,0,0,0,0S25.68,3.84,25.69,3.85Z"/><path class="cls-2" d="M21,1.2s0,0,0,0,0,0,0,0,0,0,0,0S21,1.2,21,1.2Z"/><path class="cls-2" d="M15.78,2.65s0,0,0,0,0,0,0,0a0,0,0,0,0,0,0S15.77,2.67,15.78,2.65Z"/><path class="cls-2" d="M13.13,7.36a0,0,0,0,0,0,0s0,0,0,0l0,0S13.14,7.38,13.13,7.36Z"/><path class="cls-2" d="M14.59,12.56a0,0,0,0,0,0,0s0,0,0,0,0,0,0,0S14.6,12.57,14.59,12.56Z"/><path class="cls-2" d="M19.3,15.21s0,0,0,0a0,0,0,0,0,0,0s0,0,0,0S19.31,15.21,19.3,15.21Z"/><path class="cls-2" d="M24.5,13.76a0,0,0,0,0,0,0s0,0,0,0a0,0,0,0,0,0,0S24.5,13.74,24.5,13.76Z"/><path class="cls-2" d="M27.3,7.4s0,0,0,0a0,0,0,0,1,0,0,0,0,0,0,1,0,0S27.3,7.42,27.3,7.4Z"/><path class="cls-2" d="M24.64,2.57a0,0,0,0,1,0,0h0a0,0,0,0,1,0,0S24.64,2.59,24.64,2.57Z"/><path class="cls-2" d="M19.34,1a0,0,0,0,1,0,0s0,0,0,0a0,0,0,0,1,0,0S19.35,1.05,19.34,1Z"/><path class="cls-2" d="M14.51,3.71a0,0,0,0,1,0,0,0,0,0,0,1,0,0s0,0,0,0A0,0,0,0,1,14.51,3.71Z"/><path class="cls-2" d="M13,9s0,0,0,0a0,0,0,0,1,0,0s0,0,0,0A0,0,0,0,1,13,9Z"/><path class="cls-2" d="M15.64,13.84a0,0,0,0,1,0,0s0,0,0,0a0,0,0,0,1,0,0S15.63,13.82,15.64,13.84Z"/><path class="cls-2" d="M20.94,15.37a0,0,0,0,1,0,0l0,0a0,0,0,0,1,0,0S20.93,15.36,20.94,15.37Z"/><path class="cls-2" d="M25.77,12.7a0,0,0,0,1,0,0,0,0,0,0,1,0,0s0,0,0,0A0,0,0,0,1,25.77,12.7Z"/><path class="cls-2" d="M27.3,9s0,0,0,0a0,0,0,0,0,0,0s0,0,0,0A0,0,0,0,0,27.3,9Z"/><path class="cls-2" d="M25.77,3.71a0,0,0,0,0,0,0,0,0,0,0,0,0,0s0,0,0,0A0,0,0,0,0,25.77,3.71Z"/><path class="cls-2" d="M20.94,1a0,0,0,0,0,0,0l0,0a0,0,0,0,0,0,0S20.93,1.05,20.94,1Z"/><path class="cls-2" d="M15.64,2.57a0,0,0,0,0,0,0h0a0,0,0,0,0,0,0S15.63,2.59,15.64,2.57Z"/><path class="cls-2" d="M13,7.4s0,0,0,0a0,0,0,0,0,0,0,0,0,0,0,0,0,0S13,7.42,13,7.4Z"/><path class="cls-2" d="M14.51,12.7a0,0,0,0,0,0,0,0,0,0,0,0,0,0,0,0,0,0,0,0,0A0,0,0,0,0,14.51,12.7Z"/><path class="cls-2" d="M19.34,15.37a0,0,0,0,0,0,0l0,0a0,0,0,0,0,0,0S19.35,15.36,19.34,15.37Z"/><path class="cls-2" d="M24.64,13.84a0,0,0,0,0,0,0s0,0,0,0a0,0,0,0,0,0,0S24.64,13.82,24.64,13.84Z"/><path class="cls-2" d="M27.46,7.41a0,0,0,0,1,0,0,0,0,0,1,1,0,.06A0,0,0,0,1,27.46,7.41Z"/><path class="cls-2" d="M24.75,2.47a0,0,0,0,1,0-.05h0a0,0,0,0,1,0,0S24.77,2.48,24.75,2.47Z"/><path class="cls-2" d="M19.34.89a0,0,0,0,1,0,0s0,0,0,0a0,0,0,0,1,0,0S19.36.89,19.34.89Z"/><path class="cls-2" d="M14.4,3.59s0,0,0,0,0,0,0-.05h.05A0,0,0,0,1,14.4,3.59Z"/><path class="cls-2" d="M12.82,9a0,0,0,0,1,0,0s0,0,0,0,0,0,0,0A0,0,0,0,1,12.82,9Z"/><path class="cls-2" d="M15.53,13.94a0,0,0,0,1,0,.05h0a0,0,0,0,1,0,0S15.51,13.93,15.53,13.94Z"/><path class="cls-2" d="M20.93,15.53a0,0,0,0,1,0,0s0,0,0,0,0,0,0,0A0,0,0,0,1,20.93,15.53Z"/><path class="cls-2" d="M25.88,12.82h0s0,0,0,0,0,0,0,0A0,0,0,0,1,25.88,12.82Z"/><path class="cls-2" d="M27.46,9a0,0,0,0,0,0,0l0,0s0,0,0,0A0,0,0,0,0,27.46,9Z"/><path class="cls-2" d="M25.88,3.59s0,0,0,0,0,0,0-.05h0A0,0,0,0,0,25.88,3.59Z"/><path class="cls-2" d="M20.93.89a0,0,0,0,0,0,0s0,0,0,0,0,0,0,0A0,0,0,0,0,20.93.89Z"/><path class="cls-2" d="M15.53,2.47a0,0,0,0,0,0-.05h0a0,0,0,0,0,0,0S15.51,2.48,15.53,2.47Z"/><path class="cls-2" d="M12.82,7.41a0,0,0,0,0-.06,0,0,0,0,0,0,.06,0Z"/><path class="cls-2" d="M14.4,12.82h0s0,0,0,0,0,0,.05,0A0,0,0,0,0,14.4,12.82Z"/><path class="cls-2" d="M19.34,15.53s0,0,0,0,0,0,0,0a0,0,0,0,0,0-.06Z"/><path class="cls-2" d="M24.75,13.94a0,0,0,0,0,0,.05h0a0,0,0,0,0,0,0S24.77,13.93,24.75,13.94Z"/><path class="cls-2" d="M27.62,7.39s0,0,0,0,0,0,0,0,0,0,0,0S27.62,7.41,27.62,7.39Z"/><path class="cls-2" d="M24.85,2.34a0,0,0,0,1,0,0s0,0,0,0,0,0,0,.05A0,0,0,0,1,24.85,2.34Z"/><path class="cls-2" d="M19.32.73s0,0,0,0a0,0,0,1,1,.07,0S19.34.72,19.32.73Z"/><path class="cls-2" d="M14.27,3.5s0,0,0,0,0,0,0,0,0,0,0,0S14.28,3.48,14.27,3.5Z"/><path class="cls-2" d="M12.66,9s0,0,0,0,0,0,0,0,0,0,0,0S12.66,9,12.66,9Z"/><path class="cls-2" d="M15.43,14.07s0,0,0,0,0,0,0,0a0,0,0,0,1,0-.05A0,0,0,0,1,15.43,14.07Z"/><path class="cls-2" d="M21,15.68a0,0,0,0,1,0,.07.05.05,0,0,1,0-.07A.05.05,0,0,1,21,15.68Z"/><path class="cls-2" d="M26,12.92a0,0,0,0,1,.05,0,0,0,0,0,1,0,0,0,0,0,0,1,0,0S26,12.93,26,12.92Z"/><path class="cls-2" d="M27.62,9s0,0,0,0,0,0,0,0,0,0,0,0S27.62,9,27.62,9Z"/><path class="cls-2" d="M26,3.5a0,0,0,1,0,.06,0s0,0,0,0A0,0,0,0,0,26,3.5Z"/><path class="cls-2" d="M21,.73a.05.05,0,0,0,0,0,0,0,0,1,0-.07,0S20.94.72,21,.73Z"/><path class="cls-2" d="M15.43,2.34a0,0,0,0,0,0,0s0,0,0,0a0,0,0,0,0,0,.05S15.41,2.35,15.43,2.34Z"/><path class="cls-2" d="M12.66,7.39s0,0,0,0,0,0,0,0,0,0,0,0S12.66,7.41,12.66,7.39Z"/><path class="cls-2" d="M14.27,12.92s0,0,0,0,0,0,0,0a0,0,0,0,0,0,0A0,0,0,0,0,14.22,13Z"/><path class="cls-2" d="M19.32,15.68s0,0,0,0a0,0,0,1,0,.07,0A.05.05,0,0,0,19.28,15.71Z"/><path class="cls-2" d="M24.85,14.07s0,0,0,0,0,0,0,0,0,0,0-.05S24.86,14.06,24.85,14.07Z"/><path class="cls-2" d="M27.77,7.34a0,0,0,0,1,0,0,0,0,0,0,1,0,0,0,0,0,0,1,0,.05S27.77,7.36,27.77,7.34Z"/><path class="cls-2" d="M24.92,2.2a0,0,0,0,1,0-.05l0,0a.05.05,0,0,1,0,.05A0,0,0,0,1,24.92,2.2Z"/><path class="cls-2" d="M19.27.58s0,0,0,0,0,0,0-.05a0,0,0,0,1,0,.07Z"/><path class="cls-2" d="M14.13,3.42s0,0,0,0a0,0,0,0,1,0-.05s0,0,0,0A0,0,0,0,1,14.13,3.42Z"/><path class="cls-2" d="M12.51,9.07a0,0,0,0,1,0,0s0,0,0,0a0,0,0,0,1,0,0A0,0,0,0,1,12.51,9.07Z"/><path class="cls-2" d="M15.36,14.21s0,0,0,0a0,0,0,1,1-.07,0A0,0,0,0,1,15.38,14.26Z"/><path class="cls-2" d="M21,15.83a0,0,0,0,1,0,0,0,0,0,0,1,0,.05,0,0,0,0,1,0-.07Z"/><path class="cls-2" d="M26.15,13s0,0,0,0,0,0,0,0,0,0,0,0S26.14,13,26.15,13Z"/><path class="cls-2" d="M27.77,9.07a0,0,0,0,0,0,0,0,0,0,0,0,0,0s0,0,0,0S27.77,9.05,27.77,9.07Z"/><path class="cls-2" d="M26.15,3.42s0,0,0,0a0,0,0,0,0,0-.05s0,0,0,0A0,0,0,0,0,26.15,3.42Z"/><path class="cls-2" d="M21,.58s0,0,0,0a0,0,0,0,0,0-.05,0,0,0,1,0,0,.07Z"/><path class="cls-2" d="M15.36,2.2s0,0,0-.05l-.05,0a0,0,0,0,0,0,.07Z"/><path class="cls-2" d="M12.51,7.34a0,0,0,0,0,0,0s0,0,0,0,0,0,0,.05A0,0,0,0,0,12.51,7.34Z"/><path class="cls-2" d="M14.13,13s0,0,0,0,0,0,0,0,0,0,0,0S14.14,13,14.13,13Z"/><path class="cls-2" d="M19.27,15.83s0,0,0,0,0,0,0,.05a0,0,0,1,0,0-.07Z"/><path class="cls-2" d="M24.92,14.21a0,0,0,0,0,0,0s0,0,0,0a.05.05,0,0,0,0,0A0,0,0,0,0,24.92,14.21Z"/><path class="cls-2" d="M27.91,7.26a0,0,0,1,1,.06,0s0,0,0,0S27.92,7.28,27.91,7.26Z"/><path class="cls-2" d="M25,2.05s0,0,0,0,0,0,0,0S25,2,25,2,25,2.05,25,2.05Z"/><path class="cls-2" d="M19.2.44a0,0,0,0,1-.05,0,0,0,0,0,1,0,0s0,0,.06,0S19.22.43,19.2.44Z"/><path class="cls-2" d="M14,3.38s0,0,0,0,0,0,0,0a0,0,0,0,1,0,0S14,3.36,14,3.38Z"/><path class="cls-2" d="M12.37,9.15a0,0,0,1,1-.06,0,0,0,0,0,1,.06,0S12.36,9.13,12.37,9.15Z"/><path class="cls-2" d="M15.31,14.36s0,0,0,.05,0,0,0,0,0,0,0,0A0,0,0,0,1,15.31,14.36Z"/><path class="cls-2" d="M21.08,16a0,0,0,0,1,.05,0s0,0,0,.06a0,0,0,1,1-.05-.07Z"/><path class="cls-2" d="M26.3,13s0,0,0,0,0,0,0,0a0,0,0,0,1,0,0S26.29,13.05,26.3,13Z"/><path class="cls-2" d="M27.91,9.15a0,0,0,1,0,.05,0S27.92,9.13,27.91,9.15Z"/><path class="cls-2" d="M26.3,3.38s0,0,0,0,0,0,0,0a0,0,0,0,0,0,0S26.29,3.36,26.3,3.38Z"/><path class="cls-2" d="M21.08.44a0,0,0,0,0,.05,0,0,0,0,0,0,0,0s0,0-.06,0S21.06.43,21.08.44Z"/><path class="cls-2" d="M15.31,2.05s0,0,0,0,0,0,0,0a0,0,0,0,0,0,.05S15.29,2.05,15.31,2.05Z"/><path class="cls-2" d="M12.37,7.26a0,0,0,0,0-.06,0s0,0,0,0S12.36,7.28,12.37,7.26Z"/><path class="cls-2" d="M14,13s0,0,0,0,0,0,0,0a0,0,0,0,0,0,0S14,13.05,14,13Z"/><path class="cls-2" d="M19.2,16a0,0,0,0,0-.05,0s0,0,0,.06A0,0,0,0,0,19.2,16Z"/><path class="cls-2" d="M25,14.36s0,0,0,.05,0,0,0,0,0,0,0,0A0,0,0,0,0,25,14.36Z"/><path class="cls-2" d="M28,7.16s0,0,0,0,0,0,.06,0a.06.06,0,0,1,0,.06A0,0,0,0,1,28,7.16Z"/><path class="cls-2" d="M25,1.89a0,0,0,0,1,0-.08,0,0,0,0,1,0,.08Z"/><path class="cls-2" d="M19.1.31a0,0,0,0,1-.06,0s0,0,0-.06,0,0,.06,0A0,0,0,0,1,19.1.31Z"/><path class="cls-2" d="M13.82,3.36a0,0,0,0,1,0,0s0,0,0,0a0,0,0,0,1,0-.05A0,0,0,0,1,13.82,3.36Z"/><path class="cls-2" d="M12.25,9.25a0,0,0,0,1,0,.05s0,0-.06,0,0,0,0-.06A0,0,0,0,1,12.25,9.25Z"/><path class="cls-2" d="M15.3,14.52a0,0,0,0,1,0,.08s0,0,0,0S15.27,14.52,15.3,14.52Z"/><path class="cls-2" d="M21.18,16.1a0,0,0,0,1,.06,0,0,0,0,0,1,0,0s0,0-.06,0S21.16,16.11,21.18,16.1Z"/><path class="cls-2" d="M26.46,13.05s0,0,0,0,0,0,.05,0a0,0,0,0,1,0,0A0,0,0,0,1,26.46,13.05Z"/><path class="cls-2" d="M28,9.25s0,0,0,.05,0,0,.06,0a.06.06,0,0,0,0-.06A0,0,0,0,0,28,9.25Z"/><path class="cls-2" d="M26.46,3.36s0,0,0,0a0,0,0,1,0,0-.08A0,0,0,0,0,26.46,3.36Z"/><path class="cls-2" d="M21.18.31a0,0,0,0,0,.06,0,.06.06,0,0,0,0-.06s0,0-.06,0A0,0,0,0,0,21.18.31Z"/><path class="cls-2" d="M15.3,1.89a0,0,0,0,0,0-.08,0,0,0,0,0,0,0S15.27,1.89,15.3,1.89Z"/><path class="cls-2" d="M12.25,7.16a0,0,0,0,0,0,0s0,0-.06,0,0,0,0,.06A0,0,0,0,0,12.25,7.16Z"/><path class="cls-2" d="M13.82,13.05a0,0,0,0,0-.08,0,0,0,0,0,0,.08,0Z"/><path class="cls-2" d="M19.1,16.1a0,0,0,0,0-.06,0,0,0,0,0,0,0,0s0,0,.06,0A.06.06,0,0,0,19.1,16.1Z"/><path class="cls-2" d="M25,14.52a0,0,0,0,0,0,.08s0,0,0,0A0,0,0,0,0,25,14.52Z"/><path class="cls-2" d="M28.13,7s0,0,0-.06,0,0,.06,0a0,0,0,1,1-.05.07Z"/><path class="cls-2" d="M25,1.73a0,0,0,1,1,0-.08,0,0,0,0,1,.05,0A0,0,0,0,1,25,1.73Z"/><path class="cls-2" d="M19,.21s0,0-.06,0,0,0,0-.06a0,0,0,0,1,.06,0S19,.19,19,.21Z"/><path class="cls-2" d="M13.66,3.38s0,0,0,.05a.05.05,0,0,1-.05,0,0,0,0,0,1,0-.06S13.66,3.35,13.66,3.38Z"/><path class="cls-2" d="M12.15,9.37s0,0,0,.06,0,0-.06,0a0,0,0,0,1,0-.06S12.13,9.36,12.15,9.37Z"/><path class="cls-2" d="M15.31,14.68s0,0,0,0a0,0,0,0,1,0,0,0,0,0,0,1-.05,0A0,0,0,0,1,15.31,14.68Z"/><path class="cls-2" d="M21.3,16.2s0,0,.06,0a0,0,0,0,1,0,0s0,0-.06,0A0,0,0,0,1,21.3,16.2Z"/><path class="cls-2" d="M26.61,13a0,0,0,0,1,.09,0,0,0,0,0,1-.09,0Z"/><path class="cls-2" d="M28.13,9.37s0,0,0,.06,0,0,.06,0a0,0,0,0,0,0-.06S28.15,9.36,28.13,9.37Z"/><path class="cls-2" d="M26.61,3.38a.05.05,0,0,0,0,.05.05.05,0,0,0,.05,0,.06.06,0,0,0,0-.06A.05.05,0,0,0,26.61,3.38Z"/><path class="cls-2" d="M21.3.21s0,0,.06,0,0,0,0-.06,0,0-.06,0S21.29.19,21.3.21Z"/><path class="cls-2" d="M15.31,1.73a0,0,0,1,0,0-.08,0,0,0,0,0-.05,0A0,0,0,0,0,15.31,1.73Z"/><path class="cls-2" d="M12.15,7s0,0,0-.06,0,0-.06,0a0,0,0,0,0,.05.07Z"/><path class="cls-2" d="M13.66,13a0,0,0,0,0,0-.06.05.05,0,0,0-.05,0,0,0,0,0,0,0,.06S13.66,13.06,13.66,13Z"/><path class="cls-2" d="M19,16.2s0,0-.06,0a0,0,0,0,0,0,0,0,0,0,1,0,.08,0Z"/><path class="cls-2" d="M25,14.68s0,0,0,0a0,0,0,0,0,0,0,0,0,0,0,0,.05,0A0,0,0,0,0,25,14.68Z"/><path class="cls-2" d="M28.21,6.9a.05.05,0,0,1,0-.05,0,0,0,0,1,.06,0,0,0,0,0,1,0,.06A0,0,0,0,1,28.21,6.9Z"/><path class="cls-2" d="M24.93,1.58a0,0,0,0,1-.06,0,0,0,0,0,1,0-.05s.05,0,.06,0A0,0,0,0,1,24.93,1.58Z"/><path class="cls-2" d="M18.84.14a0,0,0,0,1-.06,0,0,0,0,0,1,0-.06s0,0,.06,0A0,0,0,0,1,18.84.14Z"/><path class="cls-2" d="M13.51,3.42a0,0,0,1,1-.08,0,0,0,0,0,1,.08,0Z"/><path class="cls-2" d="M12.07,9.51a0,0,0,0,1,0,.06,0,0,0,0,1-.05,0,0,0,0,0,1,0-.06A0,0,0,0,1,12.07,9.51Z"/><path class="cls-2" d="M15.35,14.83a0,0,0,0,1,.06,0s0,0,0,.06a0,0,0,0,1-.06,0A0,0,0,0,1,15.35,14.83Z"/><path class="cls-2" d="M21.44,16.28a0,0,0,0,1,.06,0,.06.06,0,0,1,0,.06s0,0-.06,0A0,0,0,0,1,21.44,16.28Z"/><path class="cls-2" d="M26.77,13a0,0,0,1,1,.08,0,.06.06,0,0,1,0,.07A0,0,0,0,1,26.77,13Z"/><path class="cls-2" d="M28.21,9.51a.06.06,0,0,0,0,.06,0,0,0,0,0,.06,0,0,0,0,0,0,0-.06A0,0,0,0,0,28.21,9.51Z"/><path class="cls-2" d="M26.77,3.42a0,0,0,1,0,.08,0,0,0,0,1,0-.08,0Z"/><path class="cls-2" d="M21.44.14a0,0,0,0,0,.06,0,.06.06,0,0,0,0-.06s0,0-.06,0A0,0,0,0,0,21.44.14Z"/><path class="cls-2" d="M15.35,1.58a0,0,0,0,0,.06,0,0,0,0,0,0,0-.05s-.05,0-.06,0A0,0,0,0,0,15.35,1.58Z"/><path class="cls-2" d="M12.07,6.9a0,0,0,0,0,0-.05s0,0-.05,0a0,0,0,0,0,0,.06A0,0,0,0,0,12.07,6.9Z"/><path class="cls-2" d="M13.51,13a0,0,0,1,0-.08,0,.06.06,0,0,0,0,.07A0,0,0,0,0,13.51,13Z"/><path class="cls-2" d="M18.84,16.28a0,0,0,0,0-.06,0,0,0,0,0,0,0,.06s0,0,.06,0A0,0,0,0,0,18.84,16.28Z"/><path class="cls-2" d="M24.93,14.83a0,0,0,0,0-.06,0s0,0,0,.06a0,0,0,0,0,.06,0A0,0,0,0,0,24.93,14.83Z"/><path class="cls-2" d="M28.26,6.75a0,0,0,0,1,0,0s0,0,.05,0a0,0,0,0,1,0,.06A0,0,0,0,1,28.26,6.75Z"/><path class="cls-2" d="M24.86,1.44a.06.06,0,0,1-.07,0s0,0,0-.06a0,0,0,0,1,.07,0A0,0,0,0,1,24.86,1.44Z"/><path class="cls-2" d="M18.69.08a.06.06,0,0,1-.06,0,.07.07,0,0,1,0-.06.07.07,0,0,1,.06,0A.06.06,0,0,1,18.69.08Z"/><path class="cls-2" d="M13.37,3.49a0,0,0,0,1,0,.06,0,0,0,0,1-.06,0,0,0,0,0,1,0-.07A.06.06,0,0,1,13.37,3.49Z"/><path class="cls-2" d="M12,9.66a0,0,0,0,1,0,.05s0,0-.05,0a0,0,0,0,1,0-.06S12,9.65,12,9.66Z"/><path class="cls-2" d="M15.42,15a0,0,0,0,1,.07,0,.05.05,0,0,1,0,.07,0,0,0,0,1-.06,0A0,0,0,0,1,15.42,15Z"/><path class="cls-2" d="M21.59,16.33a.05.05,0,0,1,.06,0,0,0,0,0,1,0,.06,0,0,0,0,1-.05,0S21.58,16.35,21.59,16.33Z"/><path class="cls-2" d="M26.91,12.92s0-.05,0-.06a0,0,0,0,1,.07,0,0,0,0,0,1,0,.07S26.92,13,26.91,12.92Z"/><path class="cls-2" d="M28.26,9.66a0,0,0,0,0,0,.05s0,0,.05,0a0,0,0,0,0,0-.06A0,0,0,0,0,28.26,9.66Z"/><path class="cls-2" d="M26.91,3.49s0,0,0,.06a0,0,0,0,0,.07,0,0,0,0,0,0,0-.07A.06.06,0,0,0,26.91,3.49Z"/><path class="cls-2" d="M21.59.08a.05.05,0,0,0,.06,0,0,0,0,0,0,0-.06,0,0,0,0,0-.05,0S21.58.06,21.59.08Z"/><path class="cls-2" d="M15.42,1.44a.06.06,0,0,0,.07,0,0,0,0,0,0,0-.06,0,0,0,0,0-.06,0A0,0,0,0,0,15.42,1.44Z"/><path class="cls-2" d="M12,6.75a0,0,0,0,0,0,0s0,0-.05,0a0,0,0,0,0,0,.06S12,6.76,12,6.75Z"/><path class="cls-2" d="M13.37,12.92a0,0,0,0,0,0-.06,0,0,0,0,0-.06,0,0,0,0,0,0,0,.07S13.36,13,13.37,12.92Z"/><path class="cls-2" d="M18.69,16.33a.06.06,0,0,0-.06,0,.05.05,0,0,0,0,.1A.06.06,0,0,0,18.69,16.33Z"/><path class="cls-2" d="M24.86,15a0,0,0,0,0-.07,0,.06.06,0,0,0,0,.07s.06,0,.07,0A0,0,0,0,0,24.86,15Z"/><path class="cls-2" d="M28.29,6.6a.06.06,0,0,1-.05-.06.07.07,0,0,1,.06,0,.05.05,0,0,1,.05,0A.06.06,0,0,1,28.29,6.6Z"/><path class="cls-2" d="M24.77,1.3s-.06,0-.07,0a0,0,0,0,1,.07-.07S24.79,1.29,24.77,1.3Z"/><path class="cls-2" d="M18.53.05a.05.05,0,0,1-.05.05,0,0,0,0,1-.05,0,0,0,0,0,1,.05,0A.05.05,0,0,1,18.53.05Z"/><path class="cls-2" d="M13.24,3.58a0,0,0,0,1,0,.07,0,0,0,0,1-.07,0,.06.06,0,0,1,0-.08A0,0,0,0,1,13.24,3.58Z"/><path class="cls-2" d="M12,9.81s0,0,0,.06a0,0,0,0,1,0,0,0,0,0,0,1-.05-.05A.06.06,0,0,1,12,9.81Z"/><path class="cls-2" d="M15.51,15.11s.06,0,.07,0a0,0,0,0,1-.07.07S15.49,15.12,15.51,15.11Z"/><path class="cls-2" d="M21.75,16.36a0,0,0,0,1,.05-.05.05.05,0,0,1,.05.05.06.06,0,0,1-.06.05S21.75,16.38,21.75,16.36Z"/><path class="cls-2" d="M27,12.83a0,0,0,0,1,0-.07s.05,0,.07,0a.06.06,0,0,1,0,.07A0,0,0,0,1,27,12.83Z"/><path class="cls-2" d="M28.29,9.81a.06.06,0,0,0-.05.06.07.07,0,0,0,.06,0,.05.05,0,0,0,.05-.05A.06.06,0,0,0,28.29,9.81Z"/><path class="cls-2" d="M27,3.58a0,0,0,0,0,0,.07s.05,0,.07,0a.08.08,0,0,0,0-.08A0,0,0,0,0,27,3.58Z"/><path class="cls-2" d="M21.75.05a.05.05,0,0,0,.1,0,.06.06,0,0,0-.06,0S21.75,0,21.75.05Z"/><path class="cls-2" d="M15.51,1.3s.06,0,.07,0a0,0,0,0,0-.07-.07S15.49,1.29,15.51,1.3Z"/><path class="cls-2" d="M12,6.6s0,0,0-.06a0,0,0,0,0,0,0,0,0,0,0,0-.05,0A.06.06,0,0,0,12,6.6Z"/><path class="cls-2" d="M13.24,12.83a.05.05,0,1,0-.07,0A0,0,0,0,0,13.24,12.83Z"/><path class="cls-2" d="M18.53,16.36a.05.05,0,0,0-.1,0,0,0,0,0,0,.05.05A.05.05,0,0,0,18.53,16.36Z"/><path class="cls-2" d="M24.77,15.11s-.06,0-.07,0a0,0,0,0,0,.07.07S24.79,15.12,24.77,15.11Z"/><path class="cls-2" d="M27.23,5.27h0s0,0,0,0,0,0,0,0,0,0,0,0,0,0,0,0h0a0,0,0,0,0,0,0Z"/><path class="cls-2" d="M27.23,11.14h0a0,0,0,0,0,0,0s0,0,0,0,0,0,0,0l0,0s0,0,0,0,0,0,0,0Z"/><path class="cls-2" d="M23.08,15.3h0s0,0,0,0l0,0s0,0,0,0h0s0,0,0,0h0Z"/><path class="cls-2" d="M17.2,15.3h0s0,0,0,0h0a0,0,0,0,0,0,0,0,0,0,0,0,0,0s0,0,0,0Z"/><path class="cls-2" d="M13,11.14h0s0,0,0,0,0,0,0,0,0,0,0,0,0,0,0,0,0,0,0,0a0,0,0,0,0,0,0Z"/><path class="cls-2" d="M13,5.27h0a0,0,0,0,0,0,0h0s0,0,0,0,0,0,0,0a0,0,0,0,0,0,0s0,0,0,0Z"/><path class="cls-2" d="M17.2,1.11h0s0,0,0,0,0,0,0,0a0,0,0,0,0,0,0s0,0,0,0a0,0,0,0,0,0,0h0Z"/><path class="cls-2" d="M23.08,1.11h0a0,0,0,0,0,0,0s0,0,0,0,0,0,0,0,0,0,0,0,0,0,0,0Z"/><path class="cls-2" d="M27.38,5.32s0,0,0,0a0,0,0,0,0,0,0s0,0,0,0A.05.05,0,0,0,27.38,5.32Z"/><path class="cls-2" d="M23.22,1s0,0,0,0,0,0,0,0,0,0,0,0A0,0,0,0,0,23.22,1Z"/><path class="cls-2" d="M17.25,1s0,0,0,0a.05.05,0,0,0,0,0s0,0,0,0A0,0,0,0,0,17.25,1Z"/><path class="cls-2" d="M13,5.12s0,0,0,0,0,0,0,0a0,0,0,0,0,0,0S13,5.13,13,5.12Z"/><path class="cls-2" d="M12.89,11.09a0,0,0,0,0,0,0,0,0,0,0,0,0,0s0,0,0,0S12.89,11.11,12.89,11.09Z"/><path class="cls-2" d="M17.06,15.37s0,0,0,0a0,0,0,0,0,0,0s0,0,0,0S17.06,15.38,17.06,15.37Z"/><path class="cls-2" d="M23,15.45s0,0,0,0,0,0,0,0,0,0,0,0S23,15.46,23,15.45Z"/><path class="cls-2" d="M27.3,11.29a0,0,0,0,0,0,0s0,0,0,0a.06.06,0,0,0,0,0S27.32,11.28,27.3,11.29Z"/><path class="cls-2" d="M27.38,11.09s0,0,0,0a0,0,0,0,1,0,0s0,0,0,0S27.39,11.11,27.38,11.09Z"/><path class="cls-2" d="M27.3,5.12a0,0,0,0,1,0,0s0,0,0,0,0,0,0,0S27.32,5.13,27.3,5.12Z"/><path class="cls-2" d="M23,1s0,0,0,0,0,0,0,0,0,0,0,0A0,0,0,0,1,23,1Z"/><path class="cls-2" d="M17.06,1s0,0,0,0a0,0,0,0,1,0,0s0,0,0,0S17.06,1,17.06,1Z"/><path class="cls-2" d="M12.89,5.32a0,0,0,0,1,0,0,0,0,0,0,1,0,0s0,0,0,0S12.89,5.31,12.89,5.32Z"/><path class="cls-2" d="M13,11.29s0,0,0,0,0,0,0,0,0,0,0,0S13,11.28,13,11.29Z"/><path class="cls-2" d="M17.25,15.45s0,0,0,0l0,0s0,0,0,0S17.24,15.46,17.25,15.45Z"/><path class="cls-2" d="M23.22,15.37s0,0,0,0,0,0,0,0,0,0,0,0A0,0,0,0,1,23.22,15.37Z"/><path class="cls-2" d="M27.53,5.38s0,0,0,0,0,0,0,0a0,0,0,0,0,0,0A0,0,0,0,0,27.53,5.38Z"/><path class="cls-2" d="M23.37,1s0,0,0,0,0,0,0,0,0,0,0,0S23.36,1,23.37,1Z"/><path class="cls-2" d="M17.31.81s0,0,0,0,0,0,0,0,0,0,0,0A0,0,0,0,0,17.31.81Z"/><path class="cls-2" d="M12.91,5s0,0,0,0,0,0,0,0,0,0,0,0Z"/><path class="cls-2" d="M12.75,11a0,0,0,0,0,0,0s0,0,0,0a0,0,0,0,0,0,0A0,0,0,0,0,12.75,11Z"/><path class="cls-2" d="M16.91,15.43l0,0s0,0,0,0,0,0,0,0S16.92,15.45,16.91,15.43Z"/><path class="cls-2" d="M23,15.6s0,0,0,0,0,0,0,0,0,0,0,0S23,15.6,23,15.6Z"/><path class="cls-2" d="M27.37,11.43s0,0,0,0,0,0,0,0,0,0,0,0Z"/><path class="cls-2" d="M27.53,11s0,0,0,0,0,0,0,0,0,0,0,0A0,0,0,0,1,27.53,11Z"/><path class="cls-2" d="M27.37,5s0,0,0,0,0,0,0,0,0,0,0,0Z"/><path class="cls-2" d="M23,.81s0,0,0,0,0,0,0,0,0,0,0,0A0,0,0,0,1,23,.81Z"/><path class="cls-2" d="M16.91,1s0,0,0,0,0,0,0,0,0,0,0,0S16.92,1,16.91,1Z"/><path class="cls-2" d="M12.75,5.38a0,0,0,0,1,0,0s0,0,0,0,0,0,0,0A0,0,0,0,1,12.75,5.38Z"/><path class="cls-2" d="M12.91,11.43s0,0,0,0,0,0,0,0,0,0,0,0Z"/><path class="cls-2" d="M17.31,15.6s0,0,0,0,0,0,0,0,0,0,0,0S17.3,15.6,17.31,15.6Z"/><path class="cls-2" d="M23.37,15.43l0,0s0,0,0,0,0,0,0,0S23.36,15.45,23.37,15.43Z"/><path class="cls-2" d="M27.67,5.45a0,0,0,0,0,0,0h0a0,0,0,0,0,0,0A0,0,0,0,0,27.67,5.45Z"/><path class="cls-2" d="M23.52.93s0,0,0,0a.05.05,0,0,0,0,0s0,0,0,0S23.52.92,23.52.93Z"/><path class="cls-2" d="M17.39.67a0,0,0,0,0,0,0s0,0,0,0a0,0,0,0,0,0,0S17.37.66,17.39.67Z"/><path class="cls-2" d="M12.87,4.83a.08.08,0,0,0,0,0s0,0,0,0,0,0,0,0S12.85,4.83,12.87,4.83Z"/><path class="cls-2" d="M12.61,11s0,0,0,0h0a0,0,0,1,0,.06,0Z"/><path class="cls-2" d="M16.76,15.48s0,0,0,0,0,0,0,0,0,0,0,0Z"/><path class="cls-2" d="M22.89,15.74a0,0,0,0,0,0,0,0,0,0,0,0,0,0,0,0,0,0,0,0,0A0,0,0,0,0,22.86,15.79Z"/><path class="cls-2" d="M27.41,11.59s0,0,0,0,0,0,0,0a.05.05,0,0,0,0,0S27.43,11.58,27.41,11.59Z"/><path class="cls-2" d="M27.67,11s0,0,0,0h0a0,0,0,0,1,0,.05A0,0,0,0,1,27.67,11Z"/><path class="cls-2" d="M27.41,4.83s0,0,0,0,0,0,0,0a.05.05,0,0,1,0,0S27.43,4.83,27.41,4.83Z"/><path class="cls-2" d="M22.89.67a0,0,0,0,1,0,0,0,0,0,0,1,0,0,0,0,0,0,1,0,0S22.91.66,22.89.67Z"/><path class="cls-2" d="M16.76.93s0,0,0,0,0,0,0,0,0,0,0,0S16.76.92,16.76.93Z"/><path class="cls-2" d="M12.61,5.45a0,0,0,0,1,0,0h0a0,0,0,0,1,.06,0Z"/><path class="cls-2" d="M12.87,11.59s0,0,0,0,0,0,0,0,0,0,0,0S12.85,11.58,12.87,11.59Z"/><path class="cls-2" d="M17.39,15.74a0,0,0,0,1,0,0s0,0,0,0a0,0,0,0,1,0,0A0,0,0,0,1,17.42,15.79Z"/><path class="cls-2" d="M23.52,15.48s0,0,0,0a.08.08,0,0,1,0,0s0,0,0,0Z"/><path class="cls-2" d="M27.8,5.54a0,0,0,0,0,0,0s0,0,.05,0a0,0,0,0,0,0,0Z"/><path class="cls-2" d="M23.68.9a0,0,0,1,0,.06,0s0,0,0,0S23.67.88,23.68.9Z"/><path class="cls-2" d="M17.48.54a0,0,0,0,0,0,0,0,0,0,0,0,0-.05,0,0,0,0,0-.05,0S17.46.53,17.48.54Z"/><path class="cls-2" d="M12.84,4.67s0,0,0,0,0,0,0,0,0,0,0,0S12.82,4.67,12.84,4.67Z"/><path class="cls-2" d="M12.47,10.87a0,0,0,0,0,0,0s0,0-.05,0a0,0,0,0,0,0,0S12.46,10.88,12.47,10.87Z"/><path class="cls-2" d="M16.6,15.51a0,0,0,0,0,0,0s0,0,0,0a0,0,0,0,0,0,0S16.61,15.53,16.6,15.51Z"/><path class="cls-2" d="M22.8,15.87a0,0,0,0,0,0,0s0,0,0,0h0S22.82,15.88,22.8,15.87Z"/><path class="cls-2" d="M27.44,11.74s0,0,0,0,0,0,0,0,0,0,0,0S27.46,11.74,27.44,11.74Z"/><path class="cls-2" d="M27.8,10.87a0,0,0,0,1,0,0s0,0,.05,0a0,0,0,0,1,0,0S27.82,10.88,27.8,10.87Z"/><path class="cls-2" d="M27.44,4.67s0,0,0,0,0,0,0,0,0,0,0,0S27.46,4.67,27.44,4.67Z"/><path class="cls-2" d="M22.8.54a0,0,0,0,1,0,0,0,0,0,0,1,0-.05,0,0,0,0,1,0,0S22.82.53,22.8.54Z"/><path class="cls-2" d="M16.6.9a0,0,0,0,1,0,0s0,0,0,0,0,0,0,0S16.61.88,16.6.9Z"/><path class="cls-2" d="M12.47,5.54a0,0,0,0,1,0,0s0,0-.05,0a0,0,0,0,1,0,0Z"/><path class="cls-2" d="M12.84,11.74s0,0,0,0,0,0,0,0,0,0,0,0S12.82,11.74,12.84,11.74Z"/><path class="cls-2" d="M17.48,15.87a0,0,0,0,1,0,0,0,0,0,0,1,0,0h-.05S17.46,15.88,17.48,15.87Z"/><path class="cls-2" d="M23.68,15.51a0,0,0,0,1,0,0s0,0,0,0l0,0S23.67,15.53,23.68,15.51Z"/><path class="cls-2" d="M27.93,5.65s0,0,0,0H28a.06.06,0,0,0,0-.06S27.94,5.63,27.93,5.65Z"/><path class="cls-2" d="M23.83.89s0,0,0,0,0,0,0,0a0,0,0,0,0-.08,0Z"/><path class="cls-2" d="M17.58.42a0,0,0,0,0,.05,0,0,0,0,0,0,0,0,0,0,0,0,0-.05,0A0,0,0,0,0,17.58.42Z"/><path class="cls-2" d="M12.82,4.51a0,0,0,0,0,0,0,0,0,0,0,0,0,0,0,0,0,0,0,0,0S12.8,4.51,12.82,4.51Z"/><path class="cls-2" d="M12.35,10.77s0,0,0,0,0,0,0,0a0,0,0,0,0,0,0Z"/><path class="cls-2" d="M16.44,15.52a0,0,0,0,0,0,0s0,0,0,0a0,0,0,0,0,0,0S16.44,15.54,16.44,15.52Z"/><path class="cls-2" d="M22.7,16h-.05a0,0,0,0,0,0,0,0,0,0,0,0,.05,0A0,0,0,0,0,22.7,16Z"/><path class="cls-2" d="M27.46,11.9a0,0,0,0,0,0,0s0,0,0,0a0,0,0,0,0,0,0A0,0,0,0,0,27.46,11.9Z"/><path class="cls-2" d="M27.93,10.77s0,0,0,0,0,0,.05,0a0,0,0,0,1,0,0Z"/><path class="cls-2" d="M27.46,4.51a0,0,0,0,1,0,0,0,0,0,0,1,0,0,0,0,0,0,1,0,0S27.47,4.51,27.46,4.51Z"/><path class="cls-2" d="M22.7.42a0,0,0,0,1-.05,0,0,0,0,0,1,0,0,0,0,0,0,1,.05,0A0,0,0,0,1,22.7.42Z"/><path class="cls-2" d="M16.44.89s0,0,0,0,0,0,0,0a0,0,0,0,1,0,0S16.44.87,16.44.89Z"/><path class="cls-2" d="M12.35,5.65s0,0,0,0h0a.06.06,0,0,1,0-.06S12.34,5.63,12.35,5.65Z"/><path class="cls-2" d="M12.82,11.9a0,0,0,0,1,0,0s0,0,0,0a0,0,0,0,1,0,0S12.8,11.9,12.82,11.9Z"/><path class="cls-2" d="M17.58,16h.05a0,0,0,0,1,0,0,0,0,0,0,1-.05,0S17.56,16,17.58,16Z"/><path class="cls-2" d="M23.83,15.52s0,0,0,0,0,0,0,0a0,0,0,1,1-.08,0Z"/><path class="cls-2" d="M28,5.76a0,0,0,0,0,0,0s0,0,0,0,0,0,0-.05S28.05,5.75,28,5.76Z"/><path class="cls-2" d="M24,.9s0,0,0,0,0,0,0,0,0-.05,0-.05S24,.87,24,.9Z"/><path class="cls-2" d="M17.7.31s0,0,.05,0a.06.06,0,0,0,0-.06s0,0-.06,0A0,0,0,0,0,17.7.31Z"/><path class="cls-2" d="M12.83,4.35s0,0,0,0,0,0,0,0,0,0,0,0S12.81,4.35,12.83,4.35Z"/><path class="cls-2" d="M12.25,10.65a0,0,0,0,0,0-.05s0,0-.05,0a0,0,0,0,0,0,.05S12.23,10.66,12.25,10.65Z"/><path class="cls-2" d="M16.29,15.52s0,0,0,0a0,0,0,0,0,0,0s0,0,0,0A.05.05,0,0,0,16.29,15.52Z"/><path class="cls-2" d="M22.58,16.1s0,0,0,0a0,0,0,0,0,0,.06s0,0,.06,0A0,0,0,0,0,22.58,16.1Z"/><path class="cls-2" d="M27.45,12.06s0,0,0,0,0,0,0,.05a0,0,0,0,0,0,0S27.47,12.06,27.45,12.06Z"/><path class="cls-2" d="M28,10.65a0,0,0,0,1,0-.05s0,0,0,0a0,0,0,0,1,0,.05S28.05,10.66,28,10.65Z"/><path class="cls-2" d="M27.45,4.35s0,0,0,0,0,0,0,0,0,0,0,0S27.47,4.35,27.45,4.35Z"/><path class="cls-2" d="M22.58.31s0,0,0,0,0,0,0-.06,0,0,.06,0S22.6.3,22.58.31Z"/><path class="cls-2" d="M16.29.9s0,0,0,0,0,0,0,0,0-.05,0-.05A.05.05,0,0,1,16.29.9Z"/><path class="cls-2" d="M12.25,5.76a0,0,0,0,1,0,0s0,0-.05,0,0,0,0-.05S12.23,5.75,12.25,5.76Z"/><path class="cls-2" d="M12.83,12.06s0,0,0,0a.05.05,0,0,1,0,.05,0,0,0,0,1,0,0S12.81,12.06,12.83,12.06Z"/><path class="cls-2" d="M17.7,16.1s0,0,.05,0a.07.07,0,0,1,0,.06s0,0-.06,0S17.68,16.12,17.7,16.1Z"/><path class="cls-2" d="M24,15.52s0,0,0,0a0,0,0,0,1,0,0s0,0,0,0A0,0,0,0,1,24,15.52Z"/><path class="cls-2" d="M28.13,5.89a0,0,0,0,0,0,.06.06.06,0,0,0,.06,0s0,0,0,0S28.15,5.88,28.13,5.89Z"/><path class="cls-2" d="M24.15.92a.05.05,0,0,0,0,0s0,0,.05,0,0,0,0,0S24.16.9,24.15.92Z"/><path class="cls-2" d="M17.82.22a0,0,0,0,0,.06,0s0,0,0-.05a0,0,0,0,0-.05,0A0,0,0,0,0,17.82.22Z"/><path class="cls-2" d="M12.85,4.19s.05,0,.05,0,0,0,0,0-.05,0-.05,0S12.83,4.19,12.85,4.19Z"/><path class="cls-2" d="M12.15,10.52s0,0,0,0a0,0,0,0,0-.06,0,0,0,0,0,0,0,.06S12.13,10.53,12.15,10.52Z"/><path class="cls-2" d="M16.13,15.49a0,0,0,1,0-.08,0s0,0,0,0S16.12,15.51,16.13,15.49Z"/><path class="cls-2" d="M22.45,16.19s0,0-.05,0a0,0,0,0,0,0,.05,0,0,0,0,0,.06,0A0,0,0,0,0,22.45,16.19Z"/><path class="cls-2" d="M27.42,12.22s0,0,0,0a0,0,0,0,0,0,.05s.05,0,.05,0S27.45,12.22,27.42,12.22Z"/><path class="cls-2" d="M28.13,10.52s0,0,0,0a0,0,0,0,1,.06,0s0,0,0,.06S28.15,10.53,28.13,10.52Z"/><path class="cls-2" d="M27.42,4.19s0,0,0,0,0,0,0,0,.05,0,.05,0S27.45,4.19,27.42,4.19Z"/><path class="cls-2" d="M22.45.22s0,0-.05,0a0,0,0,0,1,0-.05,0,0,0,0,1,.06,0A0,0,0,0,1,22.45.22Z"/><path class="cls-2" d="M16.13.92a.05.05,0,0,1,0,0s0,0-.05,0,0,0,0,0S16.12.9,16.13.92Z"/><path class="cls-2" d="M12.15,5.89a0,0,0,0,1,0,.06.06.06,0,0,1-.06,0s0,0,0,0S12.13,5.88,12.15,5.89Z"/><path class="cls-2" d="M12.85,12.22a0,0,0,0,1,.05,0,0,0,0,0,1,0,.05s-.05,0-.05,0S12.83,12.22,12.85,12.22Z"/><path class="cls-2" d="M17.82,16.19a0,0,0,0,1,.06,0s0,0,0,.05a0,0,0,0,1-.05,0A0,0,0,0,1,17.82,16.19Z"/><path class="cls-2" d="M24.15,15.49a0,0,0,1,1,.08,0s0,0,0,0S24.16,15.51,24.15,15.49Z"/><path class="cls-2" d="M28.2,6a0,0,0,0,0,0,.06,0,0,0,0,0,.05,0,0,0,0,0,0,0-.06A0,0,0,0,0,28.2,6Z"/><path class="cls-2" d="M24.3,1s0,0,0,.05a0,0,0,0,0,.05,0,0,0,0,0,0,0-.06A0,0,0,0,0,24.3,1Z"/><path class="cls-2" d="M18,.14s0,0,.06,0a0,0,0,0,0,0-.06s0,0-.05,0S18,.12,18,.14Z"/><path class="cls-2" d="M12.9,4A0,0,0,0,0,13,4a0,0,0,0,0,0-.06s0,0,0,0A0,0,0,0,0,12.9,4Z"/><path class="cls-2" d="M12.08,10.38a0,0,0,0,0,0-.06,0,0,0,0,0,0,0,0,0,0,0,0,0,.06A0,0,0,0,0,12.08,10.38Z"/><path class="cls-2" d="M16,15.44a.05.05,0,0,0,0,0,0,0,0,0,0,0,0,0,0,0,0,0,0,.06A0,0,0,0,0,16,15.44Z"/><path class="cls-2" d="M22.31,16.27a.05.05,0,0,0,0,0,.07.07,0,0,0,0,.06,0,0,0,0,0,.06,0S22.32,16.29,22.31,16.27Z"/><path class="cls-2" d="M27.38,12.37a0,0,0,0,0,0,.08,0,0,0,0,0,0-.08Z"/><path class="cls-2" d="M28.2,10.38a0,0,0,0,1,0-.06,0,0,0,0,1,.05,0,0,0,0,0,1,0,.06A0,0,0,0,1,28.2,10.38Z"/><path class="cls-2" d="M27.38,4a0,0,0,1,1,0-.08,0,0,0,0,1,.06,0A0,0,0,0,1,27.38,4Z"/><path class="cls-2" d="M22.31.14s0,0,0,0a.07.07,0,0,1,0-.06,0,0,0,0,1,.06,0A0,0,0,0,1,22.31.14Z"/><path class="cls-2" d="M16,1A.05.05,0,0,1,16,1a0,0,0,0,1,0,0,0,0,0,0,1,0-.06A0,0,0,0,1,16,1Z"/><path class="cls-2" d="M12.08,6a0,0,0,0,1,0,.06,0,0,0,0,1,0,0,0,0,0,0,1,0-.06A0,0,0,0,1,12.08,6Z"/><path class="cls-2" d="M12.9,12.37a0,0,0,0,1,.06,0,0,0,0,0,1,0,.06,0,0,0,0,1,0,0A0,0,0,0,1,12.9,12.37Z"/><path class="cls-2" d="M18,16.27a.07.07,0,0,1,.06,0,0,0,0,0,1,0,.06s0,0-.05,0A0,0,0,0,1,18,16.27Z"/><path class="cls-2" d="M24.3,15.44s0,0,0,0a0,0,0,0,1,.05,0,0,0,0,0,1,0,.06A0,0,0,0,1,24.3,15.44Z"/><path class="cls-2" d="M28.26,6.18a.05.05,0,0,0,0,.06.06.06,0,0,0,.06,0,0,0,0,0,0,0-.06S28.28,6.17,28.26,6.18Z"/><path class="cls-2" d="M24.45,1a0,0,0,1,0,.07.05,0,0,0,0,0,0-.06S24.46,1,24.45,1Z"/><path class="cls-2" d="M18.11.09s0,0,.06,0a0,0,0,0,0,0,0s0,0-.05,0A.06.06,0,0,0,18.11.09Z"/><path class="cls-2" d="M13,3.9a0,0,0,0,0,.06,0,0,0,0,0,0,0-.06.05.05,0,0,0-.07,0A0,0,0,0,0,13,3.9Z"/><path class="cls-2" d="M12,10.23a.05.05,0,0,0,0-.05.05.05,0,0,0-.06,0,0,0,0,0,0,0,.06A0,0,0,0,0,12,10.23Z"/><path class="cls-2" d="M15.83,15.38a.06.06,0,0,0,0-.07,0,0,0,0,0-.06,0,0,0,0,0,0,.07.05Z"/><path class="cls-2" d="M22.16,16.32a0,0,0,1,0-.08,0s0,0,.05,0A0,0,0,0,0,22.16,16.32Z"/><path class="cls-2" d="M27.31,12.51a0,0,0,0,0-.06,0s0,.05,0,.06a.06.06,0,0,0,.07,0A.06.06,0,0,0,27.31,12.51Z"/><path class="cls-2" d="M28.26,10.23a.05.05,0,0,1,0-.05.05.05,0,0,1,.06,0,0,0,0,0,1,0,.06S28.28,10.24,28.26,10.23Z"/><path class="cls-2" d="M27.31,3.9a0,0,0,0,1-.06,0,0,0,0,0,1,0-.06.05.05,0,0,1,.07,0A0,0,0,0,1,27.31,3.9Z"/><path class="cls-2" d="M22.16.09a0,0,0,0,1-.05,0,0,0,0,0,1,0,0s0,0,.05,0A0,0,0,0,1,22.16.09Z"/><path class="cls-2" d="M15.83,1a.06.06,0,0,1,0,.07,0,0,0,0,1-.06,0,0,0,0,0,1,0-.06S15.82,1,15.83,1Z"/><path class="cls-2" d="M12,6.18a.05.05,0,0,1,0,.06.06.06,0,0,1-.06,0,0,0,0,0,1,0-.06A0,0,0,0,1,12,6.18Z"/><path class="cls-2" d="M13,12.51a0,0,0,0,1,.06,0s0,.05,0,.06a.06.06,0,0,1-.07,0A.06.06,0,0,1,13,12.51Z"/><path class="cls-2" d="M18.11,16.32s0,0,.06,0a0,0,0,0,1,0,.05s0,0-.05,0A.05.05,0,0,1,18.11,16.32Z"/><path class="cls-2" d="M24.45,15.38a0,0,0,1,1,.07-.05,0,0,0,1,1-.07.05Z"/><path class="cls-2" d="M28.29,6.34a0,0,0,0,0-.05,0,.07.07,0,0,0,.06,0,0,0,0,0,0,0,0S28.31,6.33,28.29,6.34Z"/><path class="cls-2" d="M24.58,1.12a0,0,0,0,0,0,.07,0,0,0,0,0,.06,0,0,0,0,0,0,0-.06S24.59,1.1,24.58,1.12Z"/><path class="cls-2" d="M18.27.06s0,0,.05,0a0,0,0,0,0,.05,0s0,0-.06,0A0,0,0,0,0,18.27.06Z"/><path class="cls-2" d="M13.06,3.77s0,0,.06,0a0,0,0,0,0,0-.07.06.06,0,0,0-.07,0A0,0,0,0,0,13.06,3.77Z"/><path class="cls-2" d="M12,10.07s0,0,0-.05a0,0,0,0,0-.09,0S12,10.08,12,10.07Z"/><path class="cls-2" d="M15.7,15.29a0,0,0,0,0,0-.07s0,0-.06,0a0,0,0,0,0,0,.07A.06.06,0,0,0,15.7,15.29Z"/><path class="cls-2" d="M22,16.35a.07.07,0,0,0-.05,0,0,0,0,0,0-.05.05.06.06,0,0,0,.06.05A.07.07,0,0,0,22,16.35Z"/><path class="cls-2" d="M27.22,12.65s0,0-.06,0a0,0,0,0,0,0,.07,0,0,0,0,0,.07,0A0,0,0,0,0,27.22,12.65Z"/><path class="cls-2" d="M28.29,10.07a0,0,0,0,1-.05-.05.07.07,0,0,1,.06,0,0,0,0,0,1,0,0S28.31,10.08,28.29,10.07Z"/><path class="cls-2" d="M27.22,3.77s0,0-.06,0a0,0,0,0,1,0-.07.06.06,0,0,1,.07,0A0,0,0,0,1,27.22,3.77Z"/><path class="cls-2" d="M22,.06A.07.07,0,0,1,22,.1a0,0,0,0,1-.05,0A0,0,0,0,1,22,0,0,0,0,0,1,22,.06Z"/><path class="cls-2" d="M15.7,1.12a0,0,0,0,1,0,.07s0,0-.06,0a0,0,0,0,1,0-.06A0,0,0,0,1,15.7,1.12Z"/><path class="cls-2" d="M12,6.34s0,0,0,0a0,0,0,0,1-.09,0S12,6.33,12,6.34Z"/><path class="cls-2" d="M13.06,12.65s0,0,.06,0a0,0,0,0,1,0,.07,0,0,0,0,1-.07,0A0,0,0,0,1,13.06,12.65Z"/><path class="cls-2" d="M18.27,16.35s0,0,.05,0a0,0,0,0,1,.05.05.06.06,0,0,1-.06.05A.07.07,0,0,1,18.27,16.35Z"/><path class="cls-2" d="M24.58,15.29a0,0,0,0,1,0-.07,0,0,0,0,1,.06,0,0,0,0,0,1,0,.07S24.59,15.31,24.58,15.29Z"/><path class="cls-2" d="M27.13,7.5s0,0,0,0a0,0,0,0,0,0,0s0,0,0,0Z"/><path class="cls-2" d="M24.58,2.76a0,0,0,0,0,0,0h0s0,0,0,0Z"/><path class="cls-2" d="M19.43,1.21a0,0,0,0,0,0,0,0,0,0,0,0,0,0,0,0,0,0,0,0,0A0,0,0,0,0,19.47,1.21Z"/><path class="cls-2" d="M14.69,3.76s0,0,0,0,0,0,0,0,0,0,0,0S14.69,3.76,14.69,3.76Z"/><path class="cls-2" d="M13.15,8.91s0,0,0,0,0,0,0,0l0,0S13.14,8.92,13.15,8.91Z"/><path class="cls-2" d="M15.7,13.65a0,0,0,0,0,0,0h0a0,0,0,0,0,0,0Z"/><path class="cls-2" d="M20.85,15.2l0,0a0,0,0,0,0,0,0h0A0,0,0,0,0,20.85,15.2Z"/><path class="cls-2" d="M25.58,12.65h0s0,0,0,0h0S25.59,12.66,25.58,12.65Z"/><path class="cls-2" d="M27.13,8.91s0,0,0,0,0,0,0,0,0,0,0,0S27.14,8.92,27.13,8.91Z"/><path class="cls-2" d="M25.58,3.76s0,0,0,0a0,0,0,0,1,0,0s0,0,0,0S25.59,3.76,25.58,3.76Z"/><path class="cls-2" d="M20.85,1.21l0,0s0,0,0,0a0,0,0,0,1,0,0A0,0,0,0,1,20.81,1.21Z"/><path class="cls-2" d="M15.7,2.76a0,0,0,0,1,0,0h0s0,0,0,0Z"/><path class="cls-2" d="M13.15,7.5s0,0,0,0a0,0,0,0,1,0,0l0,0Z"/><path class="cls-2" d="M14.69,12.65a0,0,0,0,1,0,0s0,0,0,0h0S14.69,12.66,14.69,12.65Z"/><path class="cls-2" d="M19.43,15.2l0,0s0,0,0,0h0A0,0,0,0,1,19.43,15.2Z"/><path class="cls-2" d="M24.58,13.65a0,0,0,0,1,0,0h0a0,0,0,0,1,0,0Z"/><path class="cls-2" d="M27.15,7.62l0,0a0,0,0,0,0,0,0s0,0,0,0Z"/><path class="cls-2" d="M24.68,2.84v0h0s0,0,0,0Z"/><path class="cls-2" d="M19.56,1.2a0,0,0,0,0,0,0,0,0,0,0,0,0,0s0,0,0,0S19.56,1.18,19.56,1.2Z"/><path class="cls-2" d="M14.77,3.66h0a0,0,0,0,0,0,0h0A0,0,0,0,0,14.77,3.66Z"/><path class="cls-2" d="M13.13,8.79l0,0,0,0a0,0,0,0,0,0,0A0,0,0,0,0,13.13,8.75Z"/><path class="cls-2" d="M15.59,13.57s0,0,0,0,0,0,0,0,0,0,0,0Z"/><path class="cls-2" d="M20.72,15.22s0,0,0,0,0,0,0,0l0,0A0,0,0,0,0,20.72,15.22Z"/><path class="cls-2" d="M25.51,12.75h0a0,0,0,0,0,0,0h0A0,0,0,0,0,25.51,12.75Z"/><path class="cls-2" d="M27.15,8.79l0,0,0,0,0,0Z"/><path class="cls-2" d="M25.51,3.66h0a0,0,0,0,1,0,0h0A0,0,0,0,1,25.51,3.66Z"/><path class="cls-2" d="M20.72,1.2a0,0,0,0,1,0,0,0,0,0,0,1,0,0s0,0,0,0S20.72,1.18,20.72,1.2Z"/><path class="cls-2" d="M15.59,2.84a0,0,0,0,1,0,0h0s0,0,0,0Z"/><path class="cls-2" d="M13.13,7.62l0,0a0,0,0,0,1,0,0s0,0,0,0A0,0,0,0,1,13.13,7.62Z"/><path class="cls-2" d="M14.77,12.75h0a0,0,0,0,1,0,0h0A0,0,0,0,1,14.77,12.75Z"/><path class="cls-2" d="M19.56,15.22s0,0,0,0,0,0,0,0l0,0Z"/><path class="cls-2" d="M24.68,13.57v0s0,0,0,0,0,0,0,0Z"/><path class="cls-2" d="M27.14,7.75s0,0,0,0,0,0,0,0,0,0,0,0Z"/><path class="cls-2" d="M24.77,2.93s0,0,0,0h0s0,0,0,0S24.78,2.92,24.77,2.93Z"/><path class="cls-2" d="M19.68,1.2s0,0,0,0l0,0s0,0,0,0S19.68,1.19,19.68,1.2Z"/><path class="cls-2" d="M14.86,3.58h0s0,0,0,0h0S14.86,3.57,14.86,3.58Z"/><path class="cls-2" d="M13.14,8.66s0,0,0,0,0,0,0,0,0,0,0,0S13.12,8.66,13.14,8.66Z"/><path class="cls-2" d="M15.51,13.48a0,0,0,0,0,0,0h0s0,0,0,0Z"/><path class="cls-2" d="M20.6,15.21s0,0,0,0l0,0s0,0,0,0Z"/><path class="cls-2" d="M25.41,12.83h0a0,0,0,0,0,0,0h0A0,0,0,0,0,25.41,12.83Z"/><path class="cls-2" d="M27.14,8.66s0,0,0,0,0,0,0,0,0,0,0,0Z"/><path class="cls-2" d="M25.41,3.58h0s0,0,0,0h0S25.42,3.57,25.41,3.58Z"/><path class="cls-2" d="M20.6,1.2s0,0,0,0,0,0,0,0,0,0,0,0S20.6,1.19,20.6,1.2Z"/><path class="cls-2" d="M15.51,2.93a0,0,0,0,1,0,0h0s0,0,0,0S15.5,2.92,15.51,2.93Z"/><path class="cls-2" d="M13.14,7.75s0,0,0,0,0,0,0,0,0,0,0,0S13.12,7.75,13.14,7.75Z"/><path class="cls-2" d="M14.86,12.83h0a0,0,0,0,1,0,0h0A.06.06,0,0,1,14.86,12.83Z"/><path class="cls-2" d="M19.68,15.21s0,0,0,0l0,0s0,0,0,0Z"/><path class="cls-2" d="M24.77,13.48s0,0,0,0h0s0,0,0,0Z"/><path class="cls-2" d="M27.11,7.87s0,0,0,0,0,0,0,0,0,0,0,0S27.13,7.87,27.11,7.87Z"/><path class="cls-2" d="M24.83,3s0,0,0,0,0,0,0,0,0,0,0,0S24.84,3,24.83,3Z"/><path class="cls-2" d="M19.8,1.23s0,0,0,0a0,0,0,0,0,0,0,0,0,0,0,0,0,0S19.81,1.22,19.8,1.23Z"/><path class="cls-2" d="M15,3.51s0,0,0,0,0,0,0,0,0,0,0,0A0,0,0,0,0,15,3.51Z"/><path class="cls-2" d="M13.17,8.54s0,0,0,0,0,0,0,0l0,0S13.15,8.54,13.17,8.54Z"/><path class="cls-2" d="M15.45,13.37s0,0,0,0,0,0,0,0,0,0,0,0S15.43,13.38,15.45,13.37Z"/><path class="cls-2" d="M20.47,15.18a0,0,0,0,0,0,0,0,0,0,0,0,0,0,0,0,0,0,0,0,0S20.47,15.19,20.47,15.18Z"/><path class="cls-2" d="M25.31,12.9s0,0,0,0,0,0,0,0,0,0,0,0S25.31,12.91,25.31,12.9Z"/><path class="cls-2" d="M27.11,8.54s0,0,0,0,0,0,0,0l0,0S27.13,8.54,27.11,8.54Z"/><path class="cls-2" d="M25.31,3.51s0,0,0,0,0,0,0,0,0,0,0,0A0,0,0,0,1,25.31,3.51Z"/><path class="cls-2" d="M20.47,1.23s0,0,0,0a0,0,0,0,1,0,0,0,0,0,0,1,0,0S20.47,1.22,20.47,1.23Z"/><path class="cls-2" d="M15.45,3s0,0,0,0,0,0,0,0,0,0,0,0S15.43,3,15.45,3Z"/><path class="cls-2" d="M13.17,7.87s0,0,0,0,0,0,0,0,0,0,0,0S13.15,7.87,13.17,7.87Z"/><path class="cls-2" d="M15,12.9s0,0,0,0,0,0,0,0,0,0,0,0S15,12.91,15,12.9Z"/><path class="cls-2" d="M19.8,15.18s0,0,0,0a0,0,0,0,1,0,0,0,0,0,0,1,0,0S19.81,15.19,19.8,15.18Z"/><path class="cls-2" d="M24.83,13.37s0,0,0,0,0,0,0,0,0,0,0,0S24.84,13.38,24.83,13.37Z"/><path class="cls-2" d="M27.06,8s0,0,0,0a0,0,0,0,0,0,0,0,0,0,0,0,0,0S27.08,8,27.06,8Z"/><path class="cls-2" d="M24.88,3.15a.05.05,0,0,0,0,0s0,0,0,0,0,0,0,0Z"/><path class="cls-2" d="M19.92,1.28s0,0,0,0a0,0,0,0,0,0,0,0,0,0,0,0,0,0S19.93,1.27,19.92,1.28Z"/><path class="cls-2" d="M15.09,3.46s0,0,0,0,0,0,0,0,0,0,0,0A0,0,0,0,0,15.09,3.46Z"/><path class="cls-2" d="M13.21,8.42s0,0,0,0a0,0,0,0,0,0,0s0,0,0,0S13.2,8.42,13.21,8.42Z"/><path class="cls-2" d="M15.4,13.26s0,0,0,0,0,0,0,0,0,0,0,0Z"/><path class="cls-2" d="M20.36,15.13s0,0,0,0,0,0,0,0a0,0,0,0,0,0,0S20.35,15.14,20.36,15.13Z"/><path class="cls-2" d="M25.19,13s0,0,0,0,0,0,0,0,0,0,0,0S25.2,13,25.19,13Z"/><path class="cls-2" d="M27.06,8.42s0,0,0,0a0,0,0,0,1,0,0s0,0,0,0S27.08,8.42,27.06,8.42Z"/><path class="cls-2" d="M25.19,3.46s0,0,0,0,0,0,0,0,0,0,0,0S25.2,3.45,25.19,3.46Z"/><path class="cls-2" d="M20.36,1.28a.06.06,0,0,1,0,0s0,0,0,0,0,0,0,0S20.35,1.27,20.36,1.28Z"/><path class="cls-2" d="M15.4,3.15s0,0,0,0,0,0,0,0,0,0,0,0Z"/><path class="cls-2" d="M13.21,8s0,0,0,0a0,0,0,0,1,0,0,0,0,0,0,1,0,0S13.2,8,13.21,8Z"/><path class="cls-2" d="M15.09,13s0,0,0,0,0,0,0,0,0,0,0,0A0,0,0,0,1,15.09,13Z"/><path class="cls-2" d="M19.92,15.13a0,0,0,0,1,0,0,0,0,0,0,1,0,0s0,0,0,0S19.93,15.14,19.92,15.13Z"/><path class="cls-2" d="M24.88,13.26a.05.05,0,0,1,0,0s0,0,0,0,0,0,0,0Z"/><path class="cls-2" d="M27,8.1h0s0,0,0,0h0S27,8.1,27,8.1Z"/><path class="cls-2" d="M24.92,3.28a0,0,0,0,0,0,0l0,0s0,0,0,0S24.93,3.27,24.92,3.28Z"/><path class="cls-2" d="M20,1.34s0,0,0,0a0,0,0,0,0,0,0s0,0,0,0S20,1.33,20,1.34Z"/><path class="cls-2" d="M15.21,3.43s0,0,0,0,0,0,0,0,0,0,0,0S15.21,3.41,15.21,3.43Z"/><path class="cls-2" d="M13.28,8.31h0s0,0,0,0,0,0,0,0S13.26,8.31,13.28,8.31Z"/><path class="cls-2" d="M15.36,13.14s0,0,0,0l0,0s0,0,0,0A0,0,0,0,0,15.36,13.14Z"/><path class="cls-2" d="M20.25,15.07s0,0,0,0a0,0,0,0,0,0,0s0,0,0,0S20.24,15.08,20.25,15.07Z"/><path class="cls-2" d="M25.07,13l0,0a0,0,0,0,0,0,0s0,0,0,0A.05.05,0,0,0,25.07,13Z"/><path class="cls-2" d="M27,8.31h0s0,0,0,0a0,0,0,0,1,0,0S27,8.31,27,8.31Z"/><path class="cls-2" d="M25.07,3.43s0,0,0,0a0,0,0,0,1,0,0s0,0,0,0S25.07,3.41,25.07,3.43Z"/><path class="cls-2" d="M20.25,1.34s0,0,0,0a0,0,0,0,1,0,0s0,0,0,0S20.24,1.33,20.25,1.34Z"/><path class="cls-2" d="M15.36,3.28a0,0,0,0,1,0,0l0,0s0,0,0,0S15.35,3.27,15.36,3.28Z"/><path class="cls-2" d="M13.28,8.1h0s0,0,0,0h0S13.26,8.1,13.28,8.1Z"/><path class="cls-2" d="M15.21,13l0,0s0,0,0,0a0,0,0,0,1,0,0A.05.05,0,0,1,15.21,13Z"/><path class="cls-2" d="M20,15.07s0,0,0,0a0,0,0,0,1,0,0s0,0,0,0S20,15.08,20,15.07Z"/><path class="cls-2" d="M24.92,13.14s0,0,0,0l0,0s0,0,0,0A0,0,0,0,1,24.92,13.14Z"/><path class="cls-2" d="M26.94,8.21h0Z"/><path class="cls-2" d="M25,13h0s0,0,0,0h0a0,0,0,0,0,0,0Z"/><path class="cls-2" d="M20.14,15h0a0,0,0,0,0,0-.05h0s0,0,0,.05Z"/><path class="cls-2" d="M15.33,13h0a0,0,0,0,0,0,0h0a0,0,0,0,0,0,0Z"/><path class="cls-2" d="M13.34,8.21h0Z"/><path class="cls-2" d="M15.33,3.4h0s0,0,0,0h0a0,0,0,0,0,0,0Z"/><path class="cls-2" d="M20.14,1.41h0a0,0,0,0,0,0,0h0s0,0,0,0Z"/><path class="cls-2" d="M25,3.4h0a0,0,0,0,0,0,0h0s0,0,0,0Z"/><path class="cls-2" d="M25.76,8.21A.65.65,0,0,1,25.84,8a4.3,4.3,0,0,1,.46-.58,1.27,1.27,0,0,0,.2-.36.64.64,0,0,0,0-.2V6.77c0-.08-.06-.18-.08-.26l.1.08.05,0s0,0,.05,0l.05,0h.07a.41.41,0,0,0,.38-.07.46.46,0,0,0,.18-.28.44.44,0,0,0-.19-.45.5.5,0,0,0-.28-.1h-.1a.26.26,0,0,1,.1,0,.53.53,0,0,1,.31.07.48.48,0,0,1,.25.52.48.48,0,0,1-.2.35.53.53,0,0,1-.48.09h-.06l0,0h0v.1a1,1,0,0,1,0,.24,1.33,1.33,0,0,1-.23.38,7.26,7.26,0,0,0-.49.55.64.64,0,0,0-.08.14l.08.13c.12.18.31.34.49.56a1.1,1.1,0,0,1,.23.38.86.86,0,0,1,0,.23v.1h0l.06,0a.53.53,0,0,1,.48.09.48.48,0,0,1,.2.36.52.52,0,0,1-.06.33.55.55,0,0,1-.5.25.26.26,0,0,1-.1,0h.1a.5.5,0,0,0,.28-.1.44.44,0,0,0,.19-.45.46.46,0,0,0-.18-.28.45.45,0,0,0-.38-.07l0,0h0l-.05,0a.1.1,0,0,1-.05,0l-.05,0-.1.08c0-.07.06-.18.08-.26V9.51a.69.69,0,0,0,0-.2A1.1,1.1,0,0,0,26.3,9a5.06,5.06,0,0,1-.46-.59A.6.6,0,0,1,25.76,8.21Z"/><path class="cls-2" d="M24.11,12.18a.48.48,0,0,1,.18-.06A5,5,0,0,1,25,12a1.4,1.4,0,0,0,.4-.11.66.66,0,0,0,.17-.12l0,0,0,0,0,0c0-.07.08-.17.12-.24l0,.13v.07a.13.13,0,0,0,0,.06.07.07,0,0,0,0,0v0l0,0a.5.5,0,0,0,.32.22.46.46,0,0,0,.51-.53.56.56,0,0,0-.13-.27l-.08-.06a.26.26,0,0,1,.09.05.5.5,0,0,1,.18.27.49.49,0,0,1,0,.27.54.54,0,0,1-.19.27.53.53,0,0,1-.4.11.55.55,0,0,1-.4-.27l0-.06v0h0l0,0-.05,0a.72.72,0,0,1-.2.14,1.12,1.12,0,0,1-.43.1,7,7,0,0,0-.73.05l-.16,0s0,.1,0,.15c0,.21,0,.46,0,.74a1.36,1.36,0,0,1-.11.43.86.86,0,0,1-.13.2l-.05,0,0,0h0l0,0a.54.54,0,0,1,.28.4.58.58,0,0,1-.11.4.56.56,0,0,1-.28.19.6.6,0,0,1-.27,0,.6.6,0,0,1-.27-.17.44.44,0,0,1-.05-.09l.07.07a.52.52,0,0,0,.27.14.46.46,0,0,0,.45-.19.5.5,0,0,0,.08-.32.46.46,0,0,0-.23-.32l0,0h0l-.06,0h-.26l.24-.12.05,0,0,0,0,0a1,1,0,0,0,.11-.17.92.92,0,0,0,.11-.39,6.82,6.82,0,0,1,.09-.74Z"/><path class="cls-2" d="M20.14,13.82l.17.08a6.82,6.82,0,0,1,.58.46.94.94,0,0,0,.35.2.52.52,0,0,0,.21,0h.13l.26-.09-.08.1-.05.06,0,.05s0,0,0,0v0l0,.05a.49.49,0,0,0,.07.38.44.44,0,0,0,.28.17.46.46,0,0,0,.46-.18.56.56,0,0,0,.09-.29v-.09a.35.35,0,0,1,0,.09.52.52,0,0,1-.06.32.49.49,0,0,1-.19.19.51.51,0,0,1-.33.06.6.6,0,0,1-.36-.2.54.54,0,0,1-.09-.48s0,0,0-.06v0h-.1a.85.85,0,0,1-.23,0,1.43,1.43,0,0,1-.38-.23,5.43,5.43,0,0,0-.55-.49l-.14-.08L20,14a4.53,4.53,0,0,0-.55.49,1.43,1.43,0,0,1-.38.23.86.86,0,0,1-.24,0h-.09v0s0,0,0,.06a.58.58,0,0,1-.09.48.6.6,0,0,1-.36.2.51.51,0,0,1-.33-.06.49.49,0,0,1-.19-.19.52.52,0,0,1-.06-.32.35.35,0,0,1,0-.09.21.21,0,0,0,0,.09.48.48,0,0,0,.09.29.45.45,0,0,0,.45.18.44.44,0,0,0,.29-.17.45.45,0,0,0,.06-.38s0,0,0-.05v0l0,0,0-.05-.05-.06-.08-.1.26.09h.13a.45.45,0,0,0,.2,0,1,1,0,0,0,.36-.2A6.82,6.82,0,0,1,20,13.9Z"/><path class="cls-2" d="M16.17,12.18l.06.17a5.08,5.08,0,0,1,.08.74,1.34,1.34,0,0,0,.11.39l.12.17,0,0,0,0,0,0,.25.12h-.26l-.06,0h0l0,0a.46.46,0,0,0-.23.32.44.44,0,0,0,.08.32.45.45,0,0,0,.45.19.52.52,0,0,0,.27-.14l.07-.07a.34.34,0,0,1-.06.09.5.5,0,0,1-.27.17.55.55,0,0,1-.26,0,.56.56,0,0,1-.28-.19.58.58,0,0,1-.11-.4.54.54,0,0,1,.28-.4l.05,0h0l0,0,0,0a.63.63,0,0,1-.13-.2,1.14,1.14,0,0,1-.11-.43c0-.28,0-.53,0-.74,0,0,0-.1,0-.15l-.16,0a7.18,7.18,0,0,0-.73-.05,1.21,1.21,0,0,1-.44-.1.85.85,0,0,1-.19-.14l0,0,0,0h0v0l0,.06a.55.55,0,0,1-.4.27.53.53,0,0,1-.4-.11.48.48,0,0,1-.19-.27.49.49,0,0,1,0-.27.45.45,0,0,1,.18-.27l.08-.05-.07.06a.56.56,0,0,0-.13.27.46.46,0,0,0,.51.53.5.5,0,0,0,.32-.22.05.05,0,0,1,0,0v0a.43.43,0,0,0,0,0,.13.13,0,0,0,0-.06v-.07l0-.13.12.24,0,0,0,0,0,0a.66.66,0,0,0,.17.12,1.34,1.34,0,0,0,.39.11,5,5,0,0,1,.74.09A.48.48,0,0,1,16.17,12.18Z"/><path class="cls-2" d="M14.52,8.21a.6.6,0,0,1-.08.16A6.44,6.44,0,0,1,14,9a1.1,1.1,0,0,0-.2.35.69.69,0,0,0,0,.2s0,0,0,.06v.07c0,.08.06.19.08.26l-.1-.08-.05,0a.1.1,0,0,1,0,0l-.06,0h0l0,0a.47.47,0,0,0-.39.07A.49.49,0,0,0,13,10a.43.43,0,0,0,.19.45.5.5,0,0,0,.28.1h.1a.26.26,0,0,1-.1,0,.49.49,0,0,1-.32-.07.51.51,0,0,1-.18-.18.52.52,0,0,1,.14-.69.53.53,0,0,1,.48-.09l.06,0h0v-.1a.86.86,0,0,1,0-.23,1.1,1.1,0,0,1,.23-.38c.18-.22.37-.38.49-.56l.08-.13a.64.64,0,0,0-.08-.14,7.26,7.26,0,0,0-.49-.55,1.33,1.33,0,0,1-.23-.38,1,1,0,0,1,0-.24V6.8h0l0,0h-.06a.55.55,0,0,1-.69-.44.54.54,0,0,1,.07-.34.62.62,0,0,1,.18-.18.56.56,0,0,1,.32-.07.26.26,0,0,1,.1,0h-.1a.5.5,0,0,0-.28.1.43.43,0,0,0-.19.45.49.49,0,0,0,.17.28.44.44,0,0,0,.39.07h.06l.06,0s0,0,0,0l.05,0,.1-.08c0,.08-.06.18-.08.26v.08s0,0,0,.05a.64.64,0,0,0,0,.2,1.27,1.27,0,0,0,.2.36,5.27,5.27,0,0,1,.46.58A.65.65,0,0,1,14.52,8.21Z"/><path class="cls-2" d="M16.17,4.23A.75.75,0,0,1,16,4.3a7,7,0,0,1-.74.08,1.34,1.34,0,0,0-.39.11.66.66,0,0,0-.17.12l0,0,0,0,0,0c0,.07-.09.17-.12.24l0-.12V4.76a.17.17,0,0,0,0-.07s0,0,0-.05v0s0,0,0,0a.5.5,0,0,0-.32-.22.43.43,0,0,0-.32.08.44.44,0,0,0-.19.45.56.56,0,0,0,.13.27l.07.06-.08,0a.45.45,0,0,1-.18-.27.46.46,0,0,1,0-.26.51.51,0,0,1,.19-.28.53.53,0,0,1,.4-.11.58.58,0,0,1,.4.27l0,.06v0h0l0,0,0,0a.85.85,0,0,1,.19-.14,1.47,1.47,0,0,1,.44-.1,5.12,5.12,0,0,0,.73,0l.16,0s0-.1,0-.15c0-.21,0-.46,0-.74a1.14,1.14,0,0,1,.11-.43.63.63,0,0,1,.13-.2l0,0,0,0h0l-.05,0a.54.54,0,0,1-.28-.4.58.58,0,0,1,.11-.4.56.56,0,0,1,.28-.19.55.55,0,0,1,.26,0,.5.5,0,0,1,.27.17.34.34,0,0,1,.06.09.36.36,0,0,0-.07-.07.52.52,0,0,0-.27-.14.45.45,0,0,0-.45.19.47.47,0,0,0-.08.33.46.46,0,0,0,.23.31l0,0h0l.06,0h.26l-.25.13,0,0h0l0,0-.12.17a1.34,1.34,0,0,0-.11.39,5.08,5.08,0,0,1-.08.74Z"/><path class="cls-2" d="M20.14,2.59,20,2.51a6.82,6.82,0,0,1-.58-.46,1.15,1.15,0,0,0-.36-.2.65.65,0,0,0-.2,0H18.7l-.26.09.08-.1.05-.06,0-.05,0-.05v0s0,0,0,0a.45.45,0,0,0-.06-.38A.44.44,0,0,0,18.3,1a.45.45,0,0,0-.45.18.5.5,0,0,0-.09.29.27.27,0,0,0,0,.1.65.65,0,0,1,0-.1.53.53,0,0,1,.06-.32A.49.49,0,0,1,18,1a.51.51,0,0,1,.33-.06.6.6,0,0,1,.36.2.58.58,0,0,1,.09.48s0,0,0,.06v0h.09a.86.86,0,0,1,.24,0,1.43,1.43,0,0,1,.38.23,4.53,4.53,0,0,0,.55.49.5.5,0,0,0,.14.08.7.7,0,0,0,.14-.08A5.43,5.43,0,0,0,20.83,2a1.43,1.43,0,0,1,.38-.23.85.85,0,0,1,.23,0h.1v0s0,0,0-.06a.54.54,0,0,1,.09-.48A.6.6,0,0,1,22,.93a.51.51,0,0,1,.33.06.49.49,0,0,1,.19.19.53.53,0,0,1,.06.32.65.65,0,0,1,0,.1V1.5a.58.58,0,0,0-.09-.29A.46.46,0,0,0,22,1a.44.44,0,0,0-.28.17.49.49,0,0,0-.07.38l0,0v0s0,0,0,.05l0,.05.05.06.08.1-.26-.09h-.13a.78.78,0,0,0-.21,0,1.1,1.1,0,0,0-.35.2,6.82,6.82,0,0,1-.58.46Z"/><path class="cls-2" d="M24.11,4.23l-.06-.17A6.82,6.82,0,0,1,24,3.32a.92.92,0,0,0-.11-.39,1,1,0,0,0-.11-.17l0,0h0l-.05,0-.24-.13h.26l.06,0h0l0,0A.46.46,0,0,0,24,2.16a.53.53,0,0,0-.08-.33.46.46,0,0,0-.45-.19.52.52,0,0,0-.27.14.36.36,0,0,0-.07.07.44.44,0,0,1,.05-.09.6.6,0,0,1,.27-.17.6.6,0,0,1,.27,0,.56.56,0,0,1,.28.19.58.58,0,0,1,.11.4.54.54,0,0,1-.28.4l0,0h0l0,0,.05,0a.86.86,0,0,1,.13.2,1.36,1.36,0,0,1,.11.43c0,.28,0,.53,0,.74,0,0,0,.1,0,.15l.16,0a5,5,0,0,0,.73,0,1.34,1.34,0,0,1,.43.1.72.72,0,0,1,.2.14l.05,0,0,0h0v0l0-.06a.58.58,0,0,1,.4-.27.53.53,0,0,1,.4.11.56.56,0,0,1,.19.28.46.46,0,0,1,0,.26.5.5,0,0,1-.18.27.26.26,0,0,1-.09,0,.24.24,0,0,0,.08-.06.56.56,0,0,0,.13-.27.44.44,0,0,0-.19-.45.43.43,0,0,0-.32-.08.5.5,0,0,0-.32.22l0,0v0s0,0,0,.05a.17.17,0,0,0,0,.07v.07l0,.12-.12-.24,0,0,0,0,0,0a.66.66,0,0,0-.17-.12,1.4,1.4,0,0,0-.4-.11,7.09,7.09,0,0,1-.73-.08A.75.75,0,0,1,24.11,4.23Z"/><path class="cls-2" d="M20.14,2.72a5.49,5.49,0,1,0,5.49,5.49A5.49,5.49,0,0,0,20.14,2.72Zm0,10.88a5.4,5.4,0,1,1,5.39-5.39A5.39,5.39,0,0,1,20.14,13.6Z"/><path class="cls-2" d="M24,4.37A5.42,5.42,0,1,0,24,12,5.43,5.43,0,0,0,24,4.37ZM16.38,12a5.32,5.32,0,1,1,7.52,0A5.32,5.32,0,0,1,16.38,12Z"/><path class="cls-2" d="M16.36,12a5.34,5.34,0,1,0,0-7.55A5.33,5.33,0,0,0,16.36,12Zm.07-.06a5.25,5.25,0,1,1,7.42,0A5.24,5.24,0,0,1,16.43,11.92Z"/><rect class="cls-2" y="33.82" width="40.54" height="0.26"/><rect class="cls-2" y="15.31" width="14.38" height="0.26"/><rect class="cls-2" x="25.76" y="15.31" width="14.38" height="0.26"/><text class="cls-3" transform="translate(0 32.13)">Inspi<tspan class="cls-4" x="7.37" y="0">r</tspan><tspan x="8.57" y="0">ed Li</tspan><tspan class="cls-5" x="15.83" y="0">f</tspan><tspan x="17" y="0">estyle </tspan><tspan class="cls-6" x="26.92" y="0">E</tspan><tspan class="cls-7" x="28.75" y="0">v</tspan><tspan x="30.43" y="0">e</tspan><tspan class="cls-8" x="32.23" y="0">r</tspan><tspan class="cls-7" x="33.49" y="0">y</tspan><tspan x="35.15" y="0">d</tspan><tspan class="cls-9" x="37.04" y="0">a</tspan><tspan class="cls-10" x="38.81" y="0">y</tspan></text></g></g></svg>