<svg id="Capa_1" enable-background="new 0 0 480 480" height="512" viewBox="0 0 480 480" width="512" xmlns="http://www.w3.org/2000/svg"><g><path d="m440 0h-400c-22.082.027-39.973 17.918-40 40v400c.027 22.082 17.918 39.973 40 40h400c22.082-.027 39.973-17.918 40-40v-400c-.027-22.082-17.918-39.973-40-40zm24 440c0 13.254-10.746 24-24 24h-400c-13.254 0-24-10.746-24-24v-400c0-13.254 10.746-24 24-24h400c13.254 0 24 10.746 24 24z"/><path d="m240 48c-106.039 0-192 85.961-192 192s85.961 192 192 192 192-85.961 192-192c-.125-105.988-86.012-191.875-192-192zm0 368c-97.203 0-176-78.797-176-176s78.797-176 176-176 176 78.797 176 176c-.109 97.156-78.844 175.891-176 176z"/><path d="m424 32c-13.254 0-24 10.746-24 24s10.746 24 24 24 24-10.746 24-24-10.746-24-24-24zm0 32c-4.418 0-8-3.582-8-8s3.582-8 8-8 8 3.582 8 8-3.582 8-8 8z"/><path d="m56 80c13.254 0 24-10.746 24-24s-10.746-24-24-24-24 10.746-24 24 10.746 24 24 24zm0-32c4.418 0 8 3.582 8 8s-3.582 8-8 8-8-3.582-8-8 3.582-8 8-8z"/><path d="m424 400c-13.254 0-24 10.746-24 24s10.746 24 24 24 24-10.746 24-24-10.746-24-24-24zm0 32c-4.418 0-8-3.582-8-8s3.582-8 8-8 8 3.582 8 8-3.582 8-8 8z"/><path d="m56 400c-13.254 0-24 10.746-24 24s10.746 24 24 24 24-10.746 24-24-10.746-24-24-24zm0 32c-4.418 0-8-3.582-8-8s3.582-8 8-8 8 3.582 8 8-3.582 8-8 8z"/><path d="m120 232h240c13.254 0 24-10.746 24-24s-10.746-24-24-24h-240c-13.254 0-24 10.746-24 24s10.746 24 24 24zm0-32h240c4.418 0 8 3.582 8 8s-3.582 8-8 8h-240c-4.418 0-8-3.582-8-8s3.582-8 8-8z"/><path d="m144 168h192c13.254 0 24-10.746 24-24s-10.746-24-24-24h-192c-13.254 0-24 10.746-24 24s10.746 24 24 24zm0-32h192c4.418 0 8 3.582 8 8s-3.582 8-8 8h-192c-4.418 0-8-3.582-8-8s3.582-8 8-8z"/><path d="m360 248h-240c-13.254 0-24 10.746-24 24s10.746 24 24 24h240c13.254 0 24-10.746 24-24s-10.746-24-24-24zm0 32h-240c-4.418 0-8-3.582-8-8s3.582-8 8-8h240c4.418 0 8 3.582 8 8s-3.582 8-8 8z"/><path d="m336 312h-192c-13.254 0-24 10.746-24 24s10.746 24 24 24h192c13.254 0 24-10.746 24-24s-10.746-24-24-24zm0 32h-192c-4.418 0-8-3.582-8-8s3.582-8 8-8h192c4.418 0 8 3.582 8 8s-3.582 8-8 8z"/></g></svg>