<svg xmlns="http://www.w3.org/2000/svg" viewBox="0 0 43.92 23.67"><defs><style>.cls-1{fill:#a1ce55;}.cls-2{fill:#fff;}</style></defs><g id="Layer_2" data-name="Layer 2"><g id="Layer_1-2" data-name="Layer 1"><path class="cls-1" d="M43.61,21.16c.33-2-.7-3.6-1.91-5.13-.57-.72-1.2-1.41-1.72-2.18s-.94-1.58-1.41-2.37A10,10,0,0,0,37,9.37c-.68-.64-1.46-1.16-2.1-1.84a13.87,13.87,0,0,0-1.93-1.9,9.19,9.19,0,0,1-2-1.28c-1-1.23-2.8.55-1.77,1.77A5.61,5.61,0,0,0,31,7.36,6.64,6.64,0,0,1,32.73,8.9c1.15,1.28,2.63,2.14,3.55,3.62a33,33,0,0,0,2.86,4.29,14.32,14.32,0,0,1,2.77,4.35c.26.72,1.54.94,1.7,0Z" transform="translate(-0.54)"/><path class="cls-1" d="M30.62,4.51a1.69,1.69,0,0,0-.07.44,1.39,1.39,0,0,0,.21.65,3,3,0,0,0,.33.51s.18.25.06.07a2.43,2.43,0,0,0,.14.2c.08.13.16.27.23.41a1.14,1.14,0,0,1,.1.19c-.11-.22,0,0,0,.06.11.32.19.64.29,1A4.48,4.48,0,0,0,33,10c.23.22.5.39.74.6s.23.24.36.36a1.14,1.14,0,0,0,.57.31l.29,0c.36-.05.39-.05.1,0a1,1,0,0,0,.92-.71c-.09.21-.09.22,0,0a.76.76,0,0,0,.09-.42,1.09,1.09,0,0,0-.16-.64,2.13,2.13,0,0,0-.42-.48c-.18-.15-.37-.29-.57-.44l-.17-.12c-.1-.07-.13-.1,0,0l-.38-.35c.1.1.07.09,0,0L34.25,8c0-.07-.07-.15-.11-.23.12.24,0,0,0,0S34,7.41,34,7.26a5,5,0,0,0-1-2,5.09,5.09,0,0,0-.86-.67c-.12-.08-.24-.17-.36-.24a1.2,1.2,0,0,0-.31-.13c-.15,0,.13.12,0,0a.49.49,0,0,0-.55-.1.48.48,0,0,0-.3.45Z" transform="translate(-0.54)"/><path class="cls-1" d="M34.51,3.48c-.06.26-.17.49-.24.74a5.07,5.07,0,0,0-.11.68c-.07.51-.08,1-.1,1.55-.05,1,0,2.08,0,3.13a3.28,3.28,0,0,0,.89,2.53A7.6,7.6,0,0,0,37,13.61a1.15,1.15,0,0,0,1.39-1.79A3.79,3.79,0,0,0,37.37,11a4.59,4.59,0,0,1-.94-.54c-.38-.31-.38-.9-.41-1.52-.06-.89-.1-1.79-.19-2.68,0-.49-.08-1-.17-1.46s-.28-.87-.41-1.33a.39.39,0,0,0-.74,0Z" transform="translate(-0.54)"/><path class="cls-1" d="M32.86,11.2a2.22,2.22,0,0,0,.43.45,4,4,0,0,0,.43.29,6.05,6.05,0,0,0,1.16.38l.45.16.24.09q.15.06-.06,0l.11.05a4,4,0,0,0,.67.3,1.14,1.14,0,0,0,1.18-.24l-.5.2a.76.76,0,0,0,.61-.24.69.69,0,0,0,.07-.65v.38l0-.08a1,1,0,0,0-.25-.94,3.43,3.43,0,0,0-2.2-.88l-.9-.07a4.27,4.27,0,0,0-1,0h.32a1.05,1.05,0,0,1-.24-.06.55.55,0,0,0-.53.9Z" transform="translate(-0.54)"/><path class="cls-1" d="M29.81,11.81a5.5,5.5,0,0,0,4.06,2.13,9.94,9.94,0,0,0,2.61-.15,1.65,1.65,0,0,1,.91,0c.36.18.47.6.9.67a.75.75,0,0,0,.81-.33c.51-.85-.54-1.83-1.33-2a7.07,7.07,0,0,0-2.69.34,5.21,5.21,0,0,1-4.45-1.29c-.41-.37-1.16.12-.82.63Z" transform="translate(-0.54)"/><path class="cls-1" d="M32.83,12.24l.09,0-.09,0,.22.1.31.14-.11-.05c.08,0,.17.07.25.12a.61.61,0,0,0,.46.08.64.64,0,0,0,.18-.1.32.32,0,0,0,.14-.14.36.36,0,0,0,.06-.2.79.79,0,0,0-.08-.3.58.58,0,0,0-.38-.26l-.28-.07a3,3,0,0,0-.67,0,.37.37,0,0,0-.37.32.34.34,0,0,0,0,.24.47.47,0,0,0,.22.17Z" transform="translate(-0.54)"/><path class="cls-1" d="M33.83,11l0,0L34,11a.53.53,0,0,0-.39.18.92.92,0,0,0-.2.31,1.78,1.78,0,0,0,0,.46,2.48,2.48,0,0,0,.26.93,2.07,2.07,0,0,0,.22.35,2.55,2.55,0,0,0,.45.42,1.34,1.34,0,0,0,.49.25,2,2,0,0,0,.35.05,1,1,0,0,0,.34-.07.7.7,0,0,0,.45-.39.63.63,0,0,0,0-.61,1.61,1.61,0,0,0-.53-.54,3,3,0,0,1-.38-.23l.17.13-.36-.27.16.12a1.52,1.52,0,0,1-.31-.31l.11.14a1.38,1.38,0,0,1-.2-.33l.07.15c-.06-.12-.08-.27-.15-.39a1.34,1.34,0,0,0-.11-.14l0,.05a.66.66,0,0,0-.34-.25l.19.18v0a.25.25,0,0,0-.41-.11Z" transform="translate(-0.54)"/><path class="cls-1" d="M30,13.55h.07l.12,0,.26.05a2.83,2.83,0,0,0,.65,0,3.6,3.6,0,0,0,.66-.05,1.76,1.76,0,0,0,.39-.12.66.66,0,0,0,.24-.23c.08-.16.09-.19,0-.1l0,0a.39.39,0,0,0-.06-.46l0,0c.07.07,0,.05-.06-.08a.69.69,0,0,0-.3-.17,1.84,1.84,0,0,0-.41,0,3.27,3.27,0,0,0-.53.05,2.31,2.31,0,0,0-.64.1q-.27.09-.54.21a.45.45,0,0,0-.32.48.47.47,0,0,0,.44.38Z" transform="translate(-0.54)"/><path class="cls-1" d="M32,15.26c.41-.11.79-.31,1.2-.44a11.77,11.77,0,0,0,1.33-.34,5,5,0,0,0,.56-.3l.25-.15L35.5,14c-.06,0-.08,0,0,0l.51-.14a1,1,0,0,0,.44-.25.63.63,0,0,0,.12-.11.64.64,0,0,0,.08-.14c0-.08,0-.09,0-.05a.47.47,0,0,0-.17-.62l0,0,.18.17a1.23,1.23,0,0,0-1.49-.22,8.29,8.29,0,0,0-1.14.7,2.07,2.07,0,0,1-.53.18,4.83,4.83,0,0,0-.64.22,3.14,3.14,0,0,0-1.31.79.48.48,0,0,0,.47.8Z" transform="translate(-0.54)"/><path class="cls-1" d="M33.91,14.83c.05,0,.08-.09.13-.13l-.12.09,0,0-.15.07h0l-.18,0a.52.52,0,0,0,.25-.05l.09,0-.16.07h0l-.17,0h.1a.83.83,0,0,0,.22,0l0,0a1,1,0,0,0,.22-.09l.07,0a.73.73,0,0,0,.16-.14l.14-.18.06-.15a.46.46,0,0,0,0-.26.33.33,0,0,0,0-.16.46.46,0,0,0-.13-.21l-.13-.1-.16-.06a.43.43,0,0,0-.25,0,.48.48,0,0,0-.24.07l-.07,0a1,1,0,0,0-.16.12l0,0,.13-.11-.12.08.16-.07-.09,0,.17,0h-.07a.74.74,0,0,0-.19,0,.51.51,0,0,0-.17.07.66.66,0,0,0-.24.23l.1-.13a.89.89,0,0,0-.2.37l0,.23a2.11,2.11,0,0,0,0,.25.55.55,0,0,0,.38.38.66.66,0,0,0,.28,0,.58.58,0,0,0,.24-.14Z" transform="translate(-0.54)"/><path class="cls-1" d="M35.39,15.23a1.22,1.22,0,0,0,.38,0,1.15,1.15,0,0,0,.44-.15c.14-.07,0,0,0,0l.09,0c.13-.05-.16,0,0,0-.2,0-.16,0-.1,0s0,.05-.08,0l.1.05a3.1,3.1,0,0,0,.45.21,2.56,2.56,0,0,0,.67.13c.12,0,.25,0,.38,0l.21,0,.12,0s-.14-.06,0,0l.14.09.28.18a3.84,3.84,0,0,0,.75.4.86.86,0,0,0,.86-.23.82.82,0,0,0,.25-.78c.07.43,0-.08-.06-.19a.9.9,0,0,0-.58-.51l-.17-.05c-.09,0-.07,0,0,0l-.11,0L39,14.23a2.12,2.12,0,0,0-.69-.17h-.47l-.5,0h-.23a3.66,3.66,0,0,1-.44-.13,1.23,1.23,0,0,0-.43-.1,1.3,1.3,0,0,0-.61.17,1.05,1.05,0,0,0-.59.74.45.45,0,0,0,.31.55Z" transform="translate(-0.54)"/><path class="cls-1" d="M36.41,13.91a1,1,0,0,0,0,.34.8.8,0,0,0,.22.32l.25.2.24.21a1.09,1.09,0,0,0,.17.13l.17.07a.52.52,0,0,0,.25,0l.16,0a.42.42,0,0,0,.31-.31s0,0,0-.08a.64.64,0,0,0-.06-.45l-.1-.14L37.87,14l-.28-.16-.28-.14-.07,0a.72.72,0,0,0-.24-.1,1.51,1.51,0,0,0-.3,0,.4.4,0,0,0-.29.3Z" transform="translate(-0.54)"/><path class="cls-1" d="M36.43,15.43c0,.55.57.77,1,1s.74.33,1.2.53l1.2.54.31.14.1.06c-.1-.09-.11-.09,0,0a2.42,2.42,0,0,0,.71.42.79.79,0,0,0,1-.76l-.23.55a.51.51,0,0,0,.16-.25.75.75,0,0,0,.07-.33,1.3,1.3,0,0,0-.17-.57,1.37,1.37,0,0,0-.66-.64,11.49,11.49,0,0,0-1.61-.59c-.49-.15-1-.31-1.48-.41a3,3,0,0,0-.93-.13.65.65,0,0,0-.6.51Z" transform="translate(-0.54)"/><path class="cls-1" d="M36.17,18a1.18,1.18,0,0,0,1.24-.25l.18-.18.09-.1s.12-.09,0,0,.15-.08,0,0l.15,0c.05,0,.05,0,0,0h.27a5.54,5.54,0,0,1,1.5.32c.57.19.89.42,1.5.57a.65.65,0,0,0,.63-1.09,4.14,4.14,0,0,0-1.65-.79,6.07,6.07,0,0,0-1.79-.27,2,2,0,0,0-1.51.58,1.61,1.61,0,0,0-.21.3l-.09.2c0,.1,0-.08,0,0a.93.93,0,0,1,0,.1s.08-.08.08-.08,0,0-.06,0h-.13a.41.41,0,0,0-.22.79Z" transform="translate(-0.54)"/><path class="cls-1" d="M36.1,17.16a1.15,1.15,0,0,0,1,.19c.29,0,.58-.13.87-.17l-.14,0a3.23,3.23,0,0,0,.33-.06c.07,0-.14,0-.07,0h0a.5.5,0,0,0,.29-.07.48.48,0,0,0,.17-.64.88.88,0,0,0-.89-.27l-.51.14a4.37,4.37,0,0,1-.52.12c-.08,0,.14,0,.06,0h0a.41.41,0,0,0-.11,0s.15,0,.07,0h0c-.06,0,.13.06.07,0s.1.09.05,0a.5.5,0,0,0-.68,0,.49.49,0,0,0,0,.68Z" transform="translate(-0.54)"/><path class="cls-1" d="M37.54,19.21a8.09,8.09,0,0,1,.28-.83l-.08.19A2.54,2.54,0,0,1,38,18l-.13.17a4.12,4.12,0,0,1,.67-.65l-.18.14.25-.19a1.6,1.6,0,0,0,.18-.25l-.13.18.12-.14a.85.85,0,0,0,.13-1,1.18,1.18,0,0,0-.3-.29.83.83,0,0,0-.62-.08,1.52,1.52,0,0,0-.48.17,2.72,2.72,0,0,0-.42.34,3.06,3.06,0,0,0-.53.71A5.19,5.19,0,0,0,36.18,19a.64.64,0,0,0,.2.49.66.66,0,0,0,.4.19.69.69,0,0,0,.76-.49Z" transform="translate(-0.54)"/><path class="cls-1" d="M39.65,6.58c-.85,0-.84,1.23-.81,1.81s.21,1.41.22,2.12a9.19,9.19,0,0,1-.21,2,9.05,9.05,0,0,1-.3,1,3,3,0,0,0-.16,1.08.59.59,0,0,0,1,.42,3.3,3.3,0,0,0,1-2,8.72,8.72,0,0,0,.25-2.33,13,13,0,0,0-.36-2.23,4.18,4.18,0,0,1-.07-1.06c0-.36-.11-.83-.55-.83Z" transform="translate(-0.54)"/><path class="cls-1" d="M38.09,10.43a1.48,1.48,0,0,0-.08.46,1.25,1.25,0,0,0,.11.5,5.75,5.75,0,0,0,.43.86l.09.17c0,.08-.06-.15,0-.06l0,.09c0,.06,0,.13.05.19a.23.23,0,0,1,0,.12s0-.19,0-.07,0,.25,0,.37a.89.89,0,0,0,.07.36c0,.05.09.27,0,0s0-.05,0,0a.59.59,0,0,0,.1.29.69.69,0,0,0,1.21-.08c0-.09-.09.11,0,0a1.39,1.39,0,0,0,.22-.37,1.58,1.58,0,0,0,0-.65,2.91,2.91,0,0,0-.34-1,6.59,6.59,0,0,0-.56-.82l-.06-.07s-.1-.12,0,0,0,0,0,0l-.06-.07a2.75,2.75,0,0,0-.37-.39.47.47,0,0,0-.78.21Z" transform="translate(-0.54)"/><path class="cls-1" d="M40,13.32a.64.64,0,0,1,0-.07c0-.12,0,0,0,0s.06-.12.07-.13a.21.21,0,0,1,0-.06c.06-.09,0,0,0,.05l0-.06c.06-.07-.14.09,0,0a2,2,0,0,1,.25-.14,2.21,2.21,0,0,0,.4-.28l-.15.12.66-.51a1.73,1.73,0,0,0,.52-.62.74.74,0,0,0-1.16-.9l-.16.13.16-.12a3.73,3.73,0,0,0-.36.32l-.24.21c-.16.14-.32.27-.47.42a1.31,1.31,0,0,0-.24.37l-.12.27,0,.06c.07-.19,0-.11,0-.06a1.78,1.78,0,0,0-.21.78.52.52,0,0,0,.46.53.53.53,0,0,0,.59-.38Z" transform="translate(-0.54)"/><path class="cls-1" d="M40.32,11.55a1.74,1.74,0,0,1,.11-.18.22.22,0,0,1,0-.08l0,0s0,0,0,0a.64.64,0,0,1,.13-.15,1.21,1.21,0,0,1,.16-.16c.21-.21.45-.39.68-.58a2.92,2.92,0,0,0,1.17-1.65.88.88,0,0,0-.08-.64.84.84,0,0,0-1.44,0,11.87,11.87,0,0,1-.89,1.44,5.94,5.94,0,0,0-.89,1.59.55.55,0,0,0,1,.42Z" transform="translate(-0.54)"/><path class="cls-1" d="M42.77,9.49a4,4,0,0,0-.51,1.24c-.07.49-.16,1-.23,1.46-.14.94-.31,1.87-.47,2.81a13.38,13.38,0,0,0-.23,3c0,.77.1,2.19,1.08,2.37s.86-1.39.79-2a16.48,16.48,0,0,1,0-3c.06-.95.2-1.89.3-2.83a14.92,14.92,0,0,0,.07-1.5,4.26,4.26,0,0,0,0-.71,5.83,5.83,0,0,1-.18-.72c0-.28-.44-.46-.58-.16Z" transform="translate(-0.54)"/><path class="cls-1" d="M41.09,12a.76.76,0,0,0-.2.48A3.18,3.18,0,0,0,41,13c.07.32.12.65.2,1s.15.64.21,1a2.47,2.47,0,0,0,.11.47,2.87,2.87,0,0,0,.26.49.62.62,0,0,0,1.13-.15,2.72,2.72,0,0,0,.09-.56,2.78,2.78,0,0,0-.13-.65c-.09-.34-.2-.68-.31-1a5.8,5.8,0,0,0-.49-1,1,1,0,0,0-.49-.51.46.46,0,0,0-.48,0Z" transform="translate(-0.54)"/><path class="cls-1" d="M42.77,14.71l.06-.14s0-.05,0-.08,0,0,0,0a.75.75,0,0,0,.21-.34c0-.11,0,.07,0,0l0-.08c.08-.18.16-.35.23-.53s0-.07,0-.11,0,.12,0,0a2.14,2.14,0,0,0,.1-.22l.21-.37.12-.17,0,0h0l.11-.15.12-.17c.05-.08,0,0,0,0l.06-.07a1.69,1.69,0,0,0,.24-.41c0-.07,0,0,0,0a.72.72,0,0,0,.08-.35l-.07.25a.54.54,0,0,1,0-.11.48.48,0,0,0,0-.45.45.45,0,0,0-.38-.22l-.25,0H44c-.47-.15-.9.21-1.2.54a3.75,3.75,0,0,0-.57.94,3.53,3.53,0,0,0-.33,1.15,1.15,1.15,0,0,0,.09.66s0,.07,0,0,0,.07,0,.11l.06.22a.34.34,0,0,0,.65,0Z" transform="translate(-0.54)"/><path class="cls-1" d="M36.09,2.7c-.73.45-.79,1.4-.86,2.17,0,.57,0,1.38-.13,1.74a9.65,9.65,0,0,0-.29,2.06,7.26,7.26,0,0,0,.37,2.12,1.25,1.25,0,0,0,1.36.88,1.21,1.21,0,0,0,1.07-1.21c0-.38-.14-.74-.21-1.11,0,0-.09-.52-.06-.3,0-.12,0-.25,0-.38a4.52,4.52,0,0,1,0-.52c0,.2,0-.2,0-.21.06-.31.14-.62.19-.93a8.51,8.51,0,0,0,0-2.14A3.48,3.48,0,0,0,37,2.82a.75.75,0,0,0-.92-.12Z" transform="translate(-0.54)"/><path class="cls-1" d="M35.35,5.92l0,0,.15-.15-.08,0a.71.71,0,0,0-.36.63c0,.2,0,.4,0,.6s0,.19,0,.29a4.43,4.43,0,0,0,.06.51l0-.25a3.71,3.71,0,0,1,0,.47v.22a1,1,0,0,0,.19.59.88.88,0,0,0,.63.41.83.83,0,0,0,.72-.24A1,1,0,0,0,37,8.31,2.44,2.44,0,0,0,37,8a6.46,6.46,0,0,0-.11-.75,3.61,3.61,0,0,0-.27-.67L36.4,6.1a.7.7,0,0,0-.63-.36H35.7l.22.06,0,0a.39.39,0,0,0-.54.14Z" transform="translate(-0.54)"/><path class="cls-1" d="M36.59,8.42c0-.06,0-.05,0,0l-.21.21a.55.55,0,0,0,.22-.14l-.07.05.11-.06a2.67,2.67,0,0,0,.43-.32l-.22.17.26-.17a3.05,3.05,0,0,0,.46-.41c.17-.18.36-.33.55-.5a3.48,3.48,0,0,0,.46-.48,1.82,1.82,0,0,0,.54-1.35A1.33,1.33,0,0,0,39,4.86a1.13,1.13,0,0,0-1.15-.55,1.19,1.19,0,0,0-.66.31l0,0,.24-.18A2.26,2.26,0,0,0,37,4.7a2.51,2.51,0,0,0-.25.32c-.06.08-.1.16-.16.24l.2-.26c-.32.42-.75.73-1.08,1.13a1.8,1.8,0,0,0-.44.77,3.11,3.11,0,0,0-.09.6,1.28,1.28,0,0,0,.57,1.15l-.21-.21a1.66,1.66,0,0,0,.16.21.49.49,0,0,0,.5.13.5.5,0,0,0,.36-.36Z" transform="translate(-0.54)"/><path class="cls-1" d="M38.23,5.33l-.1.18.21-.21a4.76,4.76,0,0,0-1.23,1.41,5.42,5.42,0,0,0-.7,1.66A7.62,7.62,0,0,0,36.17,12a1.26,1.26,0,0,0,1.54.87,1.29,1.29,0,0,0,.88-1.53c0-.08,0-.15-.05-.23,0,.15,0,.15,0,0s0-.22,0-.33a6.79,6.79,0,0,1,0-.78c0,.27,0-.06,0-.12s.06-.29.1-.44.13-.48.21-.72.17-.46.25-.7a4,4,0,0,0,.15-.78,4.82,4.82,0,0,0,.11-.93,2.86,2.86,0,0,0-.28-.9.5.5,0,0,0-.91-.12Z" transform="translate(-0.54)"/><path class="cls-1" d="M37.59,12.26a1.66,1.66,0,0,0,.31-.12,1.28,1.28,0,0,0,.47-.51l.09-.15a3.57,3.57,0,0,0,.19-.45l-.13.29a1.91,1.91,0,0,1,.16-.27l-.2.26a4.67,4.67,0,0,1,.45-.44,3.61,3.61,0,0,0,.57-.72,1.31,1.31,0,0,0,.13-1,1.26,1.26,0,0,0-.58-.74,1.24,1.24,0,0,0-1-.13,1.31,1.31,0,0,0-.75.58,2.43,2.43,0,0,1-.14.2l.2-.25c-.3.39-.75.64-.95,1.11A2,2,0,0,0,36.2,11a1.47,1.47,0,0,0,.36,1,1.06,1.06,0,0,0,1,.3Z" transform="translate(-0.54)"/><path class="cls-1" d="M36.75,7.43l0,.12.23-.3a1.06,1.06,0,0,0-.55.67,1.74,1.74,0,0,0-.06.45c0,.08,0,.16,0,.24s0,.25,0,.38a4.93,4.93,0,0,0,.07.66l0-.27a1.1,1.1,0,0,1,0,.18,1,1,0,0,0,.85,1,1,1,0,0,0,1.08-.71c0-.11,0-.23,0-.34a1.46,1.46,0,0,0,0-.36,5.16,5.16,0,0,0-.1-.67,2,2,0,0,0-.23-.68,1.2,1.2,0,0,0-.76-.58l.3.24h0a.47.47,0,0,0-.45-.34.49.49,0,0,0-.45.34Z" transform="translate(-0.54)"/><path class="cls-1" d="M38.44,8.17,38.6,8l-.33.2h-.35a.79.79,0,0,0,.4,0l.15,0,.26-.1-.24.1.13-.05.19-.07L39,8l.24-.19L39,8a2.77,2.77,0,0,1,.55-.33l-.27.12.5-.23a1.5,1.5,0,0,0,.42-.33,1.25,1.25,0,0,0,.28-.47l0-.29a.75.75,0,0,0-.09-.41.49.49,0,0,0-.14-.24.5.5,0,0,0-.19-.19.63.63,0,0,0-.24-.14.91.91,0,0,0-.41-.09H39.3a.3.3,0,0,0-.16,0l-.18,0-.06,0a2.92,2.92,0,0,0-.49.19l-.21.14c-.13.1-.26.2-.38.31a1.07,1.07,0,0,0-.16.14,3.25,3.25,0,0,0-.23.29,1.71,1.71,0,0,0-.13.34l0,.1,0,.18a.53.53,0,0,0,0,.28,1,1,0,0,0,.16.43l-.08-.19v0l0-.21a1.77,1.77,0,0,0,0,.23.67.67,0,0,0,1.14.47Z" transform="translate(-0.54)"/><path class="cls-1" d="M32.18.85,32,1.17l.31-.24a1.57,1.57,0,0,0-.81.87A4.73,4.73,0,0,0,31,3a4.17,4.17,0,0,0,.27,2.78,5.43,5.43,0,0,0,1.38,1.74c.26.23.53.42.79.64s.27.26.4.39c-.08-.08-.07-.11,0,0s.19.27.3.41a1.24,1.24,0,0,0,1.49.19,1.3,1.3,0,0,0,.56-1.38C36,7,35.28,6.48,34.72,6A7.1,7.1,0,0,1,34,5.41L33.68,5c-.13-.13.09.15,0,0l-.15-.23c-.07-.12-.14-.25-.2-.38.07.17,0,0,0-.06s0-.14-.05-.22,0-.08,0,0,0,0,0-.12c-.07-.49,0,.18,0-.21V3.3a10.57,10.57,0,0,0,0-1.12c0-.37,0-.86-.34-1.11l.15.36L32.93,1a.41.41,0,0,0-.75-.1Z" transform="translate(-0.54)"/><path class="cls-1" d="M29.56.23a2.54,2.54,0,0,0-.45,1.53A5.08,5.08,0,0,0,29.6,3.6a7.92,7.92,0,0,0,.79,1.27,8.42,8.42,0,0,0,.63.71,1.86,1.86,0,0,0,.27.29s-.15-.2-.06-.06a1.38,1.38,0,0,0,.51.48,1.22,1.22,0,0,0,1.82-1c0-.76-.61-1.23-1.07-1.74-.17-.18-.34-.35-.49-.53l-.11-.13c-.11-.13,0-.09,0,0a2.86,2.86,0,0,0-.22-.3A10.1,10.1,0,0,1,31,1.37l-.06-.14c0,.12,0,.07,0,0A2,2,0,0,0,30.7.8a4.67,4.67,0,0,1-.33-.57.47.47,0,0,0-.81,0Z" transform="translate(-0.54)"/><path class="cls-1" d="M29.05,2.92V2.67a.87.87,0,0,0,0,.48.25.25,0,0,0,0,.07,1.14,1.14,0,0,0,.24.41l0,0,.09.09.16.18a1.88,1.88,0,0,0,.41.32l-.23-.17a1.57,1.57,0,0,1,.24.21,1.64,1.64,0,0,0,.32.27,1.46,1.46,0,0,0,.39.16,1,1,0,0,0,.58,0,1,1,0,0,0,.48-.28A1.07,1.07,0,0,0,32.08,4a1.14,1.14,0,0,0,0-.58.29.29,0,0,1,0-.09A1.37,1.37,0,0,0,31.93,3a1.16,1.16,0,0,0-.2-.25l-.38-.29a2.64,2.64,0,0,0-.37-.2,1.48,1.48,0,0,0-.29-.12l-.31,0h-.29a1.36,1.36,0,0,0-.6.14,1.17,1.17,0,0,0-.3.24l.35-.15h0a.5.5,0,0,0-.47.62Z" transform="translate(-0.54)"/><path class="cls-1" d="M32.58,1.3c-.08.11.1-.1,0,0,.09-.08.47-.28,0-.05l-.21.1.23-.1a4.23,4.23,0,0,0-.53.23,3.81,3.81,0,0,0-.5.37A2.69,2.69,0,0,0,31,3a4,4,0,0,0-.18,1,1.8,1.8,0,0,0,.42,1.49,1.27,1.27,0,0,0,1,.34,1.2,1.2,0,0,0,.89-.59,1.27,1.27,0,0,0,.19-.66c0-.14,0-.29-.06-.43l0,.34a3.18,3.18,0,0,1,0-.69l-.05.33a3.29,3.29,0,0,1,.21-.76l-.12.29a4.13,4.13,0,0,0,.4-1.08,3,3,0,0,0,.06-.6,1,1,0,0,0-.08-.35c-.1-.23,0,0,0,0s-.07-.16-.09-.2a.33.33,0,0,0-.06-.1.6.6,0,0,0-1,0Z" transform="translate(-0.54)"/><path class="cls-1" d="M29.68,9.92c.1.2.07.26.24.43a1.36,1.36,0,0,0,.34.25,1.89,1.89,0,0,0,.93.21,5.58,5.58,0,0,0,.59-.1l.18,0H31.9c.23,0,.45,0,.68,0h.32l.18,0H33a3.56,3.56,0,0,1,.56.15c.3.11-.19-.11,0,0l.27.15.13.09c.1.07.08.06-.07-.06s.2.18.22.21a1.26,1.26,0,0,0,2-.25,1.3,1.3,0,0,0-.2-1.52,4.63,4.63,0,0,0-3-1.29,5.57,5.57,0,0,0-1.68.15,2.42,2.42,0,0,0-1,.47s-.16.12,0,0-.16.14-.18.15l-.21.23L30.28,9h-.06a.63.63,0,0,0-.54.94Z" transform="translate(-0.54)"/><path class="cls-1" d="M29.89,8.77a2.75,2.75,0,0,0,.17.29,1.83,1.83,0,0,0,.45.47,2.69,2.69,0,0,0,.82.47,5.23,5.23,0,0,0,.68.18l.3.06c.12,0,.22.08.34.1a1.12,1.12,0,0,0,.82-.11A1.13,1.13,0,0,0,34,9l-.11-.26a1.06,1.06,0,0,0-.38-.38,3,3,0,0,0-1.35-.33l.28,0a5.12,5.12,0,0,1-.54-.1c-.25-.06-.51-.06-.76-.1l.24,0a3.8,3.8,0,0,0-.58-.06l-.37,0a.59.59,0,0,0-.5.87Z" transform="translate(-0.54)"/><path class="cls-1" d="M29.08,7.36a1.34,1.34,0,0,0,.63.89,3.07,3.07,0,0,0,.48.24,6,6,0,0,0,.7.28l.49.16-.29-.12a2.11,2.11,0,0,1,.44.24l-.26-.19a2,2,0,0,1,.32.33l-.19-.26a3.84,3.84,0,0,1,.32.5,2.15,2.15,0,0,1,.14.26,2.24,2.24,0,0,0,.32.44l.25.19a.82.82,0,0,0,.45.14,1.12,1.12,0,0,0,.78-.14,1.28,1.28,0,0,0,.56-1.38,3.37,3.37,0,0,0-.58-1.15,3.22,3.22,0,0,0-1.07-1,4.07,4.07,0,0,0-1.31-.45,5.35,5.35,0,0,1-.55-.11,1.55,1.55,0,0,0-.8,0,2,2,0,0,0-.4.17.79.79,0,0,0-.38.44,1,1,0,0,0-.05.6Z" transform="translate(-0.54)"/><path class="cls-1" d="M29.82,6a.52.52,0,0,0-.14.19.85.85,0,0,0-.09.22,2.34,2.34,0,0,0,0,.26.28.28,0,0,1,0,.09,1.06,1.06,0,0,0,.16.54,3.68,3.68,0,0,0,.39.58,1.87,1.87,0,0,0,.31.32,3.8,3.8,0,0,0,.38.29,3.19,3.19,0,0,0,.46.2L31,8.61a1.48,1.48,0,0,0,.65.19,1.37,1.37,0,0,0,.59-.16,1.64,1.64,0,0,0,.25-.19l-.5.29h0a.82.82,0,0,0,.38-.2.84.84,0,0,0,.28-.31,1.1,1.1,0,0,0,.11-.85v.57a2.91,2.91,0,0,0,0-.31,1.75,1.75,0,0,0,0-.32L32.62,7l-.18-.23-.24-.19h0c-.14-.06-.28-.13-.43-.18l-.17,0a.49.49,0,0,1-.17-.06l.26.12a2.29,2.29,0,0,1-.5-.3l.2.16-.13-.11-.06-.06a1.11,1.11,0,0,0-.45-.25.87.87,0,0,0-.22,0,.8.8,0,0,0-.69.21Z" transform="translate(-0.54)"/><path class="cls-1" d="M39.75,16.64h0a.75.75,0,0,0,.8.53.74.74,0,0,0,.64-.72s0-.08,0-.11L40.8,17a1,1,0,0,0,.47-.65c0-.07,0-.13,0-.19a1.91,1.91,0,0,0,.06-.48.67.67,0,0,1,0-.2l0,.32a11.69,11.69,0,0,1,.31-1.3l.17-.64c0-.11.07-.23.1-.35a1.41,1.41,0,0,0-.13-1.1A1.21,1.21,0,0,0,40.13,12a1.34,1.34,0,0,0-.62.8,2.5,2.5,0,0,0-.07.26l-.15.54c-.1.37-.2.74-.29,1.11a2,2,0,0,0,0,.24,2.21,2.21,0,0,0,0,.81,1.73,1.73,0,0,0,.14.44,1.5,1.5,0,0,0,.43.56l.12.1a1.08,1.08,0,0,0,.55.26,1.4,1.4,0,0,0,.41,0l-.75-.2.07.08.89-1.15h0a.74.74,0,0,0-.81.06.71.71,0,0,0-.26.77Z" transform="translate(-0.54)"/><path class="cls-1" d="M40.93,16.36a1.18,1.18,0,0,0,.19-.25l0-.05.07-.11-.18.24a.27.27,0,0,1,.07-.08l.17-.2c.08-.1.15-.22.23-.32l-.2.25a1.86,1.86,0,0,1,.29-.27l-.26.19a9.44,9.44,0,0,0,1.05-.68l.2-.25a.89.89,0,0,0,.14-.47.62.62,0,0,0,0-.33.86.86,0,0,0-.14-.46,1.61,1.61,0,0,0-.45-.45.86.86,0,0,0-.46-.14.94.94,0,0,0-.5,0,4.19,4.19,0,0,0-.79.4l-.26.17a4.06,4.06,0,0,0-.46.36,3.75,3.75,0,0,0-.35.44.41.41,0,0,0-.07.11,1.54,1.54,0,0,0-.15.34,2.35,2.35,0,0,0-.05.37,2.38,2.38,0,0,0,.05.53l0,.11a1.78,1.78,0,0,0,.13.3l.16.22.23.17.26.11a.86.86,0,0,0,.42,0,.68.68,0,0,0,.27-.07,1,1,0,0,0,.34-.22Z" transform="translate(-0.54)"/><path class="cls-2" d="M7.51,19.62a15,15,0,0,1-.64,1.76,10.66,10.66,0,0,1-2.13.28,3.85,3.85,0,0,1-4.2-3.89c0-2.37,1.8-4,4.41-4a13,13,0,0,1,2.2.26c0,.53.13,1.23.22,1.81L7,15.91a2,2,0,0,0-1.11-1.5,3.17,3.17,0,0,0-1.22-.22c-1.92,0-2.93,1.42-2.93,3.34,0,2.24,1.16,3.69,3.05,3.69,1.18,0,1.77-.55,2.36-1.71Z" transform="translate(-0.54)"/><path class="cls-2" d="M14.67,19.63c-.07.31-.38,1.51-.5,1.86H8.51v-.33C9.59,21.08,9.67,21,9.67,20v-4.6c0-1-.12-1.09-1-1.17v-.33h3.57c1.09,0,1.54,0,1.68,0,0,.29.06,1.16.11,1.78l-.35.06a3.5,3.5,0,0,0-.35-.89c-.19-.38-.45-.47-1.15-.47H11.07c-.36,0-.38,0-.38.38v2.57H12c.87,0,.93-.17,1.07-1h.36v2.4h-.36c-.15-.84-.24-1-1.08-1H10.69v2.31c0,.82.25.89.84.9h1.08c.71,0,.83-.1,1.08-.41a4.79,4.79,0,0,0,.63-1.07Z" transform="translate(-0.54)"/><path class="cls-2" d="M18.72,13.92a4.67,4.67,0,0,1,3.4,1,3.38,3.38,0,0,1,1,2.49,3.83,3.83,0,0,1-1.46,3.15,5.54,5.54,0,0,1-3.44.92H15.48v-.33c1-.09,1.05-.17,1.05-1.13V15.39c0-1-.14-1.05-1.05-1.14v-.33Zm-1.18,6c0,.87.38,1.12,1.25,1.12,2.1,0,3.17-1.44,3.17-3.47a3,3,0,0,0-1.35-2.8,3.67,3.67,0,0,0-2-.46,1.66,1.66,0,0,0-.92.16c-.11.07-.16.2-.16.65Z" transform="translate(-0.54)"/><path class="cls-2" d="M28.3,21.49v-.33c.76-.09.85-.21.69-.65s-.39-1-.63-1.77H25.85c-.19.52-.37,1-.53,1.45-.25.76-.09.85.86,1v.33H23.49v-.33c.74-.09.92-.17,1.33-1.22l2.41-6.11.37-.07c.74,2,1.54,4.19,2.27,6.2.38,1,.48,1.11,1.31,1.2v.33Zm-1.16-6.21c-.37,1-.77,2.06-1.12,3H28.2Z" transform="translate(-0.54)"/><path class="cls-2" d="M38.55,21.58l-.43,0a2.06,2.06,0,0,1-1.82-1c-.43-.59-.85-1.32-1.22-1.92-.23-.37-.39-.44-1-.44h-.41V20c0,1,.13,1.05,1.06,1.14v.33H31.64v-.33c1-.1,1-.15,1-1.14V15.37c0-1-.13-1-1-1.12v-.33h3a3.34,3.34,0,0,1,1.87.39,1.77,1.77,0,0,1,.79,1.54,2.15,2.15,0,0,1-1.5,2c.21.37.71,1.15,1,1.67a12.72,12.72,0,0,0,.92,1.2,1.7,1.7,0,0,0,.85.53Zm-4.3-3.78a1.89,1.89,0,0,0,1.28-.34A1.63,1.63,0,0,0,36.17,16a1.56,1.56,0,0,0-1.72-1.7,1.08,1.08,0,0,0-.62.11c-.1.08-.14.2-.14.5V17.8Z" transform="translate(-0.54)"/><path class="cls-2" d="M16.26,11.93H28.91" transform="translate(-0.54)"/><path class="cls-2" d="M25.53,23.67H42.77" transform="translate(-0.54)"/></g></g></svg>