<svg xmlns="http://www.w3.org/2000/svg" viewBox="0 0 51.9 22.5"><defs><style>.cls-1{font-size:4.11px;font-family:Roboto-Regular, Roboto;letter-spacing:0.2em;}.cls-1,.cls-4{fill:#fff;}.cls-2{letter-spacing:0.21em;}.cls-3{fill:#189f49;}.cls-4{stroke:#fff;stroke-miterlimit:10;stroke-width:0.5px;}</style></defs><g id="Layer_2" data-name="Layer 2"><g id="Layer_1-2" data-name="Layer 1"><text class="cls-1" transform="translate(16.94 21.39)">VIL<tspan class="cls-2" x="8.42" y="0">L</tspan><tspan x="11.49" y="0">AS</tspan></text><path class="cls-3" d="M47,5.57a5.14,5.14,0,0,0,2.73-.76,4.4,4.4,0,0,1-2.89.48c.78-1.94,2.89-3.77,4-3A1.18,1.18,0,0,1,51.05,4a.94.94,0,0,0,.22,1.2,1.19,1.19,0,0,1,.37,1.72C50.9,7.92,48.41,7,47,5.57Z"/><path class="cls-3" d="M44.93.83a.94.94,0,0,0,1.2-.22A1.19,1.19,0,0,1,47.85.24c1,.74.14,3.23-1.33,4.66a5.09,5.09,0,0,0-.76-2.72,4.37,4.37,0,0,1,.48,2.88c-1.94-.78-3.77-2.89-3.05-4A1.18,1.18,0,0,1,44.93.83Z"/><path class="cls-3" d="M41.19,4a1.19,1.19,0,0,0,.37,1.72,1,1,0,0,1,.22,1.2A1.17,1.17,0,0,0,42,8.65a1.15,1.15,0,0,0,1,.1,4.69,4.69,0,0,0,2.08-1.61h0A6.34,6.34,0,0,0,46,5.61h0a4.38,4.38,0,0,0-2.88.48,5.14,5.14,0,0,1,2.73-.76C44.42,3.86,41.93,3,41.19,4Z"/><path class="cls-3" d="M47.07,8.72a4.37,4.37,0,0,1-.48-2.88c1.94.78,3.77,2.89,3,4a1.18,1.18,0,0,1-1.74.26.94.94,0,0,0-1.2.22,1.19,1.19,0,0,1-1.72.37c-1-.74-.14-3.23,1.33-4.66A5.09,5.09,0,0,0,47.07,8.72Z"/><path class="cls-3" d="M38,7.44a3.29,3.29,0,0,0,1.77-.5,3,3,0,0,1-1.87.32c.5-1.26,1.88-2.46,2.58-2a.76.76,0,0,1,.17,1.12.61.61,0,0,0,.14.78A.77.77,0,0,1,41,8.3C40.55,9,38.93,8.39,38,7.44Z"/><path class="cls-3" d="M36.67,4.35a.61.61,0,0,0,.78-.14A.76.76,0,0,1,38.56,4c.67.48.09,2.1-.86,3a3.38,3.38,0,0,0-.49-1.77,2.86,2.86,0,0,1,.31,1.87c-1.26-.5-2.45-1.88-2-2.58A.78.78,0,0,1,36.67,4.35Z"/><path class="cls-3" d="M34.24,6.42a.76.76,0,0,0,.24,1.11.61.61,0,0,1,.14.78.74.74,0,0,0,.81,1.19,3,3,0,0,0,1.35-1h0a4,4,0,0,0,.59-1h0a2.86,2.86,0,0,0-1.87.31,3.4,3.4,0,0,1,1.78-.49C36.34,6.33,34.72,5.75,34.24,6.42Z"/><path class="cls-3" d="M38.06,9.49a3,3,0,0,1-.32-1.88c1.26.51,2.46,1.88,2,2.58a.76.76,0,0,1-1.13.17.61.61,0,0,0-.78.14.77.77,0,0,1-1.12.24c-.67-.48-.09-2.1.86-3A3.35,3.35,0,0,0,38.06,9.49Z"/><path class="cls-3" d="M38.67,8.44a8.79,8.79,0,0,1,2.38,6.34H.67a.16.16,0,0,0-.16.16.16.16,0,0,0,.16.16H41.2a.16.16,0,0,0,.16-.14,9.28,9.28,0,0,0-2.68-7S38.54,8.11,38.67,8.44Z"/><text/><path class="cls-4" d="M4,12h.24a2.49,2.49,0,0,1-.57.93,2.07,2.07,0,0,1-1,.52,1.87,1.87,0,0,1-.94,0A2,2,0,0,1,1,13a2.25,2.25,0,0,1-.54-.75,2.56,2.56,0,0,1-.2-.9,2.41,2.41,0,0,1,.16-.92,2.31,2.31,0,0,1,.5-.78,2,2,0,0,1,.78-.49,1.46,1.46,0,0,1,.46-.1h.27l.27,0a2.07,2.07,0,0,1,.76.33A2,2,0,0,1,4,10H4a.19.19,0,0,1-.1.05.17.17,0,0,1-.1,0A.35.35,0,0,1,3.74,10a1.46,1.46,0,0,0-.29-.41,1.22,1.22,0,0,0-.38-.26,1.73,1.73,0,0,0-.44-.14,1.79,1.79,0,0,0-.4,0,1.34,1.34,0,0,0-.4.07,1.21,1.21,0,0,0-.55.4,2,2,0,0,0-.36.74,2.83,2.83,0,0,0-.09.82A3.42,3.42,0,0,0,1,12a2.67,2.67,0,0,0,.44.79,1.84,1.84,0,0,0,.55.45,1.21,1.21,0,0,0,.7.14,2.59,2.59,0,0,0,.51-.18,1.59,1.59,0,0,0,.43-.33,1.68,1.68,0,0,0,.27-.42A2,2,0,0,0,4,12Z"/><path class="cls-4" d="M5.07,13.48l-.1,0a.15.15,0,0,1-.11-.06.12.12,0,0,1-.06-.1.49.49,0,0,1,0-.12V9.32a.17.17,0,0,0-.08-.14.33.33,0,0,0-.17,0h0V9.07H5.3v4.12c0,.06,0,.08.08.08h0l.1,0,.1-.07,0,.05a1.46,1.46,0,0,1-.24.17A.81.81,0,0,1,5.07,13.48Z"/><path class="cls-4" d="M7.29,13.48a1.56,1.56,0,0,1-.57-.11A1.76,1.76,0,0,1,6.23,13a1.39,1.39,0,0,1-.32-.48,1.53,1.53,0,0,1,0-1.14,1.39,1.39,0,0,1,.32-.48,1.76,1.76,0,0,1,.49-.33,1.56,1.56,0,0,1,.57-.11,1.44,1.44,0,0,1,.82.25,1.38,1.38,0,0,1,.31.28,1.43,1.43,0,0,1,.36,1,1.53,1.53,0,0,1-.44,1,1.58,1.58,0,0,1-.48.33A1.56,1.56,0,0,1,7.29,13.48Zm0-.07a.7.7,0,0,0,.46-.19,1.4,1.4,0,0,0,.32-.52A2,2,0,0,0,8.18,12a2.09,2.09,0,0,0-.12-.72,1.44,1.44,0,0,0-.32-.51.7.7,0,0,0-.46-.19.62.62,0,0,0-.46.2,1.44,1.44,0,0,0-.32.51,2.16,2.16,0,0,0,0,1.42,1.28,1.28,0,0,0,.32.51.62.62,0,0,0,.46.2Z"/><path class="cls-4" d="M11.52,10.54h.07l-.21.49-.45,1-.45,1c-.13.28-.19.44-.2.46h0L9,10.77a.27.27,0,0,0-.11-.1l-.14-.05H8.61v-.07h.83l1.06,2.28.18-.41c.11-.22.22-.48.35-.77l.34-.75Z"/><path class="cls-4" d="M13,13.48a1.16,1.16,0,0,1-.45-.08,1.36,1.36,0,0,1-.38-.24,1.55,1.55,0,0,1-.42-.66,1.68,1.68,0,0,1-.07-.5,1.48,1.48,0,0,1,.26-.87,1.24,1.24,0,0,1,.45-.43,1.2,1.2,0,0,1,1.18,0,1.41,1.41,0,0,1,.45.39,1.32,1.32,0,0,1,.24.54h-2a1.85,1.85,0,0,0,0,.23,2,2,0,0,0,.13.72,1.79,1.79,0,0,0,.18.33.91.91,0,0,0,.26.29.6.6,0,0,0,.4.15.76.76,0,0,0,.39-.1.94.94,0,0,0,.33-.3,1.44,1.44,0,0,0,.22-.4h.07A1.63,1.63,0,0,1,14,13l0,0-.07.08a.87.87,0,0,1-.23.19A1.19,1.19,0,0,1,13,13.48Zm.88-1.94a.86.86,0,0,0,0-.16,1.33,1.33,0,0,0,0-.3.5.5,0,0,0-.22-.3.76.76,0,0,0-.22-.11.72.72,0,0,0-.3-.07H13a.78.78,0,0,0-.35.15,1.17,1.17,0,0,0-.27.35,1.64,1.64,0,0,0-.13.43Z"/><path class="cls-4" d="M15,13.48h-.11a.28.28,0,0,1-.12-.08.35.35,0,0,1-.06-.14v-.17s0-.28,0-.76V10.8a.16.16,0,0,0,0-.11c0-.06-.11-.08-.22-.08v-.07h.77V11a.93.93,0,0,1,.48-.36,1.6,1.6,0,0,1,.39,0,2.22,2.22,0,0,1,.79.16.38.38,0,0,1-.08.17.09.09,0,0,1-.07,0h0a1.3,1.3,0,0,1-.23-.14l-.06,0,0,0a.47.47,0,0,0-.17-.09H16l-.23,0h0a.44.44,0,0,0-.16.06.67.67,0,0,0-.24.26,1.21,1.21,0,0,0-.19.54c0,.11,0,.23,0,.36v1.35a.13.13,0,0,0,0,.06l0,0a.37.37,0,0,0,.22-.12l0,.05a1.46,1.46,0,0,1-.24.17A.76.76,0,0,1,15,13.48Z"/><path class="cls-4" d="M21.94,11.42h.38a2.28,2.28,0,0,1-.22.85,2.24,2.24,0,0,1-.52.7,1.89,1.89,0,0,1-.75.44,1.63,1.63,0,0,1-.85.08,2.16,2.16,0,0,1-.79-.3,2.09,2.09,0,0,1-.68-.71,2.38,2.38,0,0,1-.31-.93,2.17,2.17,0,0,1,.08-1,2.23,2.23,0,0,1,.85-1.19,1.78,1.78,0,0,1,.66-.29A1.48,1.48,0,0,1,20.2,9a2.83,2.83,0,0,1,.41,0,1.84,1.84,0,0,1,.76.32A2.24,2.24,0,0,1,22,10h0a.21.21,0,0,1-.11,0,.12.12,0,0,1-.09,0,.15.15,0,0,1-.06-.09,1.46,1.46,0,0,0-.29-.41A1.6,1.6,0,0,0,21,9.26a1.37,1.37,0,0,0-.45-.13,1.33,1.33,0,0,0-.4,0,1.34,1.34,0,0,0-.4.07,1.26,1.26,0,0,0-.54.4,1.91,1.91,0,0,0-.37.74,2.54,2.54,0,0,0-.08.82,3,3,0,0,0,.17.89,2.64,2.64,0,0,0,.43.79,1.92,1.92,0,0,0,.56.46,1.16,1.16,0,0,0,.69.13,2.3,2.3,0,0,0,.35-.1,1.34,1.34,0,0,0,.31-.17,1.43,1.43,0,0,0,.39-.46,2,2,0,0,0,.21-.57,2.6,2.6,0,0,0,.07-.61H20.7v-.07Z"/><path class="cls-4" d="M23.18,13.48h-.12a.28.28,0,0,1-.12-.08.24.24,0,0,1-.05-.14.38.38,0,0,1,0-.1v-.07s0-.28,0-.76V10.8a.12.12,0,0,0,0-.11.23.23,0,0,0-.21-.08v-.07h.77V11a.87.87,0,0,1,.47-.36,1.6,1.6,0,0,1,.39,0,2.22,2.22,0,0,1,.79.16.38.38,0,0,1-.08.17.09.09,0,0,1-.07,0h0a1,1,0,0,1-.24-.14l-.06,0,0,0a.4.4,0,0,0-.17-.09h-.14l-.23,0h0a.52.52,0,0,0-.16.06.76.76,0,0,0-.24.26,1.35,1.35,0,0,0-.19.54c0,.11,0,.23,0,.36v.82c0,.3,0,.46,0,.47a.13.13,0,0,0,0,.06.07.07,0,0,0,0,.06l0,0a.37.37,0,0,0,.22-.12l.05.05a1.46,1.46,0,0,1-.24.17A.75.75,0,0,1,23.18,13.48Z"/><path class="cls-4" d="M26.4,13.48A1.11,1.11,0,0,1,26,13.4a1.28,1.28,0,0,1-.39-.24,1.55,1.55,0,0,1-.42-.66,1.68,1.68,0,0,1-.07-.5,1.48,1.48,0,0,1,.26-.87,1.24,1.24,0,0,1,.45-.43,1.2,1.2,0,0,1,1.18,0,1.41,1.41,0,0,1,.45.39,1.32,1.32,0,0,1,.24.54h-2a1.85,1.85,0,0,0,0,.23,1.78,1.78,0,0,0,.14.72,1.3,1.3,0,0,0,.17.33,1,1,0,0,0,.26.29.6.6,0,0,0,.4.15.76.76,0,0,0,.39-.1.94.94,0,0,0,.33-.3,1.44,1.44,0,0,0,.22-.4h.07a1.63,1.63,0,0,1-.25.47l0,0-.07.08a.87.87,0,0,1-.23.19A1.17,1.17,0,0,1,26.4,13.48Zm.88-1.94a.86.86,0,0,0,0-.16,1.33,1.33,0,0,0-.05-.3.5.5,0,0,0-.22-.3.76.76,0,0,0-.22-.11.72.72,0,0,0-.3-.07h-.06a.69.69,0,0,0-.35.15,1.06,1.06,0,0,0-.28.35,1.64,1.64,0,0,0-.13.43Z"/><path class="cls-4" d="M29.44,13.48A1.11,1.11,0,0,1,29,13.4a1.58,1.58,0,0,1-.39-.24,1.53,1.53,0,0,1-.41-.66,1.42,1.42,0,0,1-.08-.5,1.56,1.56,0,0,1,.26-.87,1.42,1.42,0,0,1,.45-.43,1.17,1.17,0,0,1,.61-.17,1.15,1.15,0,0,1,.57.14,1.45,1.45,0,0,1,.46.39,1.3,1.3,0,0,1,.23.54h-2c0,.08,0,.16,0,.23a2,2,0,0,0,.14.72,1.73,1.73,0,0,0,.17.33,1,1,0,0,0,.26.29.63.63,0,0,0,.41.15.75.75,0,0,0,.38-.1,1.07,1.07,0,0,0,.34-.3,1.71,1.71,0,0,0,.21-.4h.07a1.42,1.42,0,0,1-.25.47v0l-.07.08a1.37,1.37,0,0,1-.23.19A1.22,1.22,0,0,1,29.44,13.48Zm.88-1.94a.86.86,0,0,0,0-.16,1.24,1.24,0,0,0,0-.3.59.59,0,0,0-.22-.3.9.9,0,0,0-.22-.11.72.72,0,0,0-.3-.07h-.07a.73.73,0,0,0-.35.15.92.92,0,0,0-.27.35,1.66,1.66,0,0,0-.14.43Z"/><path class="cls-4" d="M33.33,13.48l-.12,0a.21.21,0,0,1-.12-.08.22.22,0,0,1-.05-.11s0-.06,0-.09v-2c0-.07,0-.14,0-.22a.5.5,0,0,0-.08-.2.26.26,0,0,0-.21-.1h0a.63.63,0,0,0-.3.07,4.6,4.6,0,0,0-.76.4v2.34h-.52V10.76a.12.12,0,0,0,0-.1.32.32,0,0,0-.2-.06h0v-.07h.77v.52a4.75,4.75,0,0,1,.59-.33,2.16,2.16,0,0,1,.64-.2h.3a.4.4,0,0,1,.2.11.36.36,0,0,1,.1.15.84.84,0,0,1,0,.34v2.06c0,.06,0,.09.08.09a.4.4,0,0,0,.23-.11l0,.05a1,1,0,0,1-.24.17A.66.66,0,0,1,33.33,13.48Z"/></g></g></svg>