<svg xmlns="http://www.w3.org/2000/svg" xmlns:xlink="http://www.w3.org/1999/xlink" viewBox="0 0 47.04 25.77"><defs><style>.cls-1{fill:none;}.cls-2{fill:#fff;}.cls-3{clip-path:url(#clip-path);}.cls-4{clip-path:url(#clip-path-2);}.cls-5{fill:#cda97f;}.cls-6{fill:#cca87d;}.cls-7{fill:#cba67d;}.cls-8{fill:#caa57c;}.cls-9{fill:#c9a47b;}.cls-10{fill:#c8a37a;}.cls-11{fill:#c7a179;}.cls-12{fill:#c6a078;}.cls-13{fill:#c59f78;}.cls-14{fill:#c49e77;}.cls-15{fill:#c39d76;}.cls-16{fill:#c29c75;}.cls-17{fill:#c09a74;}.cls-18{fill:#c09973;}.cls-19{fill:#bf9872;}.cls-20{fill:#be9671;}.cls-21{fill:#bd9570;}.cls-22{fill:#bb946f;}.cls-23{fill:#ba936e;}.cls-24{fill:#ba926e;}.cls-25{fill:#b9916d;}.cls-26{fill:#b78f6c;}.cls-27{fill:#b78e6b;}.cls-28{fill:#b58d6a;}.cls-29{fill:#b48c69;}.cls-30{fill:#b48b69;}.cls-31{fill:#b38a68;}.cls-32{fill:#b18967;}.cls-33{fill:#b18866;}.cls-34{fill:#af8765;}.cls-35{fill:#ae8564;}.cls-36{fill:#ac8463;}.cls-37{clip-path:url(#clip-path-3);}.cls-38{clip-path:url(#clip-path-4);}.cls-39{clip-path:url(#clip-path-5);}.cls-40{clip-path:url(#clip-path-6);}.cls-41{clip-path:url(#clip-path-7);}.cls-42{clip-path:url(#clip-path-8);}.cls-43{clip-path:url(#clip-path-9);}</style><clipPath id="clip-path" transform="translate(0 0)"><path class="cls-1" d="M37.81,7.52a4.05,4.05,0,0,0-2.39,1.33,14.94,14.94,0,0,0-1.87,2.75c-.94,1.64-1.83,3.19-3.24,3.19a3.34,3.34,0,0,1-2.07-.87l-.13-.11-.5.63.13.1a4.83,4.83,0,0,0,.75.52,3.57,3.57,0,0,0,1.82.54,3.08,3.08,0,0,0,2.33-1.18A14.53,14.53,0,0,0,34.25,12c1-1.82,2.13-3.71,4.08-3.71h.17V8.12a.61.61,0,0,0-.61-.6h-.08"/></clipPath><clipPath id="clip-path-2" transform="translate(0 0)"><rect class="cls-1" x="27.61" y="7.52" width="10.89" height="8.08"/></clipPath><clipPath id="clip-path-3" transform="translate(0 0)"><path class="cls-1" d="M27.3,0h0A2,2,0,0,0,26.1.66a6.28,6.28,0,0,0-.87,1.28c-.4.69-.77,1.34-1.29,1.34s-.89-.65-1.28-1.34A7.2,7.2,0,0,0,21.79.66,2,2,0,0,0,20.59,0h-.06a.47.47,0,0,0-.31.12.45.45,0,0,0-.16.35V.74h.27c.77,0,1.23.8,1.67,1.58a6.82,6.82,0,0,0,.75,1.12,1.57,1.57,0,0,0,1.19.6h0a1.57,1.57,0,0,0,1.19-.6,6.82,6.82,0,0,0,.75-1.12c.45-.78.91-1.58,1.67-1.58h.28V.46a.44.44,0,0,0-.16-.34A.43.43,0,0,0,27.35,0H27.3"/></clipPath><clipPath id="clip-path-4" transform="translate(0 0)"><rect class="cls-1" x="20.06" width="7.77" height="4.04"/></clipPath><clipPath id="clip-path-5" transform="translate(0 0)"><path class="cls-1" d="M16.79,2.36h-.08A.61.61,0,0,0,16.1,3v.17h.17c2.49,0,4.61,3,6.66,5.92l.49-.69C21.44,5.52,19.37,2.7,16.79,2.36Z"/></clipPath><clipPath id="clip-path-6" transform="translate(0 0)"><path class="cls-1" d="M19.46,10a22.47,22.47,0,0,0-2.71-3.7A5.41,5.41,0,0,0,13.5,4.5h-.07a.61.61,0,0,0-.61.61v.17H13c2.52,0,4.18,2.61,5.79,5.14.47.74.92,1.44,1.38,2.07l.56-.59C20.3,11.3,19.89,10.65,19.46,10Z"/></clipPath><clipPath id="clip-path-7" transform="translate(0 0)"><path class="cls-1" d="M31,2.35H30.9c-2.64.34-4.74,3.27-6.76,6.17h0l-.8,1.12h0l-.42.6h0a23.76,23.76,0,0,1-1.71,2.15h0l-.64.63h0a3.74,3.74,0,0,1-2.43,1.19c-1.41,0-2.3-1.55-3.25-3.19a14.57,14.57,0,0,0-1.86-2.75A4,4,0,0,0,10.65,7h-.07a.59.59,0,0,0-.4.16.58.58,0,0,0-.21.44v.18h.18c1.94,0,3,1.88,4.08,3.71a13.45,13.45,0,0,0,1.6,2.41A3.08,3.08,0,0,0,18.16,15,3.65,3.65,0,0,0,20,14.5a7.77,7.77,0,0,0,1.63-1.34,32.06,32.06,0,0,0,3-3.95c2.09-3,4.24-6.08,6.78-6.08h.16V3A.6.6,0,0,0,31,2.35Z"/></clipPath><clipPath id="clip-path-8" transform="translate(0 0)"><path class="cls-1" d="M25,10.3l-.14-.19-.13.19-.29.4-.07.1.07.1c.4.56,1,1.3,1.52,1.95l.55-.59C26,11.64,25.42,10.91,25,10.3Z"/></clipPath><clipPath id="clip-path-9" transform="translate(0 0)"><path class="cls-1" d="M34.65,4.76h-.07a5.38,5.38,0,0,0-3.25,1.78,22.47,22.47,0,0,0-2.71,3.7c-.55.86-1.07,1.68-1.61,2.38h0l0,0-.07.09h0a8,8,0,0,1-.56.64h0a3,3,0,0,1-2.12,1.12,2.8,2.8,0,0,1-1.92-.92l-.13-.11-.11.12-.32.34-.12.12.12.11a3.56,3.56,0,0,0,2.48,1.14h0c2.11,0,3.54-2.24,5.06-4.62s3.27-5.14,5.79-5.14h.17V5.37A.61.61,0,0,0,34.65,4.76Z"/></clipPath></defs><g id="Layer_2" data-name="Layer 2"><g id="Layer_1-2" data-name="Layer 1"><path class="cls-2" d="M0,23v-.08a2.6,2.6,0,0,1,2.57-2.79,2.61,2.61,0,0,1,1.8.64l-.68.89a1.54,1.54,0,0,0-1.14-.47c-.78,0-1.38.71-1.38,1.73V23c0,1.13.62,1.77,1.43,1.77a1.42,1.42,0,0,0,.82-.23v-1h-1v-1H4.5v2.54a3.17,3.17,0,0,1-2,.68A2.52,2.52,0,0,1,0,23Z" transform="translate(0 0)"/><path class="cls-2" d="M6.41,20.2H8.47a2.09,2.09,0,0,1,1.5.52A1.74,1.74,0,0,1,10.43,22v0a1.65,1.65,0,0,1-1,1.62l1.17,2.05H9.28l-1-1.81H7.55V25.7H6.41Zm2,2.68a.79.79,0,0,0,.89-.82h0c0-.55-.33-.82-.92-.82H7.55v1.65Z" transform="translate(0 0)"/><path class="cls-2" d="M12.28,20.2h3.54v1H13.41v1.18h2.12v1H13.41v1.23h2.44v1H12.28Z" transform="translate(0 0)"/><path class="cls-2" d="M17.27,20.2H18.5L19.67,24l1.16-3.78H22l-1.85,5.53H19.12Z" transform="translate(0 0)"/><path class="cls-2" d="M23.69,20.2h1.14v5.5H23.69Z" transform="translate(0 0)"/><path class="cls-2" d="M26.9,20.2H28v4.45h2.22V25.7H26.9Z" transform="translate(0 0)"/><path class="cls-2" d="M32,20.2H33.1v4.45h2.22V25.7H32Z" transform="translate(0 0)"/><path class="cls-2" d="M37,20.2h3.54v1H38.15v1.18h2.12v1H38.15v1.23h2.44v1H37Z" transform="translate(0 0)"/><path class="cls-2" d="M44,20.17h1.09l2,5.53H45.86l-.41-1.2H43.56l-.4,1.2H42Zm1.13,3.33-.6-1.79L43.9,23.5Z" transform="translate(0 0)"/><g class="cls-3"><g class="cls-4"><path class="cls-5" d="M27.61,7.52v0Z" transform="translate(0 0)"/><rect class="cls-5" x="27.61" y="7.52" width="0.33" height="8.08"/><rect class="cls-5" x="27.94" y="7.52" width="0.33" height="8.08"/><rect class="cls-6" x="28.27" y="7.52" width="0.33" height="8.08"/><rect class="cls-7" x="28.6" y="7.52" width="0.33" height="8.08"/><rect class="cls-8" x="28.93" y="7.52" width="0.33" height="8.08"/><rect class="cls-9" x="29.26" y="7.52" width="0.33" height="8.08"/><rect class="cls-10" x="29.59" y="7.52" width="0.33" height="8.08"/><rect class="cls-11" x="29.92" y="7.52" width="0.33" height="8.08"/><rect class="cls-12" x="30.25" y="7.52" width="0.33" height="8.08"/><rect class="cls-13" x="30.58" y="7.52" width="0.33" height="8.08"/><rect class="cls-14" x="30.91" y="7.52" width="0.33" height="8.08"/><rect class="cls-15" x="31.24" y="7.52" width="0.33" height="8.08"/><rect class="cls-16" x="31.57" y="7.52" width="0.33" height="8.08"/><rect class="cls-17" x="31.9" y="7.52" width="0.33" height="8.08"/><rect class="cls-18" x="32.23" y="7.52" width="0.33" height="8.08"/><rect class="cls-19" x="32.56" y="7.52" width="0.33" height="8.08"/><rect class="cls-20" x="32.89" y="7.52" width="0.33" height="8.08"/><rect class="cls-21" x="33.22" y="7.52" width="0.33" height="8.08"/><rect class="cls-22" x="33.55" y="7.52" width="0.33" height="8.08"/><rect class="cls-23" x="33.88" y="7.52" width="0.33" height="8.08"/><rect class="cls-24" x="34.21" y="7.52" width="0.33" height="8.08"/><rect class="cls-25" x="34.54" y="7.52" width="0.33" height="8.08"/><rect class="cls-26" x="34.87" y="7.52" width="0.33" height="8.08"/><rect class="cls-27" x="35.2" y="7.52" width="0.33" height="8.08"/><rect class="cls-28" x="35.53" y="7.52" width="0.33" height="8.08"/><rect class="cls-29" x="35.86" y="7.52" width="0.33" height="8.08"/><rect class="cls-30" x="36.19" y="7.52" width="0.33" height="8.08"/><rect class="cls-31" x="36.52" y="7.52" width="0.33" height="8.08"/><rect class="cls-32" x="36.85" y="7.52" width="0.33" height="8.08"/><rect class="cls-33" x="37.18" y="7.52" width="0.33" height="8.08"/><rect class="cls-34" x="37.51" y="7.52" width="0.33" height="8.08"/><rect class="cls-35" x="37.84" y="7.52" width="0.33" height="8.08"/><rect class="cls-36" x="38.17" y="7.52" width="0.33" height="8.08"/></g></g><g class="cls-37"><g class="cls-38"><rect class="cls-5" x="20.06" width="0.24" height="4.04"/><rect class="cls-5" x="20.29" width="0.24" height="4.04"/><rect class="cls-6" x="20.53" width="0.24" height="4.04"/><rect class="cls-7" x="20.76" width="0.24" height="4.04"/><rect class="cls-8" x="21" width="0.24" height="4.04"/><rect class="cls-9" x="21.23" width="0.24" height="4.04"/><rect class="cls-10" x="21.47" width="0.24" height="4.04"/><rect class="cls-11" x="21.7" width="0.24" height="4.04"/><rect class="cls-12" x="21.94" width="0.24" height="4.04"/><rect class="cls-13" x="22.18" width="0.24" height="4.04"/><rect class="cls-14" x="22.41" width="0.24" height="4.04"/><rect class="cls-15" x="22.65" width="0.24" height="4.04"/><rect class="cls-16" x="22.88" width="0.24" height="4.04"/><rect class="cls-17" x="23.12" width="0.24" height="4.04"/><rect class="cls-18" x="23.35" width="0.24" height="4.04"/><rect class="cls-19" x="23.59" width="0.24" height="4.04"/><rect class="cls-20" x="23.82" width="0.24" height="4.04"/><rect class="cls-21" x="24.06" width="0.24" height="4.04"/><rect class="cls-22" x="24.3" width="0.24" height="4.04"/><rect class="cls-23" x="24.53" width="0.24" height="4.04"/><rect class="cls-24" x="24.77" width="0.24" height="4.04"/><rect class="cls-25" x="25" width="0.24" height="4.04"/><rect class="cls-26" x="25.24" width="0.24" height="4.04"/><rect class="cls-27" x="25.47" width="0.24" height="4.04"/><rect class="cls-28" x="25.71" width="0.24" height="4.04"/><rect class="cls-29" x="25.94" width="0.24" height="4.04"/><rect class="cls-30" x="26.18" width="0.24" height="4.04"/><rect class="cls-31" x="26.42" width="0.24" height="4.04"/><rect class="cls-32" x="26.65" width="0.24" height="4.04"/><rect class="cls-33" x="26.89" width="0.24" height="4.04"/><rect class="cls-34" x="27.12" width="0.24" height="4.04"/><rect class="cls-35" x="27.36" width="0.24" height="4.04"/><rect class="cls-36" x="27.59" width="0.24" height="4.04"/><path class="cls-36" d="M27.83,4V4Z" transform="translate(0 0)"/></g></g><path class="cls-1" d="M23.35,9.66h0l-.42.6Z" transform="translate(0 0)"/><g class="cls-39"><rect class="cls-13" x="16.1" y="2.35" width="0.41" height="6.7"/><rect class="cls-14" x="16.52" y="2.35" width="0.66" height="6.7"/><rect class="cls-15" x="17.17" y="2.35" width="0.66" height="6.7"/><rect class="cls-16" x="17.83" y="2.35" width="0.66" height="6.7"/><rect class="cls-17" x="18.48" y="2.35" width="0.66" height="6.7"/><rect class="cls-18" x="19.14" y="2.35" width="0.66" height="6.7"/><rect class="cls-19" x="19.79" y="2.35" width="0.66" height="6.7"/><rect class="cls-20" x="20.45" y="2.35" width="0.66" height="6.7"/><rect class="cls-21" x="21.1" y="2.35" width="0.66" height="6.7"/><rect class="cls-22" x="21.76" y="2.35" width="0.66" height="6.7"/><rect class="cls-23" x="22.41" y="2.35" width="0.66" height="6.7"/><rect class="cls-24" x="23.07" y="2.35" width="0.35" height="6.7"/></g><polygon class="cls-2" points="22.93 10.26 22.93 10.26 22.93 10.26 22.93 10.26"/><g class="cls-40"><rect class="cls-8" x="12.82" y="4.49" width="0.42" height="7.99"/><rect class="cls-9" x="13.24" y="4.49" width="0.66" height="7.99"/><rect class="cls-10" x="13.9" y="4.49" width="0.66" height="7.99"/><rect class="cls-11" x="14.55" y="4.49" width="0.66" height="7.99"/><rect class="cls-12" x="15.21" y="4.49" width="0.66" height="7.99"/><rect class="cls-13" x="15.86" y="4.49" width="0.66" height="7.99"/><rect class="cls-14" x="16.52" y="4.49" width="0.66" height="7.99"/><rect class="cls-15" x="17.17" y="4.49" width="0.66" height="7.99"/><rect class="cls-16" x="17.83" y="4.49" width="0.66" height="7.99"/><rect class="cls-17" x="18.48" y="4.49" width="0.66" height="7.99"/><rect class="cls-18" x="19.14" y="4.49" width="0.66" height="7.99"/><rect class="cls-19" x="19.79" y="4.49" width="0.66" height="7.99"/><rect class="cls-20" x="20.45" y="4.49" width="0.27" height="7.99"/></g><g class="cls-41"><rect class="cls-5" x="9.96" y="2.35" width="0.66" height="12.68"/><rect class="cls-5" x="10.62" y="2.35" width="0.66" height="12.68"/><rect class="cls-6" x="11.27" y="2.35" width="0.66" height="12.68"/><rect class="cls-7" x="11.93" y="2.35" width="0.66" height="12.68"/><rect class="cls-8" x="12.59" y="2.35" width="0.66" height="12.68"/><rect class="cls-9" x="13.24" y="2.35" width="0.66" height="12.68"/><rect class="cls-10" x="13.9" y="2.35" width="0.66" height="12.68"/><rect class="cls-11" x="14.55" y="2.35" width="0.66" height="12.68"/><rect class="cls-12" x="15.21" y="2.35" width="0.66" height="12.68"/><rect class="cls-13" x="15.86" y="2.35" width="0.66" height="12.68"/><rect class="cls-14" x="16.52" y="2.35" width="0.66" height="12.68"/><rect class="cls-15" x="17.17" y="2.35" width="0.66" height="12.68"/><rect class="cls-16" x="17.83" y="2.35" width="0.66" height="12.68"/><rect class="cls-17" x="18.48" y="2.35" width="0.66" height="12.68"/><rect class="cls-18" x="19.14" y="2.35" width="0.66" height="12.68"/><rect class="cls-19" x="19.79" y="2.35" width="0.66" height="12.68"/><rect class="cls-20" x="20.45" y="2.35" width="0.66" height="12.68"/><rect class="cls-21" x="21.1" y="2.35" width="0.66" height="12.68"/><rect class="cls-22" x="21.76" y="2.35" width="0.66" height="12.68"/><rect class="cls-23" x="22.41" y="2.35" width="0.66" height="12.68"/><rect class="cls-24" x="23.07" y="2.35" width="0.66" height="12.68"/><rect class="cls-25" x="23.72" y="2.35" width="0.66" height="12.68"/><rect class="cls-26" x="24.38" y="2.35" width="0.66" height="12.68"/><rect class="cls-27" x="25.03" y="2.35" width="0.66" height="12.68"/><rect class="cls-28" x="25.69" y="2.35" width="0.66" height="12.68"/><rect class="cls-29" x="26.34" y="2.35" width="0.66" height="12.68"/><rect class="cls-30" x="27" y="2.35" width="0.66" height="12.68"/><rect class="cls-31" x="27.65" y="2.35" width="0.66" height="12.68"/><rect class="cls-32" x="28.31" y="2.35" width="0.66" height="12.68"/><rect class="cls-33" x="28.96" y="2.35" width="0.66" height="12.68"/><rect class="cls-34" x="29.62" y="2.35" width="0.66" height="12.68"/><rect class="cls-35" x="30.27" y="2.35" width="0.66" height="12.68"/><rect class="cls-36" x="30.93" y="2.35" width="0.66" height="12.68"/><path class="cls-36" d="M31.58,15v0Z" transform="translate(0 0)"/></g><polygon class="cls-1" points="34.65 4.76 34.65 4.76 34.65 4.76 34.65 4.76"/><rect class="cls-1" x="35.26" y="5.37" height="0.17"/><path class="cls-1" d="M26.92,12.74l.07-.09-.07.09Z" transform="translate(0 0)"/><g class="cls-42"><rect class="cls-10" x="24.36" y="10.11" width="0.18" height="2.73"/><rect class="cls-11" x="24.53" y="10.11" width="0.42" height="2.73"/><rect class="cls-12" x="24.96" y="10.11" width="0.42" height="2.73"/><rect class="cls-13" x="25.38" y="10.11" width="0.42" height="2.73"/><rect class="cls-14" x="25.8" y="10.11" width="0.42" height="2.73"/><rect class="cls-15" x="26.22" y="10.11" width="0.28" height="2.73"/></g><g class="cls-43"><rect class="cls-5" x="21.64" y="4.76" width="0.41" height="10.54"/><rect class="cls-5" x="22.05" y="4.76" width="0.41" height="10.54"/><rect class="cls-6" x="22.46" y="4.76" width="0.41" height="10.54"/><rect class="cls-7" x="22.88" y="4.76" width="0.41" height="10.54"/><rect class="cls-8" x="23.29" y="4.76" width="0.41" height="10.54"/><rect class="cls-9" x="23.7" y="4.76" width="0.41" height="10.54"/><rect class="cls-10" x="24.12" y="4.76" width="0.41" height="10.54"/><rect class="cls-11" x="24.53" y="4.76" width="0.41" height="10.54"/><rect class="cls-12" x="24.94" y="4.76" width="0.41" height="10.54"/><rect class="cls-13" x="25.35" y="4.76" width="0.41" height="10.54"/><rect class="cls-14" x="25.77" y="4.76" width="0.41" height="10.54"/><rect class="cls-15" x="26.18" y="4.76" width="0.41" height="10.54"/><rect class="cls-16" x="26.59" y="4.76" width="0.41" height="10.54"/><rect class="cls-17" x="27" y="4.76" width="0.41" height="10.54"/><rect class="cls-18" x="27.42" y="4.76" width="0.41" height="10.54"/><rect class="cls-19" x="27.83" y="4.76" width="0.41" height="10.54"/><rect class="cls-20" x="28.24" y="4.76" width="0.41" height="10.54"/><rect class="cls-21" x="28.66" y="4.76" width="0.41" height="10.54"/><rect class="cls-22" x="29.07" y="4.76" width="0.41" height="10.54"/><rect class="cls-23" x="29.48" y="4.76" width="0.41" height="10.54"/><rect class="cls-24" x="29.89" y="4.76" width="0.41" height="10.54"/><rect class="cls-25" x="30.31" y="4.76" width="0.41" height="10.54"/><rect class="cls-26" x="30.72" y="4.76" width="0.41" height="10.54"/><rect class="cls-27" x="31.13" y="4.76" width="0.41" height="10.54"/><rect class="cls-28" x="31.54" y="4.76" width="0.41" height="10.54"/><rect class="cls-29" x="31.96" y="4.76" width="0.41" height="10.54"/><rect class="cls-30" x="32.37" y="4.76" width="0.41" height="10.54"/><rect class="cls-31" x="32.78" y="4.76" width="0.41" height="10.54"/><rect class="cls-32" x="33.2" y="4.76" width="0.41" height="10.54"/><rect class="cls-33" x="33.61" y="4.76" width="0.41" height="10.54"/><rect class="cls-34" x="34.02" y="4.76" width="0.41" height="10.54"/><rect class="cls-35" x="34.43" y="4.76" width="0.41" height="10.54"/><rect class="cls-36" x="34.85" y="4.76" width="0.41" height="10.54"/><path class="cls-36" d="M35.26,15.3v0Z" transform="translate(0 0)"/></g><path class="cls-2" d="M27,12.63h0l0,0Z" transform="translate(0 0)"/></g></g></svg>