<svg xmlns="http://www.w3.org/2000/svg" viewBox="0 0 38.54 22.33"><defs><style>.cls-1{fill:#90b03d;fill-rule:evenodd;}.cls-2{font-size:11.94px;fill:#fff;font-family:Gotham-Medium, Gotham;font-weight:500;}</style></defs><g id="Layer_2" data-name="Layer 2"><g id="Layer_1-2" data-name="Layer 1"><polygon class="cls-1" points="8.02 9.62 19.46 0.21 30.87 9.16 30.77 9.24 19.41 2.55 11.77 7.29 11.23 7.63 8.02 9.62"/><path class="cls-1" d="M19.17,4.72a1.5,1.5,0,0,1,1.21.55A1.44,1.44,0,0,0,19.54,5a1.15,1.15,0,0,0-1.23,1,1,1,0,0,0,.9.94h0a1.28,1.28,0,0,1-1.41-1.1A1.28,1.28,0,0,1,19.17,4.72Z"/><polygon class="cls-1" points="24.09 4.39 29.43 0 38.54 7.15 38.47 7.22 29.39 1.87 24.67 4.8 24.09 4.39"/><path class="cls-1" d="M29.47,3.26a1,1,0,0,1,.79.36.92.92,0,0,0-.55-.17.76.76,0,0,0-.81.66.71.71,0,0,0,.59.62h0A.85.85,0,0,1,28.56,4,.85.85,0,0,1,29.47,3.26Z"/><polygon class="cls-1" points="14.38 4.5 8.95 0.24 0 7.6 0.08 7.67 9.03 2.11 13.81 4.93 14.38 4.5"/><path class="cls-1" d="M9,3.5a1,1,0,0,0-.79.37,1.06,1.06,0,0,1,.55-.18.76.76,0,0,1,.82.65A.7.7,0,0,1,9,5H9a.85.85,0,0,0,.91-.75A.84.84,0,0,0,9,3.5Z"/><text class="cls-2" transform="translate(1.85 19.06)">OHIA</text></g></g></svg>