<svg xmlns="http://www.w3.org/2000/svg" viewBox="0 0 157.33 68"><defs><style>.cls-1{fill:#edd3ac;}</style></defs><g id="Layer_2" data-name="Layer 2"><g id="Layer_1-2" data-name="Layer 1"><path class="cls-1" d="M7.91,29.82c3.27,0,7.2-1.65,7.2-5.95,0-5.41-5.71-6.5-7.44-7.38C4.68,15,.18,13.89.18,8.07S5.34,0,9.06,0a13.81,13.81,0,0,1,6.57,1.75V3.33A12.47,12.47,0,0,0,9.07,1.59c-3.5,0-6.3,1.93-6.3,5.24s2.12,4.93,5.62,6.5c3,1.33,9.39,2.58,9.39,9.39,0,5.18-4.8,8.69-9.87,8.69A13.34,13.34,0,0,1,0,29.13V27.54C1.65,28.81,3.93,29.82,7.91,29.82Z"/><path class="cls-1" d="M54.52,15.68c0,12.44-10.23,15.4-16.09,15.4s-16.09-3-16.09-15.4C22.34,4.84,30.05.32,38.43.32S54.52,4.84,54.52,15.68Zm-3.44,0C51.08,3.56,43,1.91,38.43,1.91S25.77,3.55,25.77,15.68c0,12.29,7.39,13.81,12.66,13.81S51.08,28,51.08,15.68Z"/><path class="cls-1" d="M82.12.89v18.5c0,7.71-3.87,11.69-11.36,11.69-5.5,0-10.94-2.17-10.94-11.69V.89h3.34v18.5c0,3.33.42,10.11,8.3,10.11,5.33,0,9.07-2.93,9.07-10.53V.89Z"/><path class="cls-1" d="M88,.89h3.35V30.27H88Zm21.5,29.38h-4.4l-13-15.19L106,.89h2.21l-12.65,13Z"/><path class="cls-1" d="M124.33,17.34V30.27H121V17.44L111.5.89h3.86l8.3,14.49L132.34.89h1.85Z"/><path class="cls-1" d="M149,19.25H136.88l-4.9,11h-1.74L143.57.32h.93l12.83,30h-3.6Zm-.68-1.59L143.06,5.37l-5.47,12.29Z"/><path class="cls-1" d="M36.46,67.19,25.93,53.92H23.46V67.19H20.12V37.81H29c2.39,0,9.4.88,9.4,7.34,0,5.91-5,7.84-8.48,8.47L40.69,67.19Zm-13-14.86H26c5.48,0,8.85-1.43,8.85-6.66S32,39.4,27.23,39.4H23.46Z"/><path class="cls-1" d="M77,52.6C77,65,66.79,68,60.93,68S44.84,65,44.84,52.6c0-10.84,7.71-15.36,16.09-15.36S77,41.76,77,52.6Zm-3.43,0c0-12.12-8.12-13.77-12.66-13.77S48.27,40.48,48.27,52.6c0,12.29,7.39,13.81,12.66,13.81S73.59,64.89,73.59,52.6Z"/><path class="cls-1" d="M97.63,56.17H85.5l-4.9,11H78.86L92.19,37.24h.93L106,67.19h-3.6ZM97,54.58,91.68,42.29,86.21,54.58Z"/><path class="cls-1" d="M138,52c0,14.61-13.24,15.19-16.47,15.19H111V37.81h12.14C128.55,37.81,138,39.23,138,52Zm-3.43,0c0-11.44-7.89-12.6-13.2-12.6h-7V65.6h6.5C127.27,65.6,134.57,63.43,134.57,52Z"/></g></g></svg>