<svg width="33" height="24" viewBox="0 0 33 24" fill="none" xmlns="http://www.w3.org/2000/svg">
<path d="M29.1191 10.6616C28.3455 10.6616 27.6774 10.4154 27.0796 9.92313C26.7631 9.67697 26.4818 9.39566 26.2004 9.11434C25.9895 8.90335 25.7785 8.72752 25.5323 8.58686C25.0752 8.30555 24.6532 8.34071 24.2312 8.58686C24.0202 8.72752 23.8092 8.86818 23.6334 9.04401C23.3521 9.32533 23.0356 9.60664 22.7191 9.8528C21.6993 10.6968 20.6092 10.8726 19.3785 10.3803C19.0971 10.2748 18.851 10.099 18.64 9.92313C18.3235 9.64181 18.007 9.36049 17.6906 9.07917C17.5147 8.90335 17.3037 8.72752 17.0928 8.58686C16.6708 8.30555 16.284 8.27038 15.8268 8.51653C15.4752 8.72752 15.1235 9.00884 14.8422 9.29016C14.4554 9.67697 14.0686 10.0286 13.5763 10.2748C12.5565 10.8022 11.5719 10.7671 10.5521 10.2396C10.1301 9.99346 9.77847 9.67697 9.42682 9.32533C9.1455 9.04401 8.86418 8.79785 8.5477 8.58686C8.16088 8.34071 7.77407 8.30554 7.35209 8.51653C7.00044 8.69236 6.71913 8.97368 6.43781 9.21983C6.19165 9.43082 5.98066 9.64181 5.73451 9.8528C4.89055 10.5561 3.9411 10.8374 2.85099 10.5561C2.42902 10.4506 2.0422 10.2396 1.69055 9.99346C1.37407 9.7473 1.05759 9.46599 0.776269 9.18467C0.49495 8.86818 0.459785 8.4462 0.741104 8.12972C1.02242 7.81324 1.47957 7.81324 1.79605 8.09456C2.0422 8.30555 2.25319 8.51653 2.46418 8.72752C2.67517 8.93851 2.92132 9.04401 3.16748 9.11434C3.73011 9.255 4.25759 9.1495 4.71473 8.72752C5.03121 8.48137 5.31253 8.20005 5.59385 7.9539C6.01583 7.56708 6.47297 7.2506 7.00044 7.03961C7.66858 6.79346 8.30154 6.82862 8.93451 7.10994C9.42682 7.32093 9.81363 7.67258 10.1653 8.02423C10.4466 8.27038 10.7279 8.5517 11.0092 8.79785C11.5719 9.255 12.1697 9.29016 12.8026 9.00884C13.295 8.76269 13.6114 8.34071 13.9982 8.02423C14.4906 7.63741 14.9477 7.2506 15.5455 7.03961C16.2488 6.82862 16.8818 6.86379 17.5147 7.21544C17.9367 7.42642 18.3235 7.70774 18.64 8.05939C18.8862 8.34071 19.2026 8.58686 19.484 8.83302C20.0466 9.29016 20.7851 9.32533 21.3829 8.93851C21.7697 8.69236 22.1213 8.34071 22.4378 8.02423C22.8246 7.67258 23.2466 7.35609 23.7037 7.14511C24.5829 6.75829 25.3917 6.82862 26.2004 7.32093C26.6928 7.63741 27.1147 8.02423 27.5367 8.44621C27.818 8.72752 28.1345 9.00884 28.5213 9.11434C29.1191 9.255 29.6466 9.1495 30.1037 8.72752C30.3851 8.4462 30.7015 8.23522 30.9829 7.9539C31.3345 7.60225 31.8268 7.70774 32.073 7.98906C32.3543 8.30554 32.3191 8.76269 32.0026 9.07917C31.651 9.39566 31.2993 9.71214 30.9477 9.99346C30.4906 10.4154 29.8576 10.6616 29.1191 10.6616Z" fill="black"/>
<path d="M29.0136 23.5665C28.3455 23.5665 27.6774 23.3204 27.0795 22.8281C26.7631 22.5819 26.4817 22.3006 26.2004 22.0193C25.9894 21.8083 25.7785 21.6325 25.5323 21.4918C25.0752 21.2105 24.6532 21.2456 24.2312 21.4918C23.9147 21.6676 23.6686 21.9138 23.4224 22.1599C23.1411 22.4413 22.8598 22.6874 22.5433 22.9336C21.5938 23.6369 20.5389 23.7775 19.4136 23.3204C19.0268 23.1797 18.7455 22.9336 18.429 22.6874C18.0422 22.3358 17.6905 21.9489 17.2686 21.6325C16.7059 21.1753 16.2488 21.1753 15.651 21.5973C15.1587 21.9138 14.807 22.3358 14.385 22.7226C13.6817 23.2852 12.9081 23.672 11.9938 23.6017C11.6422 23.5665 11.2905 23.4962 10.9389 23.3555C10.4114 23.1094 9.95427 22.7577 9.56746 22.3358C9.32131 22.0544 9.00482 21.8435 8.72351 21.5973C8.26636 21.2457 7.77405 21.2105 7.28175 21.527C6.96526 21.738 6.64878 21.9841 6.36746 22.2654C5.83999 22.7577 5.31252 23.2149 4.60922 23.461C4.04658 23.6369 3.48394 23.6369 2.92131 23.5314C2.46416 23.4259 2.04219 23.1797 1.65537 22.8984C1.37405 22.6171 1.09273 22.3709 0.846581 22.0896C0.565262 21.8083 0.530097 21.3511 0.811416 21.0347C1.05757 20.7533 1.51471 20.683 1.8312 20.9643C2.07735 21.1753 2.28834 21.4215 2.53449 21.6325C3.20263 22.2303 4.04658 22.2303 4.74988 21.7028C5.10153 21.4215 5.45318 21.105 5.76966 20.7885C6.36746 20.261 7.00043 19.8742 7.80922 19.8039C8.16087 19.7687 8.51252 19.8391 8.829 19.9445C9.39164 20.1555 9.84878 20.5072 10.2708 20.9292C10.5521 21.1753 10.7982 21.4566 11.1147 21.6676C11.6774 22.1248 12.2752 22.1951 12.9433 21.8786C13.4004 21.6325 13.7169 21.2456 14.1037 20.9292C14.6664 20.472 15.229 19.9797 15.9675 19.8391C16.6004 19.6984 17.1982 19.8391 17.7257 20.1555C18.1477 20.4017 18.5345 20.7182 18.851 21.0698C19.0971 21.316 19.3433 21.527 19.6246 21.738C20.1872 22.1951 20.8905 22.1951 21.4883 21.8435C21.9103 21.5621 22.262 21.2105 22.6136 20.8588C23.0356 20.472 23.4927 20.1555 24.0202 19.9445C24.7235 19.6632 25.4268 19.7336 26.0949 20.1204C26.5169 20.3665 26.9037 20.6478 27.2202 20.9643C27.4312 21.1753 27.6422 21.3863 27.8532 21.5621C28.662 22.2654 29.5059 22.2654 30.3147 21.5621C30.596 21.316 30.8774 21.0698 31.1587 20.8237C31.44 20.5775 31.862 20.5775 32.1433 20.8237C32.4246 21.0698 32.4598 21.4566 32.2839 21.7731C32.2136 21.8786 32.1433 21.9489 32.073 22.0193C31.7916 22.2654 31.5455 22.5116 31.2642 22.7577C30.6312 23.25 29.9279 23.5665 29.0136 23.5665Z" fill="black"/>
<path d="M29.0817 17.0979C28.3081 17.0979 27.6399 16.8518 27.0421 16.3243C26.7256 16.0782 26.4443 15.7968 26.163 15.5155C25.952 15.3045 25.7059 15.1287 25.4597 14.9529C25.0377 14.7067 24.6509 14.7771 24.2289 14.9881C23.9828 15.1287 23.7718 15.3045 23.596 15.4804C23.2795 15.7969 22.963 16.0782 22.6113 16.3595C21.6267 17.1331 20.5718 17.2738 19.4113 16.8518C19.0597 16.7111 18.7784 16.5001 18.5322 16.2892C18.0751 15.9023 17.6883 15.4452 17.196 15.0936C16.7037 14.7419 16.2465 14.7067 15.7542 15.0232C15.4377 15.2342 15.1212 15.4804 14.8751 15.7617C14.4531 16.1837 13.9608 16.5705 13.3982 16.8166C12.4487 17.2386 11.4993 17.1683 10.585 16.676C10.163 16.465 9.84651 16.1485 9.53003 15.7968C9.24871 15.5155 8.96739 15.2694 8.65091 15.0232C8.2641 14.7419 7.84212 14.7067 7.38497 14.9529C7.03333 15.1287 6.75201 15.41 6.47069 15.6562C6.22453 15.8672 5.97838 16.1485 5.69706 16.3595C4.71245 17.1331 3.62234 17.3089 2.4619 16.8518C1.79377 16.5705 1.26629 16.0782 0.773986 15.5155C0.527832 15.2342 0.562997 14.7771 0.844316 14.5309C1.12563 14.2496 1.54761 14.2496 1.8641 14.4958C2.07508 14.7067 2.28607 14.9177 2.53223 15.1287C3.23552 15.7617 4.18498 15.7617 4.92344 15.0936C5.27508 14.7771 5.62673 14.4606 5.97838 14.1793C6.47069 13.7573 7.03333 13.4408 7.66629 13.3353C8.12344 13.265 8.58058 13.3353 9.03772 13.5111C9.53003 13.7221 9.91684 14.0386 10.2685 14.3903C10.5498 14.6364 10.796 14.8826 11.0773 15.1287C11.7102 15.7265 12.6245 15.7265 13.3278 15.1639C13.5388 14.9881 13.7498 14.7771 13.9608 14.6012C14.2421 14.3199 14.5586 14.0738 14.9102 13.8276C15.93 13.1595 16.985 13.054 18.0399 13.7925C18.3564 14.0034 18.6377 14.2144 18.8839 14.4958C19.13 14.7771 19.4465 15.0232 19.7278 15.2342C20.2553 15.6562 20.9938 15.6914 21.5916 15.3045C21.9784 15.0584 22.2949 14.7419 22.6465 14.4254C23.0333 14.0386 23.4553 13.7573 23.9476 13.5463C24.7916 13.1595 25.6355 13.2298 26.4443 13.7573C26.8663 14.0386 27.2531 14.3551 27.6048 14.7067C27.8157 14.9529 28.0619 15.1639 28.3432 15.3397C28.941 15.7265 29.785 15.6914 30.4179 15.0936C30.6993 14.8474 30.9806 14.6012 31.2619 14.3199C31.5784 14.0386 32.0707 14.0738 32.3168 14.3551C32.5982 14.6716 32.563 15.1287 32.2465 15.4452C31.93 15.7617 31.5784 16.043 31.2267 16.3243C30.5234 16.8518 29.8553 17.1331 29.0817 17.0979Z" fill="black"/>
<path d="M3.69689 4.19213C2.95843 4.19213 2.2903 3.98114 1.6925 3.52399C1.41118 3.27784 1.12986 3.03169 0.848543 2.75037C0.532059 2.43388 0.532059 1.97674 0.778213 1.69542C1.05953 1.37894 1.51667 1.37894 1.86832 1.66026C2.07931 1.87125 2.2903 2.08224 2.50129 2.25806C3.20459 2.85586 4.01338 2.85586 4.71667 2.29322C5.03316 2.04707 5.34964 1.76575 5.66613 1.48443C6.22876 0.992126 6.82657 0.570148 7.56503 0.464653C8.05733 0.359159 8.54964 0.464653 9.00679 0.675642C9.46393 0.886631 9.81558 1.20311 10.2024 1.5196C10.4485 1.76575 10.7299 1.97674 10.976 2.2229C11.6793 2.89103 12.6288 2.85586 13.3321 2.2229C13.543 2.04707 13.754 1.83608 13.965 1.62509C14.3518 1.30861 14.7387 0.956961 15.1958 0.745972C16.1101 0.288829 17.0244 0.288829 17.9387 0.886631C18.3958 1.20311 18.7826 1.58993 19.2046 1.97674C19.4859 2.22289 19.7672 2.50421 20.154 2.64487C20.7167 2.8207 21.209 2.7152 21.7013 2.36355C22.0529 2.1174 22.3343 1.83608 22.6507 1.5196C23.0727 1.09762 23.565 0.781137 24.1277 0.570148C24.831 0.323994 25.5343 0.359159 26.2024 0.745972C26.6244 0.956961 26.976 1.23828 27.3277 1.58993C27.5387 1.80092 27.7496 2.01191 27.9606 2.18773C28.6991 2.85586 29.5782 2.89103 30.3518 2.25806C30.6332 2.01191 30.9145 1.76575 31.1606 1.5196C31.5123 1.20311 32.0046 1.16795 32.2859 1.5196C32.5672 1.87125 32.5321 2.32839 32.1452 2.64487C31.8639 2.89103 31.5826 3.13718 31.3013 3.38333C30.0705 4.47344 28.2419 4.43828 27.1167 3.4185C26.8002 3.13718 26.5189 2.89103 26.2376 2.60971C26.0266 2.39872 25.7804 2.22289 25.5343 2.08224C25.1123 1.83608 24.7255 1.90641 24.3387 2.15257C24.1277 2.29322 23.9167 2.43388 23.7408 2.60971C23.4244 2.92619 23.0727 3.20751 22.7211 3.48883C21.7365 4.26245 20.6463 4.43828 19.4859 3.98114C19.1343 3.84048 18.8178 3.62949 18.5716 3.38333C18.22 3.06685 17.9035 2.75037 17.5518 2.43388C17.3409 2.25806 17.0947 2.08224 16.8134 1.97674C16.4969 1.87125 16.2156 1.94158 15.9343 2.08224C15.5826 2.25806 15.3013 2.50421 15.02 2.78553C14.6332 3.20751 14.176 3.55916 13.6837 3.84048C12.6639 4.36795 11.6793 4.33279 10.6595 3.80531C10.2376 3.59432 9.92107 3.27784 9.56942 2.92619C9.2881 2.64487 8.97162 2.39872 8.65514 2.15257C8.23316 1.83608 7.81118 1.83608 7.35404 2.08224C7.00239 2.29322 6.72107 2.57454 6.43975 2.8207C6.22876 2.99652 6.01777 3.24268 5.77162 3.4185C5.13865 3.91081 4.47052 4.22729 3.69689 4.19213Z" fill="black"/>
</svg>
