<svg xmlns="http://www.w3.org/2000/svg" xmlns:xlink="http://www.w3.org/1999/xlink" viewBox="0 0 49.21 21.36"><defs><style>.cls-1{fill:none;}.cls-2{fill:#dec87c;}.cls-3{fill:#f7e885;}.cls-4{fill:#f3e0a4;}.cls-5{fill:#ddb926;}.cls-6{fill:#d4e7e5;}.cls-7{fill:#a1b4b3;}.cls-8{fill:#d3e6e4;}.cls-9{fill:#bfd4e6;}.cls-10{fill:#87a1ba;}.cls-11{fill:#657b86;}.cls-12{fill:#a2bed3;}.cls-13{fill:#6b8991;}.cls-14{fill:#8da6aa;}.cls-15{fill:#010101;}.cls-16{clip-path:url(#clip-path);}.cls-17{fill:#8f682a;}.cls-18{clip-path:url(#clip-path-2);}.cls-19{fill:#8f692a;}.cls-20{fill:#91692b;}.cls-21{fill:#916a2b;}.cls-22{fill:#916a2c;}.cls-23{fill:#926b2c;}.cls-24{fill:#926c2d;}.cls-25{fill:#936d2d;}.cls-26{fill:#936e2e;}.cls-27{fill:#946f2f;}.cls-28{fill:#936f2f;}.cls-29{fill:#947030;}.cls-30{fill:#957130;}.cls-31{fill:#967131;}.cls-32{fill:#957232;}.cls-33{fill:#977332;}.cls-34{clip-path:url(#clip-path-3);}.cls-35{fill:#9b7b38;}.cls-36{fill:#9b7c37;}.cls-37{fill:#9b7c39;}.cls-38{fill:#9c7d39;}.cls-39{fill:#9c7f39;}.cls-40{fill:#9d7f3a;}.cls-41{fill:#9d803b;}.cls-42{fill:#9f823c;}.cls-43{fill:#9e823c;}.cls-44{fill:#9f833d;}.cls-45{fill:#a0843e;}.cls-46{fill:#a0853e;}.cls-47{fill:#a2863f;}.cls-48{fill:#a18740;}.cls-49{fill:#a38941;}.cls-50{fill:#a48b42;}.cls-51{fill:#a48b43;}.cls-52{fill:#a58d44;}.cls-53{fill:#a48d44;}.cls-54{fill:#a58e45;}.cls-55{fill:#a68f45;}.cls-56{fill:#a69046;}.cls-57{fill:#a79147;}.cls-58{fill:#a89348;}.cls-59{fill:#a8944a;}.cls-60{fill:#a99549;}.cls-61{fill:#aa974b;}.cls-62{fill:#aa974c;}.cls-63{fill:#ab984d;}.cls-64{fill:#ac9a4d;}.cls-65{fill:#ab9a4e;}.cls-66{fill:#ad9c4e;}.cls-67{fill:#ae9d50;}.cls-68{fill:#ae9e51;}.cls-69{clip-path:url(#clip-path-4);}.cls-70{fill:#beb863;}.cls-71{fill:#beba64;}.cls-72{fill:#bebb65;}.cls-73{fill:#bfbc66;}.cls-74{fill:#beb966;}.cls-75{fill:#bdb865;}.cls-76{fill:#bdb864;}.cls-77{fill:#bcb563;}.cls-78{fill:#bbb462;}.cls-79{fill:#bab362;}.cls-80{fill:#bab262;}.cls-81{fill:#bab160;}.cls-82{fill:#b8af5f;}.cls-83{fill:#b9ad5f;}.cls-84{fill:#b8ad5e;}.cls-85{fill:#b7ac5e;}.cls-86{fill:#b7a95d;}.cls-87{fill:#b6a85c;}.cls-88{fill:#b4a75a;}.cls-89{fill:#b4a55a;}.cls-90{fill:#b3a459;}.cls-91{fill:#b3a359;}.cls-92{fill:#b1a259;}.cls-93{fill:#b1a158;}.cls-94{fill:#b19f58;}.cls-95{fill:#b09e57;}.cls-96{fill:#af9d57;}.cls-97{fill:#af9c56;}.cls-98{fill:#ae9b55;}.cls-99{fill:#ad9a54;}.cls-100{fill:#ad9853;}.cls-101{fill:#ad9754;}.cls-102{fill:#ac9653;}.cls-103{fill:#ab9552;}.cls-104{fill:#ac9452;}.cls-105{fill:#aa9351;}.cls-106{fill:#aa9251;}.cls-107{fill:#a98f50;}.cls-108{fill:#aa8f50;}.cls-109{fill:#b6ac5b;}.cls-110{fill:#b7ad5c;}.cls-111{fill:#b7ae5c;}.cls-112{fill:#b7af5e;}.cls-113{fill:#b9b15f;}.cls-114{fill:#b9b25f;}.cls-115{fill:#bab360;}.cls-116{fill:#bab460;}.cls-117{fill:#bbb561;}.cls-118{fill:#bdb863;}.cls-119{fill:#a98e4f;}.cls-120{fill:#a88d50;}.cls-121{fill:#a78c4f;}.cls-122{fill:#a88c4f;}.cls-123{fill:#a78b4e;}.cls-124{fill:#a6894e;}.cls-125{fill:#a6884d;}.cls-126{fill:#a6874d;}.cls-127{fill:#a4864c;}.cls-128{fill:#a4854c;}.cls-129{fill:#a3844a;}.cls-130{fill:#a3844b;}.cls-131{fill:#a38349;}.cls-132{fill:#a28149;}.cls-133{fill:#a18249;}.cls-134{fill:#a18048;}.cls-135{fill:#a07f47;}.cls-136{fill:#a17f47;}.cls-137{fill:#a07d47;}.cls-138{fill:#a07c46;}.cls-139{fill:#9f7b46;}.cls-140{fill:#9f7b45;}.cls-141{fill:#9f7a45;}.cls-142{fill:#9f7945;}.cls-143{fill:#9d7843;}.cls-144{clip-path:url(#clip-path-5);}.cls-145{fill:#9a7341;}.cls-146{fill:#9b7441;}.cls-147{clip-path:url(#clip-path-6);}</style><clipPath id="clip-path"><path class="cls-1" d="M7.35,11.68v1.48a5.92,5.92,0,0,1-1.43.61,5.83,5.83,0,0,1-1.7.25A4.06,4.06,0,0,1,1.16,12.8,4.28,4.28,0,0,1,0,9.75a4.32,4.32,0,0,1,1.12-3,3.93,3.93,0,0,1,3-1.22,6.09,6.09,0,0,1,1.68.24,4.75,4.75,0,0,1,1.25.49V7.73l-.14,0A1.9,1.9,0,0,0,6,6.26a3.37,3.37,0,0,0-1.87-.5A2.67,2.67,0,0,0,1.83,6.85,4.8,4.8,0,0,0,1,9.74a4.71,4.71,0,0,0,.83,2.9,2.84,2.84,0,0,0,2.42,1.11,2.47,2.47,0,0,0,2.24-1v-.92a5.08,5.08,0,0,0-.15-1.63c-.1-.2-.39-.3-.86-.3l0-.12H8.4l0,.12c-.45,0-.73.11-.85.32A3.93,3.93,0,0,0,7.35,11.68Z"/></clipPath><clipPath id="clip-path-2"><path class="cls-1" d="M9.32,11.1A3.15,3.15,0,0,1,10,9,2.42,2.42,0,0,1,12,8.17a2.52,2.52,0,0,1,2,.84,3,3,0,0,1,.75,2.09A3.1,3.1,0,0,1,14,13.19,2.45,2.45,0,0,1,12,14a2.51,2.51,0,0,1-2-.84A3.06,3.06,0,0,1,9.32,11.1ZM10.69,13a1.49,1.49,0,0,0,1.34.76A1.42,1.42,0,0,0,13.34,13a3.7,3.7,0,0,0,.45-1.93,3.55,3.55,0,0,0-.48-1.94A1.49,1.49,0,0,0,12,8.41a1.43,1.43,0,0,0-1.31.75,3.73,3.73,0,0,0-.45,1.93A3.63,3.63,0,0,0,10.69,13Z"/></clipPath><clipPath id="clip-path-3"><path class="cls-1" d="M17.34,5.16v6.68a5,5,0,0,0,.15,1.62c.1.2.39.3.86.3l0,.14H15.46l0-.14q.72,0,.87-.3a4.92,4.92,0,0,0,.15-1.62V7.3a4.76,4.76,0,0,0-.14-1.59.59.59,0,0,0-.18-.17.66.66,0,0,0-.27-.09h-.43l0-.13A11.28,11.28,0,0,1,17.34,5.16Z"/></clipPath><clipPath id="clip-path-4"><path class="cls-1" d="M22.57,13.61a1.6,1.6,0,0,1-1.12.41,2.06,2.06,0,0,1-1.1-.26,1.71,1.71,0,0,1-.67-.69,3.86,3.86,0,0,1-.48-2A2.86,2.86,0,0,1,20,9a2.81,2.81,0,0,1,2.16-.87,4.09,4.09,0,0,1,1.08.14V7.18A7.72,7.72,0,0,0,23.19,6c0-.21-.1-.34-.19-.39a1.58,1.58,0,0,0-.75-.14l0-.13a10.78,10.78,0,0,1,1.85-.14v6.09A12,12,0,0,0,24.16,13c.06.27.19.4.41.4a1.27,1.27,0,0,0,.53-.16l.06.12-.25.17a3,3,0,0,1-.63.27,2.73,2.73,0,0,1-.91.16,5.92,5.92,0,0,1-.16-1.37A2.17,2.17,0,0,1,22.57,13.61Zm-1.74-.19a1.24,1.24,0,0,0,1.52-.06,1.8,1.8,0,0,0,.53-.76,4.72,4.72,0,0,0,.37-1.84V8.94a1.75,1.75,0,0,0-1.12-.4,1.79,1.79,0,0,0-1,.26,1.63,1.63,0,0,0-.61.69,3.67,3.67,0,0,0-.41,1.69,4.43,4.43,0,0,0,.29,1.61A1.36,1.36,0,0,0,20.83,13.42Z"/></clipPath><clipPath id="clip-path-5"><path class="cls-1" d="M30.67,10.9H26.78v.2A3,3,0,0,0,27.31,13a1.65,1.65,0,0,0,1.33.66,1.81,1.81,0,0,0,1.71-.95l.18.09A2.14,2.14,0,0,1,28.46,14a2.46,2.46,0,0,1-1.83-.77,2.86,2.86,0,0,1-.76-2.08A3.4,3.4,0,0,1,26.54,9a2.19,2.19,0,0,1,1.8-.84,2,2,0,0,1,1.72.76A3,3,0,0,1,30.67,10.9Zm-2.3-2.49A1.25,1.25,0,0,0,27.28,9a3.31,3.31,0,0,0-.48,1.57h3C29.7,9.12,29.24,8.41,28.37,8.41Z"/></clipPath><clipPath id="clip-path-6"><path class="cls-1" d="M33.65,8.17v2.12a3.07,3.07,0,0,1,.59-1.49,1.57,1.57,0,0,1,1.3-.63c1.21,0,1.82.63,1.82,1.9v1.87a4.11,4.11,0,0,0,.16,1.53c.1.19.39.29.84.29l0,.14H35.5l0-.14c.47,0,.76-.1.85-.3a5,5,0,0,0,.14-1.62V10.19A2.42,2.42,0,0,0,36.27,9a.89.89,0,0,0-.81-.41,1.24,1.24,0,0,0-.92.37,2.24,2.24,0,0,0-.54.94,7.45,7.45,0,0,0-.35,2.22,3.91,3.91,0,0,0,.15,1.41c.1.19.38.28.85.28l0,.14h-2.9l0-.14c.47,0,.76-.1.87-.29a4.55,4.55,0,0,0,.15-1.55V11a7.07,7.07,0,0,0-.18-2.15.66.66,0,0,0-.21-.24.75.75,0,0,0-.32-.13l-.47,0,0-.13A15.71,15.71,0,0,1,33.65,8.17Z"/></clipPath></defs><g id="Layer_2" data-name="Layer 2"><g id="Layer_1-2" data-name="Layer 1"><path class="cls-2" d="M48,8.08s0,0,.08,0,.07,0,0-.27c-.18-.54-.28-.54-.4-.59s0-.13-.21-.14-.44,0-.52.06-.11,0-.16.19-.17.07-.13.41-.09.15.06.42-.13.19.24.32.28.21.54.15a.71.71,0,0,0,.4-.17c.13-.09.24,0,.22-.15l0-.13"/><path class="cls-3" d="M47.77,8.1l0,0V8c0-.07,0-.21,0-.24a.58.58,0,0,0,0-.15.21.21,0,0,0-.17-.17s0,0-.11-.07a.36.36,0,0,0-.14,0,.51.51,0,0,0-.14,0c-.06,0-.15,0-.17.1s-.11.1-.12.24a1.29,1.29,0,0,0,0,.48.35.35,0,0,0,.24.21c.07,0,0,0,.13,0s.19,0,.26-.09.08-.06.1-.09,0-.07.06-.09"/><path class="cls-4" d="M45.6,4.43c-.35.4-.07-.06-.19.4s-.29.13-.16.56-.14.32.14.61.31,0,.41.12a.3.3,0,0,0,.48,0c.12-.16.79.1.71-.34s-.17-.38-.22-.51,0-.14-.18-.27-.17-.33-.35-.45a.7.7,0,0,0-.48-.15A.16.16,0,0,0,45.6,4.43Z"/><path class="cls-5" d="M46.38,5.32c-.07-.43-.21-.47-.35-.41s-.1-.2-.28.16-.34.19-.22.43-.16.2.18.25a.94.94,0,0,0,.49,0,1.54,1.54,0,0,0,.37-.13l-.12-.28Z"/><path class="cls-4" d="M46.7,7.86c-.36.4-.08-.05-.2.4s-.29.14-.16.57-.14.32.15.61.31-.06.41.11a.3.3,0,0,0,.48,0c.11-.16.79.09.7-.34a.82.82,0,0,0-.22-.51c-.06-.13,0-.14-.18-.27s-.16-.33-.34-.45a.68.68,0,0,0-.49-.15A.16.16,0,0,0,46.7,7.86Z"/><path class="cls-5" d="M47.48,8.76c-.07-.43-.22-.47-.36-.42s-.09-.19-.28.16-.33.2-.22.44-.16.19.19.25a.82.82,0,0,0,.49,0A1.2,1.2,0,0,0,47.66,9l-.12-.27Z"/><path class="cls-4" d="M44.37,7.9c-.36.41-.08-.05-.2.41s-.29.13-.16.56-.14.32.15.61.31-.05.41.12a.3.3,0,0,0,.48,0c.11-.16.79.1.7-.34a.9.9,0,0,0-.22-.51c-.06-.12,0-.14-.18-.27S45.19,8.12,45,8a.73.73,0,0,0-.49-.15C44.4,7.84,44.37,7.9,44.37,7.9Z"/><path class="cls-5" d="M45.15,8.8c-.07-.43-.22-.47-.36-.41s-.09-.2-.28.16-.33.19-.22.43-.16.2.19.25a1,1,0,0,0,.49,0,1.58,1.58,0,0,0,.36-.13l-.12-.28Z"/><path class="cls-4" d="M45.41,6.07c-.36.4-.07-.05-.2.41s-.29.13-.15.56-.14.32.14.61.31-.06.41.11a.3.3,0,0,0,.48,0c.12-.16.79.09.71-.34a1,1,0,0,0-.23-.51c0-.12,0-.14-.17-.27s-.17-.33-.35-.45A.72.72,0,0,0,45.56,6,.16.16,0,0,0,45.41,6.07Z"/><path class="cls-5" d="M46.19,7c-.07-.43-.22-.47-.35-.41s-.1-.2-.28.16-.34.19-.23.43-.16.2.19.25a.94.94,0,0,0,.49,0,1.58,1.58,0,0,0,.37-.14L46.26,7Z"/><path class="cls-4" d="M44.66,4.73c-.36.4-.14.13-.31.23-.4.25-.29.14-.16.57s-.14.32.15.61.69.19.79.36.09.49.2.33.69-.51.6-.94a.82.82,0,0,0-.22-.51c-.05-.13,0-.15-.18-.27s-.16-.34-.34-.46-.18-.1-.26,0S44.66,4.73,44.66,4.73Z"/><path class="cls-3" d="M47.92,6.82a.25.25,0,0,0,0-.07.4.4,0,0,0,0-.11c0-.11,0-.36,0-.42A.82.82,0,0,0,47.91,6a.5.5,0,0,0-.38-.31c-.13,0-.13-.08-.26-.14a.81.81,0,0,0-.32,0,1.74,1.74,0,0,0-.32,0c-.13,0-.34.06-.37.17s-.24.16-.25.42a1.63,1.63,0,0,0,.12.84.84.84,0,0,0,.57.4c.15,0,0,.08.3,0s.42,0,.58-.13l.21-.16s.09-.13.13-.16"/><path class="cls-4" d="M44.12,5.59c-.36.4-.32,0-.44.48s-.29.14-.16.57-.14.32.15.61.69.2.79.37.09.49.2.33.69-.52.6-1A.82.82,0,0,0,45,6.49c-.06-.12,0-.14-.18-.27s-.16-.33-.34-.45-.25-.35-.33-.27Z"/><path class="cls-4" d="M46,6.81c-.36.4-.31,0-.44.49s-.29.13-.15.56-.15.32.14.61a1.24,1.24,0,0,0,.79.37.56.56,0,0,0,.53-.23c.11-.16.36,0,.28-.39a1,1,0,0,0-.23-.51c-.05-.12,0-.14-.17-.27s-.17-.33-.35-.45-.25-.35-.32-.27Z"/><path class="cls-2" d="M45.58,5.91s.05,0,.08,0,.07,0,0-.27c-.18-.54-.28-.54-.4-.59s0-.13-.21-.14-.44,0-.52.06-.11,0-.16.19-.17.07-.13.41-.09.15.06.42-.13.19.24.32.28.21.54.15a.68.68,0,0,0,.4-.17c.13-.09.24,0,.22-.15l0-.13"/><path class="cls-2" d="M44.73,6.86s0,0,0,0,0,0,0-.18-.17-.34-.25-.37,0-.09-.13-.09-.27,0-.32,0-.07,0-.1.12-.11,0-.08.27-.06.09,0,.26-.08.13.15.21.17.13.34.09a.54.54,0,0,0,.25-.1c.08-.06.15,0,.13-.1V6.94"/><path class="cls-2" d="M46.72,8.1s0,0,.06,0,0,0,0-.23c-.13-.44-.2-.43-.29-.48s0-.11-.15-.11-.32,0-.38.06-.08,0-.12.16-.13.06-.1.34-.07.13,0,.35-.1.16.17.26.19.17.39.12a.6.6,0,0,0,.29-.15c.1-.08.18,0,.17-.13l0-.11"/><path class="cls-4" d="M44.52,7c-.36.4-.31,0-.44.49s-.29.13-.15.56-.14.32.14.61a1.21,1.21,0,0,0,.8.37.54.54,0,0,0,.52-.23c.12-.16.36.05.28-.39s-.17-.38-.22-.51,0-.14-.18-.27-.17-.33-.35-.45-.24-.35-.32-.26Z"/><path class="cls-2" d="M45.25,8.28s0,0,0,0,.05,0,0-.23c-.12-.45-.2-.44-.28-.48s0-.11-.15-.11-.33,0-.38,0-.08,0-.12.16-.13.07-.11.35-.06.12,0,.34-.1.17.17.26.2.17.39.12a.46.46,0,0,0,.29-.14c.1-.08.18,0,.17-.14v-.1"/><path class="cls-2" d="M47.58,6.59s0,0,.07,0,.07,0,0-.21c-.18-.42-.28-.42-.39-.47s0-.1-.2-.11-.42,0-.48,0-.11,0-.15.14-.16.06-.11.32-.08.11.07.32-.12.15.23.26.26.17.51.13a.71.71,0,0,0,.37-.12c.12-.07.22,0,.2-.11l0-.1"/><path class="cls-3" d="M44.86,8a.25.25,0,0,0,0-.07.2.2,0,0,0,0-.11c0-.11,0-.36,0-.43a.85.85,0,0,0-.07-.26.5.5,0,0,0-.38-.31c-.13,0-.13-.08-.26-.14a.81.81,0,0,0-.32-.05,1.74,1.74,0,0,0-.32.05c-.13,0-.34.06-.37.17S43,7,43,7.24a1.63,1.63,0,0,0,.12.84.84.84,0,0,0,.57.4c.16,0,0,.08.3,0s.43,0,.59-.13l.2-.16c.05,0,.09-.13.13-.16"/><path class="cls-2" d="M44.52,7.74s0,0,.07,0,.07,0,0-.21c-.18-.43-.28-.42-.39-.47s0-.1-.2-.11-.41,0-.48,0-.11,0-.15.14-.16.05-.11.32-.08.11.07.32-.12.15.23.26.26.16.51.13a.71.71,0,0,0,.37-.12c.12-.07.22,0,.2-.11l0-.11"/><path class="cls-3" d="M47,9.13a.12.12,0,0,0,0-.05V9c0-.09,0-.27,0-.32a.49.49,0,0,0-.07-.2.5.5,0,0,0-.37-.24c-.11,0-.12-.06-.24-.11a1,1,0,0,0-.3-.05,1.46,1.46,0,0,0-.29,0c-.12,0-.31,0-.34.11s-.22.11-.21.3a1,1,0,0,0,.13.63,1,1,0,0,0,.54.32c.14,0,0,0,.28,0a1.11,1.11,0,0,0,.54-.08l.18-.11s.08-.09.12-.11"/><path class="cls-2" d="M46.7,9s0,0,.07,0,.06,0,0-.16-.28-.32-.38-.35,0-.08-.19-.09a1.33,1.33,0,0,0-.45,0c-.06,0-.09,0-.12.11s-.15,0-.1.23-.07.08.08.24-.11.1.22.19.25.14.47.11a.72.72,0,0,0,.34-.07c.11,0,.21,0,.18-.08l0-.07"/><path class="cls-3" d="M45.35,5.93l0,0v0c0-.07,0-.21,0-.24a.58.58,0,0,0,0-.15.21.21,0,0,0-.17-.17c-.05,0-.05,0-.11-.07a.36.36,0,0,0-.14,0,.51.51,0,0,0-.14,0c-.06,0-.15,0-.17.1s-.11.1-.12.24a1.29,1.29,0,0,0,0,.48.35.35,0,0,0,.24.21c.07,0,0,0,.13,0s.19,0,.27-.09.07-.06.09-.09,0-.07.06-.09"/><path class="cls-3" d="M45.89,7.9l-.06-.27s0-.26-.08-.3-.22.07-.27,0,0-.17-.16-.18a2,2,0,0,0-.53.13s-.24.1-.26.28a.54.54,0,0,0,.13.43c.12.14.05.13.25.29a.46.46,0,0,0,.46.13,1,1,0,0,0,.33-.19C45.76,8.1,45.83,8,45.89,7.9Z"/><path class="cls-2" d="M45.52,7.84s0,0,0,0,0,0,0-.15-.14-.29-.2-.32,0-.07-.1-.07-.22,0-.26,0-.06,0-.08.11-.09,0-.07.23-.05.08,0,.23-.07.11.12.17.14.12.27.08a.37.37,0,0,0,.2-.09c.07-.06.12,0,.11-.09V7.91"/><path class="cls-6" d="M40.52,21.1a.24.24,0,0,1-.3-.12,8,8,0,0,0,.92-1.52l.84-2.2a13.15,13.15,0,0,0,.71-2.52A22.08,22.08,0,0,0,43.82,10,15.27,15.27,0,0,0,42.7,4.29l.25-.1,1,2.21a11.8,11.8,0,0,1-.27,6.71s-1.78,6.15-2.82,8Z"/><path class="cls-7" d="M40.9,21.23s-.32.15-.38-.13a4.81,4.81,0,0,0,1.16-2.22,62.29,62.29,0,0,0,2.17-6.62,12.55,12.55,0,0,0,.25-4.67A14.67,14.67,0,0,0,43.28,5L43,4.19l.35,0a15.29,15.29,0,0,1,1.24,6,23.83,23.83,0,0,1-1.6,6.69A45.49,45.49,0,0,1,40.9,21.23Z"/><path class="cls-8" d="M47.54,11s-.28,0-.26-.13A19.73,19.73,0,0,0,43.4,15.6l-1,2,.86-.58a12.85,12.85,0,0,1,1.57-2.57,11.84,11.84,0,0,1,1.92-2.62S47.43,11.11,47.54,11Z"/><path class="cls-7" d="M47.6,11l-.14,0s-3,3.1-3.75,4.75l-1.36,1.94.86-.58S47.4,11.11,47.6,11Z"/><path class="cls-9" d="M43.25,14.09s.29-.33-.58-.54c0,0-.31,0-.5-1.2a1.75,1.75,0,0,0-1.68-1l-.81.07a2.7,2.7,0,0,0-.82.2l-.36,0s-.17.05-.16.18-.29,1,.26,1.42l.7.48a3.1,3.1,0,0,0,1.86.29,6.39,6.39,0,0,0,.91-.26s.73-.08.94.21Z"/><path class="cls-10" d="M42.33,13.63a6.49,6.49,0,0,0-.26-1.3c-.16-.36-.72-.87-1-.84a7.1,7.1,0,0,0-1.21,0,1.42,1.42,0,0,0-.6.13,2,2,0,0,1-.61.06.3.3,0,0,0-.27.36s-.39,1.37,1.54,1.85A4.73,4.73,0,0,0,42.33,13.63Z"/><path class="cls-11" d="M42.29,13.54s-1.31-.68-1.53-.77a11.44,11.44,0,0,0-1.28-.65l-.93-.4-.08,0,1.91.89,1.48.83.46.14Z"/><path class="cls-11" d="M41.05,13s.59.66-.6.67l-.59,0s-.37,0-.26.15a4.73,4.73,0,0,0,2.73-.19Z"/><path class="cls-11" d="M41.14,13a1.74,1.74,0,0,1,.12-.51.77.77,0,0,0-.17-.7s-.82-.24-1.19.19C39.9,12,39.49,12.42,41.14,13Z"/><path class="cls-9" d="M43.71,11.66s.33-.11-.14-.64c0,0-.19-.14.17-1.07a1.47,1.47,0,0,0-.66-1.43l-.54-.3a1.94,1.94,0,0,0-.6-.21l-.25-.13s-.13,0-.17.06-.6.59-.43,1.14l.25.64a2.33,2.33,0,0,0,1.06,1,5.14,5.14,0,0,0,.69.21s.5.25.51.55Z"/><path class="cls-10" d="M43.32,10.94a5.48,5.48,0,0,0,.37-1,1.34,1.34,0,0,0-.31-1.05,4.45,4.45,0,0,0-.77-.5s-.3-.19-.44-.17A1.25,1.25,0,0,1,41.76,8a.22.22,0,0,0-.32.14s-.81.82.22,2A3.4,3.4,0,0,0,43.32,10.94Z"/><path class="cls-11" d="M43.33,10.86s-.55-1.06-.65-1.22a9.1,9.1,0,0,0-.55-1l-.43-.68h-.06l.85,1.46.59,1.24.24.3Z"/><path class="cls-11" d="M42.76,9.94s.1.74-.65.23l-.37-.27s-.22-.18-.23,0a3.28,3.28,0,0,0,1.81,1Z"/><path class="cls-11" d="M42.82,10a1.39,1.39,0,0,1,.28-.31.71.71,0,0,0,.19-.58s-.43-.52-.83-.37C42.46,8.71,42,8.84,42.82,10Z"/><path class="cls-9" d="M44.39,10.54s-.25-.18.3-.47c0,0,.2-.06.15-.9a1.23,1.23,0,0,1,1-.95l.56-.09a1.72,1.72,0,0,1,.57,0l.25,0s.12,0,.13.1.35.63.06,1l-.4.45a2.09,2.09,0,0,1-1.19.5,5,5,0,0,1-.66,0s-.49.06-.59.29Z"/><path class="cls-10" d="M44.93,10.07a4.7,4.7,0,0,1,0-.93c.05-.28.34-.71.56-.74a4.3,4.3,0,0,1,.8-.19,1,1,0,0,1,.43,0,1.49,1.49,0,0,0,.41-.06.2.2,0,0,1,.24.2s.47.87-.74,1.52A3.24,3.24,0,0,1,44.93,10.07Z"/><path class="cls-11" d="M44.94,10s.77-.68.9-.78a8.17,8.17,0,0,1,.75-.65l.57-.43h.05l-1.13.93-.86.81-.29.17Z"/><path class="cls-11" d="M45.69,9.44s-.29.55.5.36l.39-.11s.24-.09.2.06a3.18,3.18,0,0,1-1.85.32Z"/><path class="cls-11" d="M45.63,9.45a1.21,1.21,0,0,0-.16-.33.54.54,0,0,1,0-.51s.51-.3.82-.06C46.29,8.55,46.64,8.77,45.63,9.45Z"/><path class="cls-9" d="M43.79,7.41S44,7.22,43.46,7c0,0-.19,0-.24-.78a1.1,1.1,0,0,0-1-.71h-.51a1.85,1.85,0,0,0-.51.08H41s-.11,0-.11.1-.23.61.08.91l.41.35a2,2,0,0,0,1.14.29,3.44,3.44,0,0,0,.58-.11s.46,0,.57.19Z"/><path class="cls-10" d="M43.25,7.07a4.21,4.21,0,0,0-.09-.84c-.08-.23-.4-.58-.59-.58a3.57,3.57,0,0,0-.75-.06,1,1,0,0,0-.39,0,1.08,1.08,0,0,1-.38,0,.18.18,0,0,0-.18.21s-.32.84.85,1.25A3,3,0,0,0,43.25,7.07Z"/><path class="cls-11" d="M43.23,7l-.9-.58A7.79,7.79,0,0,0,41.56,6L41,5.64l0,0,1.13.67L43,7l.28.11Z"/><path class="cls-11" d="M42.49,6.61s.33.45-.41.38l-.36,0s-.23,0-.18.08a2.94,2.94,0,0,0,1.71.05Z"/><path class="cls-11" d="M42.54,6.6a1,1,0,0,1,.11-.31.5.5,0,0,0-.07-.45s-.5-.2-.75,0C41.83,5.89,41.55,6.13,42.54,6.6Z"/><path class="cls-2" d="M44.33,3.68s0,0,.05,0,0,0,0-.19-.2-.37-.28-.41,0-.09-.14-.09-.31,0-.37,0-.07,0-.11.13-.12,0-.09.29-.06.1,0,.29-.09.13.17.22.19.15.37.1.19,0,.28-.11.17,0,.15-.11V3.77"/><path class="cls-3" d="M44.17,3.69a0,0,0,0,0,0,0s0,0,0,0,0-.14,0-.16a.34.34,0,0,0,0-.11.14.14,0,0,0-.11-.11s0,0-.08-.06a.19.19,0,0,0-.1,0l-.1,0s-.1,0-.11.07-.08.07-.08.17a.73.73,0,0,0,0,.33.22.22,0,0,0,.17.15c.05,0,0,0,.09,0a.38.38,0,0,0,.18-.06l.07-.07,0-.06"/><path class="cls-4" d="M42.66,1.14c-.25.28,0,0-.13.28s-.21.09-.11.39-.1.22.1.43.21,0,.28.08a.22.22,0,0,0,.34,0c.08-.11.55.06.49-.24a.58.58,0,0,0-.16-.35c0-.09,0-.1-.12-.19s-.12-.23-.24-.32a.53.53,0,0,0-.34-.1A.14.14,0,0,0,42.66,1.14Z"/><path class="cls-5" d="M43.21,1.76c-.05-.3-.15-.32-.25-.28s-.07-.14-.19.11-.24.13-.16.3-.11.13.13.17a.53.53,0,0,0,.34,0A1,1,0,0,0,43.34,2l-.09-.19Z"/><path class="cls-4" d="M43.43,3.53c-.25.28-.06,0-.14.28s-.2.09-.11.39-.1.22.1.43.21,0,.28.08a.22.22,0,0,0,.34,0c.08-.11.55.06.49-.24a.58.58,0,0,0-.16-.35c0-.09,0-.1-.12-.19s-.12-.23-.24-.31a.48.48,0,0,0-.34-.11C43.45,3.49,43.43,3.53,43.43,3.53Z"/><path class="cls-5" d="M44,4.15c0-.3-.15-.32-.25-.28s-.06-.14-.19.11-.24.13-.16.3-.11.13.13.17a.66.66,0,0,0,.34,0,1.39,1.39,0,0,0,.26-.1L44,4.15Z"/><path class="cls-4" d="M41.8,3.56c-.25.28,0,0-.13.28s-.21.09-.11.39-.1.23.1.43.21,0,.28.08a.22.22,0,0,0,.34,0c.08-.11.55.06.49-.24a.58.58,0,0,0-.16-.35c0-.09,0-.1-.12-.19s-.12-.23-.24-.31a.48.48,0,0,0-.34-.11A.14.14,0,0,0,41.8,3.56Z"/><path class="cls-5" d="M42.35,4.18c-.05-.3-.15-.32-.25-.28S42,3.76,41.91,4s-.24.13-.16.3-.11.13.13.17a.66.66,0,0,0,.34,0,.91.91,0,0,0,.26-.1l-.09-.19Z"/><path class="cls-4" d="M42.53,2.29c-.25.27-.05,0-.14.28s-.2.09-.11.39-.1.22.1.42.22,0,.29.08a.2.2,0,0,0,.33,0c.08-.11.55.07.49-.23a.62.62,0,0,0-.15-.36c0-.08,0-.09-.12-.18s-.12-.24-.25-.32-.12-.08-.34-.1A.1.1,0,0,0,42.53,2.29Z"/><path class="cls-5" d="M43.07,2.91c0-.3-.15-.33-.24-.29s-.07-.13-.2.11-.23.14-.15.3-.12.14.13.18a.62.62,0,0,0,.34,0,.89.89,0,0,0,.25-.09l-.08-.19Z"/><path class="cls-4" d="M42,1.35c-.25.28-.09.09-.21.16s-.2.09-.11.39-.1.23.1.43.48.14.56.26.06.34.14.22.47-.35.41-.66-.11-.26-.15-.35,0-.1-.12-.19-.12-.23-.25-.31-.12-.07-.17,0A.38.38,0,0,1,42,1.35Z"/><path class="cls-3" d="M44.28,2.8a.12.12,0,0,0,0,0V2.68a2.51,2.51,0,0,1,0-.3.69.69,0,0,0,0-.18A.33.33,0,0,0,44,2c-.09,0-.09-.06-.18-.1a.46.46,0,0,0-.22,0,1.12,1.12,0,0,0-.22,0c-.1,0-.24,0-.26.11s-.17.12-.17.29a1.08,1.08,0,0,0,.08.59.6.6,0,0,0,.4.28c.1,0,0,0,.21,0a.71.71,0,0,0,.4-.1L44.18,3l.09-.11"/><path class="cls-4" d="M41.63,2c-.25.28-.22,0-.31.34s-.2.09-.1.39-.1.22.1.42.48.14.55.26.06.34.14.23.47-.36.42-.66a.68.68,0,0,0-.16-.36c0-.08,0-.09-.12-.18s-.12-.23-.24-.32-.17-.24-.23-.18Z"/><path class="cls-4" d="M42.94,2.8c-.25.28-.22,0-.31.34s-.2.09-.1.39-.1.22.1.42a.83.83,0,0,0,.55.26.39.39,0,0,0,.36-.16c.08-.11.25,0,.2-.27a.68.68,0,0,0-.16-.36c0-.08,0-.09-.12-.18s-.12-.23-.24-.32-.17-.24-.23-.18Z"/><path class="cls-2" d="M42.65,2.17s0,0,.05,0,0,0,0-.19-.2-.37-.28-.41,0-.09-.15-.09-.31,0-.36,0-.08,0-.11.13-.12.05-.09.29-.06.1,0,.29-.09.13.17.22.19.15.37.1.19,0,.28-.11.17,0,.15-.11V2.26"/><path class="cls-2" d="M42.05,2.83s0,0,0,0,0,0,0-.13-.12-.23-.17-.26,0-.06-.09-.06-.2,0-.23,0,0,0-.07.08-.08,0-.06.19,0,.07,0,.18-.06.09.1.15.12.09.24.06A.3.3,0,0,0,42,3c.06,0,.11,0,.1-.07V2.89"/><path class="cls-2" d="M43.44,3.7s0,0,0,0,0,0,0-.16-.14-.3-.2-.33,0-.08-.11-.08-.22,0-.26,0-.06,0-.08.11-.09,0-.07.24,0,.09,0,.24-.07.12.12.18.14.12.27.09a.36.36,0,0,0,.2-.1c.07-.06.13,0,.12-.1V3.77"/><path class="cls-4" d="M41.91,2.92c-.25.28-.22,0-.3.34s-.21.1-.11.4-.1.22.1.42a.85.85,0,0,0,.55.26.4.4,0,0,0,.37-.16c.08-.12.25,0,.19-.27a.63.63,0,0,0-.16-.36c0-.08,0-.1-.12-.19s-.12-.23-.24-.31S42,2.81,42,2.87Z"/><path class="cls-2" d="M42.41,3.82s0,0,0,0,0,0,0-.16-.14-.3-.2-.34,0-.07-.1-.07-.23,0-.27,0,0,0-.08.11-.09,0-.07.24,0,.09,0,.24-.07.11.12.18.14.12.27.08a.32.32,0,0,0,.21-.1c.06,0,.12,0,.11-.09V3.89"/><path class="cls-2" d="M44,2.64s0,0,.05,0,0,0,0-.15-.2-.29-.27-.32,0-.07-.14-.08a.7.7,0,0,0-.34,0c-.05,0-.07,0-.1.1s-.11,0-.08.22-.05.08,0,.22-.08.11.16.18.19.12.36.09A.4.4,0,0,0,44,2.86c.09,0,.16,0,.14-.08V2.71"/><path class="cls-3" d="M42.15,3.6a.12.12,0,0,0,0-.05V3.48a2.51,2.51,0,0,1,0-.3.69.69,0,0,0,0-.18.33.33,0,0,0-.27-.21c-.08,0-.09-.06-.18-.1a.46.46,0,0,0-.22,0l-.22,0c-.09,0-.24,0-.26.12s-.17.12-.17.29a1.18,1.18,0,0,0,.08.59.62.62,0,0,0,.4.28c.1,0,0,0,.21,0a.64.64,0,0,0,.4-.09l.15-.11s.06-.09.09-.11"/><path class="cls-2" d="M41.91,3.44s0,0,.05,0,0,0,0-.15S41.74,3,41.66,3s0-.07-.14-.08a.71.71,0,0,0-.34,0s-.07,0-.1.1-.11,0-.07.22-.06.08,0,.22-.08.11.17.18.18.12.35.09a.4.4,0,0,0,.25-.08c.09-.05.16,0,.15-.08l0-.07"/><path class="cls-3" d="M43.65,4.41a0,0,0,0,0,0,0v0c0-.07,0-.19,0-.22a.37.37,0,0,0,0-.14.37.37,0,0,0-.26-.17c-.08,0-.08,0-.17-.08a.7.7,0,0,0-.2,0,1.17,1.17,0,0,0-.21,0c-.08,0-.21,0-.23.08s-.15.08-.15.21a.7.7,0,0,0,.09.44.7.7,0,0,0,.38.21c.1,0,0,0,.19,0a.79.79,0,0,0,.38,0l.12-.08a.6.6,0,0,0,.08-.08"/><path class="cls-2" d="M43.43,4.29s0,0,0,0,0,0,0-.11-.19-.22-.26-.25,0,0-.13-.06a.75.75,0,0,0-.31,0s-.07,0-.09.07-.1,0-.06.16-.05,0,0,.16-.08.08.15.14.17.09.33.08a.73.73,0,0,0,.24,0c.07,0,.14,0,.12-.06v0"/><path class="cls-3" d="M42.49,2.18a0,0,0,0,0,0,0v0s0-.14,0-.16,0,0,0-.11a.15.15,0,0,0-.12-.11s0,0-.07-.06a.19.19,0,0,0-.1,0,.27.27,0,0,0-.1,0s-.1,0-.12.07-.07.07-.08.17a.73.73,0,0,0,0,.33.22.22,0,0,0,.17.15s0,0,.09,0a.38.38,0,0,0,.18-.06l.06-.07s0,0,.05-.06"/><path class="cls-3" d="M42.87,3.56l0-.19s0-.18-.06-.21-.15,0-.18,0,0-.11-.11-.12a1.21,1.21,0,0,0-.37.09s-.17.07-.18.19a.34.34,0,0,0,.09.3c.08.1,0,.09.17.2a.3.3,0,0,0,.32.09.63.63,0,0,0,.23-.13A2.31,2.31,0,0,1,42.87,3.56Z"/><path class="cls-2" d="M42.61,3.51h0s0,0,0-.1-.09-.2-.13-.23,0,0-.07,0-.16,0-.19,0,0,0,0,.07-.06,0,0,.16,0,.06,0,.16,0,.08.08.12.09.08.19.06a.3.3,0,0,0,.14-.07s.08,0,.07-.06v0"/><path class="cls-7" d="M46.2,12.73A4.29,4.29,0,0,0,47.77,12l.22.25s-1.31,1.1-2,.88Z"/><path class="cls-8" d="M46.09,12.61a4.29,4.29,0,0,0,1.57-.72l.22.25s-1.31,1.1-2,.88Z"/><path class="cls-7" d="M42.16,17.27a3.81,3.81,0,0,1-1-1.43l-.26.24s.64,1.81,1.25,1.76Z"/><path class="cls-8" d="M42.29,17.16a3.69,3.69,0,0,1-1-1.43l-.26.24s.64,1.81,1.25,1.76Z"/><path class="cls-7" d="M46.26,11.78a2.81,2.81,0,0,1-.07-.94L46,10.75s-.14.85.11,1.19Z"/><path class="cls-8" d="M46.34,11.82a2.55,2.55,0,0,1-.07-.94l-.16-.09s-.15.86.11,1.2Z"/><path class="cls-2" d="M49.17,12.28s0,0,0,0,0,0,0-.11-.11-.22-.16-.24,0,0-.08-.06-.18,0-.21,0,0,0-.07.07-.07,0,0,.17,0,.06,0,.17-.05.08.1.13.11.08.22.06a.24.24,0,0,0,.16-.07s.1,0,.09-.06v-.05"/><path class="cls-3" d="M49.08,12.28h0v0s0-.08,0-.1v-.06A.07.07,0,0,0,49,12s0,0,0,0-.06,0-.06,0h0s-.07,0-.07,0,0,0,0,.1a.59.59,0,0,0,0,.19.16.16,0,0,0,.1.09s0,0,.06,0,.07,0,.1,0l0,0,0,0"/><path class="cls-4" d="M48.2,10.8c-.15.16,0,0-.08.16s-.12,0-.06.23-.06.13,0,.25.13,0,.17,0a.11.11,0,0,0,.19,0c.05-.06.32,0,.29-.14s-.07-.15-.09-.2,0-.06-.07-.11-.07-.14-.14-.18a.3.3,0,0,0-.2-.06S48.2,10.8,48.2,10.8Z"/><path class="cls-5" d="M48.51,11.16c0-.17-.08-.19-.14-.17s0-.08-.11.07-.14.08-.09.17-.07.08.07.11a.34.34,0,0,0,.2,0,.41.41,0,0,0,.15-.05l-.05-.11Z"/><path class="cls-4" d="M48.64,12.19c-.14.16,0,0-.08.16s-.12.05-.06.23-.06.13.06.24.12,0,.16,0a.12.12,0,0,0,.2,0c0-.06.32,0,.28-.14s-.07-.15-.09-.2,0-.06-.07-.11-.07-.14-.14-.18-.07-.05-.2-.06A.06.06,0,0,0,48.64,12.19Z"/><path class="cls-5" d="M49,12.55c0-.17-.09-.19-.15-.17s0-.08-.11.07-.14.08-.09.17-.06.08.08.1a.25.25,0,0,0,.19,0,.41.41,0,0,0,.15-.05L49,12.55Z"/><path class="cls-4" d="M47.7,12.21c-.15.16,0,0-.08.16s-.12.05-.06.23-.06.13,0,.24.13,0,.17.05a.12.12,0,0,0,.19,0c.05-.07.32,0,.29-.14s-.07-.15-.09-.2,0-.06-.07-.11-.07-.14-.14-.19a.36.36,0,0,0-.2-.06S47.7,12.21,47.7,12.21Z"/><path class="cls-5" d="M48,12.57c0-.18-.08-.19-.14-.17s0-.08-.11.06-.14.08-.09.18-.07.08.07.1a.29.29,0,0,0,.2,0,.41.41,0,0,0,.15-.05L48,12.57Z"/><path class="cls-4" d="M48.12,11.46c-.14.17,0,0-.08.17s-.12,0-.06.23-.06.13.06.24.12,0,.16.05.15,0,.2,0,.31,0,.28-.14-.07-.15-.09-.2,0-.06-.07-.11-.07-.14-.14-.19-.07-.05-.2-.06A.09.09,0,0,0,48.12,11.46Z"/><path class="cls-5" d="M48.44,11.83c0-.18-.09-.19-.15-.17s0-.08-.11.06-.14.08-.09.18-.07.08.08.1a.31.31,0,0,0,.19,0,.41.41,0,0,0,.15-.05l0-.11Z"/><path class="cls-4" d="M47.82,10.92c-.15.16-.06.05-.13.09s-.12.06-.06.23-.06.13.06.25.28.08.32.15,0,.2.08.13.28-.21.24-.38-.06-.16-.09-.21,0,0-.07-.11-.07-.13-.14-.18-.07,0-.1,0S47.82,10.92,47.82,10.92Z"/><path class="cls-3" d="M49.14,11.77V11.7s0-.15,0-.18a1,1,0,0,0,0-.11.19.19,0,0,0-.15-.12c-.06,0-.06,0-.11-.06a.43.43,0,0,0-.13,0,.48.48,0,0,0-.13,0s-.13,0-.15.07-.09.07-.1.17a.66.66,0,0,0,0,.34.33.33,0,0,0,.23.16c.06,0,0,0,.12,0s.18,0,.24-.05l.08-.06s0-.06.06-.07"/><path class="cls-4" d="M47.6,11.27c-.15.16-.13,0-.18.19s-.12.06-.06.23-.06.13.06.25.28.08.32.15,0,.2.08.13.27-.21.24-.38-.07-.16-.09-.21,0-.05-.07-.11-.07-.13-.14-.18-.1-.14-.13-.11Z"/><path class="cls-4" d="M48.36,11.76c-.15.16-.13,0-.18.2s-.12,0-.06.23-.06.13.06.24a.44.44,0,0,0,.32.15.23.23,0,0,0,.21-.09c0-.07.15,0,.11-.16s-.07-.15-.09-.2,0-.06-.07-.11-.07-.14-.14-.19-.1-.14-.13-.1Z"/><path class="cls-2" d="M48.19,11.4s0,0,0,0,0,0,0-.11-.12-.22-.17-.24S48,11,48,11a.33.33,0,0,0-.21,0s0,0-.06.08-.08,0-.06.16,0,.06,0,.17-.06.08.09.13.11.09.22.06a.31.31,0,0,0,.16-.06s.1,0,.09-.07v-.05"/><path class="cls-2" d="M47.84,11.78s0,0,0,0,0,0,0-.07-.07-.14-.1-.15,0,0,0,0-.11,0-.13,0,0,0,0,0-.05,0,0,.1,0,0,0,.11,0,0,.06.08.07.06.14,0a.23.23,0,0,0,.1,0s.06,0,0,0v0"/><path class="cls-2" d="M48.65,12.28h0s0,0,0-.09-.09-.18-.12-.19,0,0-.06,0-.13,0-.15,0,0,0-.05.07-.06,0,0,.14,0,.05,0,.14,0,.06.07.1.08.07.16.05.08,0,.12-.06.07,0,.06-.05v0"/><path class="cls-4" d="M47.76,11.84c-.14.16-.13,0-.18.19s-.11.06-.06.23-.06.13.06.25a.54.54,0,0,0,.32.15.22.22,0,0,0,.21-.1c0-.06.15,0,.12-.15a.34.34,0,0,0-.1-.21s0-.06-.07-.11-.06-.13-.14-.18-.1-.14-.13-.11Z"/><path class="cls-2" d="M48.05,12.36s0,0,0,0,0,0,0-.1S48,12.1,48,12.08s0,0-.06,0-.13,0-.15,0,0,0-.05.06,0,0,0,.14,0,.05,0,.14,0,.07.07.11.08.07.16.05L48,12.5s.07,0,.07-.06v0"/><path class="cls-2" d="M49,11.67h0s0,0,0-.08-.11-.17-.16-.19,0,0-.08-.05-.17,0-.19,0,0,0-.06.06-.07,0-.05.13,0,0,0,.13,0,.06.09.1.11.07.21.06a.32.32,0,0,0,.15,0s.09,0,.08-.05v0"/><path class="cls-3" d="M47.9,12.23a0,0,0,0,0,0,0v0c0-.05,0-.15,0-.17s0,0,0-.11a.17.17,0,0,0-.15-.12c-.05,0-.05,0-.1-.06a.28.28,0,0,0-.14,0,.39.39,0,0,0-.12,0c-.06,0-.14,0-.15.06s-.1.07-.1.17a.69.69,0,0,0,0,.35.46.46,0,0,0,.24.16c.06,0,0,0,.12,0s.17,0,.23-.06l.09-.06a.15.15,0,0,1,0-.06"/><path class="cls-2" d="M47.76,12.14s0,0,0,0,0,0,0-.09-.11-.17-.16-.19,0,0-.08,0a.37.37,0,0,0-.19,0s0,0-.06.06-.07,0,0,.12,0,.05,0,.14,0,.05.1.1.1.07.2.05a.24.24,0,0,0,.15-.05s.09,0,.08,0v0"/><path class="cls-3" d="M48.77,12.7v0a0,0,0,0,0,0,0s0-.11,0-.13a.44.44,0,0,0,0-.08.18.18,0,0,0-.15-.09s0,0-.1,0a.39.39,0,0,0-.12,0h-.12c-.05,0-.12,0-.13.05s-.09,0-.09.12a.37.37,0,0,0,.06.25.35.35,0,0,0,.21.13c.06,0,0,0,.12,0s.16,0,.21,0l.08-.05,0,0"/><path class="cls-2" d="M48.64,12.63s0,0,0,0,0,0,0-.07-.11-.13-.15-.14,0,0-.08,0h-.18s0,0-.05,0-.06,0,0,.09,0,0,0,.1,0,0,.09.08.1,0,.2,0a.27.27,0,0,0,.13,0s.09,0,.08,0v0"/><path class="cls-3" d="M48.1,11.4h0v0s0-.08,0-.09a.18.18,0,0,0,0-.06c0-.05,0-.07-.06-.07s0,0,0,0h-.11s-.06,0-.07.05-.05,0-.05.09a.46.46,0,0,0,0,.2.13.13,0,0,0,.1.08s0,0,0,0a.24.24,0,0,0,.1,0l0,0,0,0"/><path class="cls-3" d="M48.32,12.2l0-.11s0-.1,0-.12-.09,0-.11,0,0-.07-.07-.08a.93.93,0,0,0-.21.06s-.1,0-.11.11a.22.22,0,0,0,.06.17c0,.06,0,.06.1.12a.17.17,0,0,0,.19.05.54.54,0,0,0,.13-.07A.5.5,0,0,1,48.32,12.2Z"/><path class="cls-2" d="M48.17,12.18h0s0,0,0-.06S48.12,12,48.1,12s0,0-.05,0S48,12,48,12s0,0,0,0,0,0,0,.09,0,0,0,.1,0,0,.05.07,0,0,.11,0a.15.15,0,0,0,.08,0s0,0,0,0v0"/><path class="cls-2" d="M48.54,10.9h0s0,0,0-.11-.12-.21-.16-.24,0-.05-.09-.05-.18,0-.21,0,0,0-.06.08-.07,0-.06.17,0,.06,0,.16-.06.08.1.13.11.09.21.07.11,0,.16-.07.1,0,.09-.06V11"/><path class="cls-3" d="M48.45,10.91v0s0-.09,0-.1a.07.07,0,0,0,0-.06s0-.07-.06-.07,0,0,0,0h-.05l-.06,0s-.06,0-.07,0,0,0,0,.1a.43.43,0,0,0,0,.19.13.13,0,0,0,.1.08s0,0,.05,0,.08,0,.11,0l0,0,0,0"/><path class="cls-4" d="M47.57,9.42c-.14.17,0,0-.08.17s-.12.05-.06.22-.06.13.06.25.12,0,.16,0,.15.05.2,0,.32,0,.28-.14-.06-.16-.09-.21,0-.05-.07-.11-.07-.13-.14-.18-.07-.05-.2-.06A.09.09,0,0,0,47.57,9.42Z"/><path class="cls-5" d="M47.89,9.79c0-.18-.09-.19-.15-.17s0-.08-.11.06-.14.08-.09.18-.06.08.08.1a.31.31,0,0,0,.19,0l.15,0-.05-.11Z"/><path class="cls-4" d="M48,10.81c-.15.16,0,0-.09.17s-.11,0-.06.22-.06.13.06.25.12,0,.17.05a.12.12,0,0,0,.19,0c.05-.07.32,0,.29-.14a.45.45,0,0,0-.09-.21c0-.05,0-.05-.08-.11s-.06-.13-.14-.18-.07,0-.19-.06S48,10.81,48,10.81Z"/><path class="cls-5" d="M48.33,11.18c0-.18-.09-.19-.14-.17s0-.08-.12.06-.13.08-.09.18-.06.08.08.1a.37.37,0,0,0,.2,0,.81.81,0,0,0,.15-.05l0-.12Z"/><path class="cls-4" d="M47.07,10.83c-.14.16,0,0-.08.16s-.11.06-.06.23-.06.13.06.25.12,0,.16,0a.12.12,0,0,0,.2,0c0-.06.32,0,.28-.13s-.06-.16-.09-.21,0-.06-.07-.11-.07-.13-.14-.18-.07,0-.2-.06A.09.09,0,0,0,47.07,10.83Z"/><path class="cls-5" d="M47.39,11.19c0-.17-.09-.19-.14-.16s0-.08-.12.06-.14.08-.09.18-.06.07.08.1a.43.43,0,0,0,.19,0,.62.62,0,0,0,.15-.06l-.05-.11Z"/><path class="cls-4" d="M47.49,10.09c-.14.16,0,0-.08.16s-.11.06-.06.23-.06.13.06.25.12,0,.16,0a.12.12,0,0,0,.2,0c0-.06.32,0,.28-.13s-.06-.16-.09-.21,0-.06-.07-.11-.07-.13-.14-.18-.07-.05-.19-.06A.07.07,0,0,0,47.49,10.09Z"/><path class="cls-5" d="M47.81,10.45c0-.17-.09-.19-.14-.17s0-.07-.12.07-.13.08-.09.18-.06.07.08.1a.51.51,0,0,0,.2,0,.69.69,0,0,0,.14-.06l0-.11Z"/><path class="cls-4" d="M47.19,9.55c-.15.16-.06,0-.12.09s-.12,0-.07.23,0,.13.06.24.28.09.32.15,0,.2.08.14.28-.21.25-.39a.44.44,0,0,0-.09-.2c0-.05,0-.06-.08-.11s-.06-.14-.14-.18-.07,0-.1,0A.24.24,0,0,1,47.19,9.55Z"/><path class="cls-3" d="M48.51,10.39a0,0,0,0,0,0,0v0c0-.05,0-.15,0-.17s0,0,0-.11a.17.17,0,0,0-.15-.12c-.05,0-.05,0-.1-.06a.28.28,0,0,0-.14,0,.39.39,0,0,0-.12,0c-.06,0-.14,0-.15.07s-.1.06-.1.16a.69.69,0,0,0,0,.35.4.4,0,0,0,.24.16c.06,0,0,0,.12,0s.17,0,.23-.06l.09-.06a.15.15,0,0,1,0-.06"/><path class="cls-4" d="M47,9.89c-.14.16-.13,0-.18.2s-.11.05-.06.23-.06.13.06.24.28.09.32.15,0,.2.08.14.28-.21.24-.39a.29.29,0,0,0-.09-.2s0-.06-.07-.11S47.2,10,47.13,10,47,9.82,47,9.86Z"/><path class="cls-4" d="M47.73,10.39c-.14.16-.12,0-.17.19s-.12.06-.07.23-.06.13.06.25a.5.5,0,0,0,.32.15.2.2,0,0,0,.21-.1c.05-.06.15,0,.12-.15a.45.45,0,0,0-.09-.21c0-.05,0-.06-.08-.11s-.06-.13-.14-.18-.1-.14-.13-.11Z"/><path class="cls-2" d="M47.56,10s0,0,0,0,0,0,0-.12-.12-.21-.16-.23,0-.06-.09-.06-.18,0-.21,0,0,0-.06.08-.07,0-.05.17,0,.06,0,.17-.05.08.1.13.11.08.21.06.11,0,.16-.07.1,0,.09-.06v-.05"/><path class="cls-2" d="M47.22,10.41h0s0,0,0-.08-.07-.13-.1-.15,0,0-.06,0-.11,0-.13,0,0,0,0,.05,0,0,0,.11,0,0,0,.11,0,.05.06.08.07.05.14,0l.1,0s.06,0,.06,0v0"/><path class="cls-2" d="M48,10.91h0s0,0,0-.09-.08-.18-.12-.2,0,0-.06,0-.13,0-.15,0,0,0-.05.06,0,0,0,.14,0,.06,0,.14,0,.07.07.11.08.07.16,0l.12-.06s.07,0,.07-.06v0"/><path class="cls-4" d="M47.13,10.46c-.14.16-.12,0-.17.2s-.12.05-.07.23,0,.13.06.24a.46.46,0,0,0,.32.15.24.24,0,0,0,.22-.09c0-.07.14,0,.11-.16s-.07-.15-.09-.2,0-.06-.07-.11-.07-.14-.14-.19-.1-.14-.13-.1Z"/><path class="cls-2" d="M47.43,11h0s0,0,0-.09-.08-.18-.11-.2,0,0-.06,0a.37.37,0,0,0-.16,0s0,0,0,.07-.05,0,0,.14,0,0,0,.14,0,.06.07.1.08.07.15,0a.22.22,0,0,0,.12-.06s.07,0,.07,0V11"/><path class="cls-2" d="M48.37,10.3s0,0,0,0,0,0,0-.09-.11-.17-.15-.19,0,0-.09,0A.37.37,0,0,0,48,10s0,0-.06.06-.07,0,0,.12,0,.05,0,.14,0,.06.1.1.1.07.2.05a.24.24,0,0,0,.15-.05s.09,0,.08,0v0"/><path class="cls-3" d="M47.27,10.86a0,0,0,0,0,0,0,0,0,0,0,0,0-.05s0-.14,0-.17a.62.62,0,0,0,0-.11.21.21,0,0,0-.16-.12s0,0-.1-.06a.43.43,0,0,0-.13,0,.48.48,0,0,0-.13,0s-.14,0-.15.07-.1.07-.1.17a.67.67,0,0,0,0,.34.33.33,0,0,0,.23.16c.06,0,0,0,.12,0s.17,0,.24-.05l.08-.06.05-.07"/><path class="cls-2" d="M47.13,10.76s0,0,0,0,0,0,0-.08S47,10.52,47,10.5s0,0-.08-.05a.6.6,0,0,0-.2,0s0,0-.06.06-.06,0,0,.13,0,0,0,.13,0,.06.09.1.11.07.21.06.1,0,.14,0,.1,0,.09-.05v0"/><path class="cls-3" d="M48.15,11.33v-.05s0-.11,0-.13,0,0,0-.08A.19.19,0,0,0,48,11s0,0-.09-.05l-.12,0-.12,0s-.13,0-.14,0-.09,0-.09.12a.5.5,0,0,0,.06.26.43.43,0,0,0,.22.13s0,0,.11,0a.45.45,0,0,0,.22,0l.07,0,0-.05"/><path class="cls-2" d="M48,11.25h0s0,0,0-.06-.11-.13-.16-.15,0,0-.07,0-.16,0-.18,0,0,0,0,0-.07,0,0,.09,0,0,0,.1-.05,0,.09.08.1.05.19.05a.49.49,0,0,0,.13,0c.05,0,.09,0,.08,0v0"/><path class="cls-3" d="M47.47,10v0s0-.08,0-.1,0,0,0-.06a.1.1,0,0,0-.07-.06l0,0h-.12s-.06,0-.07,0,0,0,0,.1a.31.31,0,0,0,0,.19.14.14,0,0,0,.1.09h0c.06,0,.08,0,.11,0l0,0,0,0"/><path class="cls-3" d="M47.69,10.83l0-.11s0-.1,0-.12-.09,0-.11,0,0-.07-.06-.07a.64.64,0,0,0-.22.05s-.1,0-.1.11a.2.2,0,0,0,0,.18c.05.06,0,.05.1.12a.19.19,0,0,0,.19,0,.41.41,0,0,0,.13-.08S47.66,10.86,47.69,10.83Z"/><path class="cls-2" d="M47.54,10.8s0,0,0,0,0,0,0-.06-.06-.12-.08-.13,0,0,0,0h-.11s0,0,0,.05,0,0,0,.09,0,0,0,.09,0,.05,0,.07,0,0,.11,0l.08,0s.05,0,.05,0v0"/><path class="cls-2" d="M46.83,10.88s0,0,0,0,0,0,0-.07-.08-.14-.11-.15,0,0,0,0a.18.18,0,0,0-.13,0s0,0,0,0,0,0,0,.1,0,0,0,.11,0,.05.06.08.07,0,.14,0l.1,0s.06,0,.06,0v0"/><path class="cls-3" d="M46.77,10.89h0v0s0,0,0-.06,0,0,0,0,0,0,0,0l0,0h-.07s0,0,0,0,0,0,0,.06,0,.09,0,.12a.09.09,0,0,0,.06.06h0s.05,0,.07,0l0,0,0,0"/><path class="cls-4" d="M46.22,10c-.09.1,0,0,0,.1s-.08,0,0,.15,0,.08,0,.15.08,0,.11,0,.09,0,.12,0,.2,0,.18-.09,0-.1-.06-.13,0,0,0-.07,0-.08-.09-.11a.21.21,0,0,0-.12,0Z"/><path class="cls-5" d="M46.42,10.18c0-.11-.06-.12-.09-.1s0-.05-.08,0-.08.05,0,.11,0,0,0,.06a.23.23,0,0,0,.13,0,.22.22,0,0,0,.09,0l0-.07Z"/><path class="cls-4" d="M46.5,10.83c-.1.1,0,0-.06.1s-.07,0,0,.14,0,.08,0,.16.08,0,.11,0,.09,0,.12,0,.2,0,.18-.09,0-.09-.06-.13,0,0,0-.06,0-.09-.09-.12a.22.22,0,0,0-.13,0S46.5,10.83,46.5,10.83Z"/><path class="cls-5" d="M46.69,11.05c0-.11,0-.11-.09-.1s0,0-.07,0-.08,0-.05.11,0,.05,0,.06a.26.26,0,0,0,.13,0l.09,0,0-.07Z"/><path class="cls-4" d="M45.9,10.84c-.09.1,0,0,0,.1s-.07,0,0,.14,0,.09,0,.16.08,0,.1,0a.09.09,0,0,0,.13,0s.2,0,.18-.09,0-.09-.06-.12,0,0-.05-.07,0-.09-.09-.12,0,0-.12,0A0,0,0,0,0,45.9,10.84Z"/><path class="cls-5" d="M46.1,11.07c0-.11-.05-.12-.09-.11s0-.05-.07,0-.09.05-.06.11,0,.05,0,.07a.28.28,0,0,0,.12,0,.29.29,0,0,0,.1,0l0-.07Z"/><path class="cls-4" d="M46.17,10.37c-.09.1,0,0-.05.1s-.08,0,0,.15,0,.08,0,.15.08,0,.11,0a.07.07,0,0,0,.12,0c0-.05.2,0,.18-.09s0-.1-.06-.13,0,0,0-.07,0-.08-.09-.11a.16.16,0,0,0-.12,0Z"/><path class="cls-5" d="M46.37,10.6c0-.11-.06-.12-.09-.11s0-.05-.08,0-.08.05-.05.12,0,0,.05.06a.2.2,0,0,0,.12,0,.22.22,0,0,0,.09,0l0-.07Z"/><path class="cls-4" d="M46,10c-.1.1,0,0-.08.06s-.08,0,0,.14,0,.08,0,.16.18,0,.21.09,0,.13,0,.08.17-.13.15-.24,0-.09-.06-.13,0,0,0-.06,0-.09-.09-.12,0,0-.06,0A.12.12,0,0,1,46,10Z"/><path class="cls-3" d="M46.81,10.56v0s0,0,0,0,0-.1,0-.11,0,0,0-.07a.1.1,0,0,0-.09-.08s0,0-.07,0a.17.17,0,0,0-.16,0s-.09,0-.1,0-.06,0-.06.1a.41.41,0,0,0,0,.22.22.22,0,0,0,.15.1s0,0,.07,0,.11,0,.15,0l.05,0,0,0"/><path class="cls-4" d="M45.84,10.25c-.09.1-.08,0-.11.12s-.08,0,0,.15,0,.08,0,.15.18.05.21.09,0,.13,0,.09.17-.13.15-.24,0-.1-.06-.13,0,0,0-.07,0-.09-.09-.12-.06-.09-.08-.06Z"/><path class="cls-4" d="M46.32,10.56c-.09.1-.08,0-.11.12s-.08,0,0,.15,0,.08,0,.15a.4.4,0,0,0,.21.1.15.15,0,0,0,.13-.06s.09,0,.07-.1,0-.1-.06-.13,0,0,0-.07,0-.09-.09-.12-.06-.08-.08-.06Z"/><path class="cls-2" d="M46.21,10.33h0s0,0,0-.07-.07-.14-.1-.15,0,0,0,0-.12,0-.14,0,0,0,0,.05,0,0,0,.1,0,0,0,.11,0,.05.06.08.07.05.13,0l.1,0s.07,0,.06,0v0"/><path class="cls-2" d="M46,10.57h0s0,0,0-.05,0-.08-.06-.09,0,0,0,0h-.08s0,0,0,0,0,0,0,.07,0,0,0,.07,0,0,0,.05,0,0,.09,0a.16.16,0,0,0,.06,0s0,0,0,0v0"/><path class="cls-2" d="M46.5,10.89h0s0,0,0-.06,0-.11-.07-.12,0,0,0,0a.15.15,0,0,0-.1,0s0,0,0,0,0,0,0,.09,0,0,0,.09,0,0,0,.06.05,0,.1,0,.05,0,.07,0,.05,0,.05,0v0"/><path class="cls-4" d="M45.94,10.6c-.09.11-.08,0-.11.13s-.07,0,0,.14,0,.08,0,.16a.29.29,0,0,0,.2.09.13.13,0,0,0,.13-.06s.09,0,.07-.1,0-.09,0-.13,0,0,0-.06,0-.09-.09-.12-.06-.09-.08-.07Z"/><path class="cls-2" d="M46.13,10.93h0s0,0,0-.06-.05-.11-.07-.12,0,0,0,0h-.09s0,0,0,0,0,0,0,.08,0,0,0,.09,0,0,0,.07,0,0,.1,0l.08,0s0,0,0,0v0"/><path class="cls-2" d="M46.72,10.5h0s0,0,0-.06-.07-.1-.1-.11,0,0-.05,0h-.13s0,0,0,0,0,0,0,.08,0,0,0,.08,0,0,.06.07.06,0,.12,0,.07,0,.1,0,.06,0,.05,0v0"/><path class="cls-3" d="M46,10.85v0s0-.09,0-.11a.26.26,0,0,0,0-.07.15.15,0,0,0-.1-.08s0,0-.07,0a.17.17,0,0,0-.08,0l-.08,0s-.09,0-.09,0-.07,0-.07.11a.39.39,0,0,0,0,.21.22.22,0,0,0,.15.1s0,0,.07,0,.11,0,.15,0l.05,0,0,0"/><path class="cls-2" d="M45.94,10.79h0s0,0,0-.05-.07-.11-.1-.12,0,0-.05,0-.11,0-.12,0,0,0,0,0,0,0,0,.08,0,0,0,.09,0,0,.06.06.06,0,.13,0,.06,0,.09,0,.06,0,.05,0v0"/><path class="cls-3" d="M46.58,11.15h0v0s0-.07,0-.08,0,0,0,0a.11.11,0,0,0-.09-.06l-.07,0a.14.14,0,0,0-.07,0h-.08s-.08,0-.08,0-.06,0-.06.08a.24.24,0,0,0,0,.16.34.34,0,0,0,.14.08h.07c.07,0,.1,0,.13,0l0,0,0,0"/><path class="cls-2" d="M46.5,11.1h0s0,0,0,0-.07-.08-.09-.09,0,0,0,0a.24.24,0,0,0-.12,0s0,0,0,0,0,0,0,.06,0,0,0,.06,0,0,0,.05.07,0,.12,0a.17.17,0,0,0,.09,0s.05,0,.05,0v0"/><path class="cls-3" d="M46.15,10.33h0v-.1a.05.05,0,0,0,0,0l0,0H46s0,0,0,0,0,0,0,.06a.45.45,0,0,0,0,.12.12.12,0,0,0,.06.05h0l.06,0,0,0v0"/><path class="cls-3" d="M46.29,10.84l0-.07s0-.07,0-.08,0,0-.06,0,0,0,0,0a.32.32,0,0,0-.14,0s-.06,0-.07.07a.17.17,0,0,0,0,.11s0,0,.06.07a.13.13,0,0,0,.12,0l.08-.05Z"/><path class="cls-2" d="M46.2,10.82h0s0,0,0,0,0-.08-.05-.09h-.09s0,0,0,0,0,0,0,.06,0,0,0,.06,0,0,0,0,0,0,.07,0l0,0,0,0v0"/><path class="cls-12" d="M46.7,15s0-.16-.61-.59c0,0-.44-.59-.57-.81a3.8,3.8,0,0,0-1.64-1.16s-.3.06,0,.7a3.58,3.58,0,0,1,.7,1.23,8,8,0,0,1,.06,1.06s-.08,1.11.61,1.14a1.57,1.57,0,0,0,1.34-.91A.89.89,0,0,0,46.7,15Z"/><path class="cls-13" d="M45.61,13.87s0,0,.4.53c0,0,1,.51.54,1.17a4.57,4.57,0,0,1-1,.85s.82-.63.95-1.13C46.47,15.29,46.58,15,45.61,13.87Z"/><path class="cls-10" d="M45.29,16.38s-.4.06-.43-.94c0,0,0-1.32-.33-1.57,0,0,0-.7.48-.36a.85.85,0,0,1,.57,1.05Z"/><path class="cls-14" d="M45.29,16.38s.2-.69.29-1.2A2.05,2.05,0,0,0,44,12.47s-.07-.1-.06.11a4.12,4.12,0,0,1,1.21.75s.55.33.25,2.11A2.44,2.44,0,0,0,45.29,16.38Z"/><path class="cls-13" d="M45.52,14.29s-.78-.77-1-.42c0,0-1-1.33-.55-1.29C44,12.58,45.61,12.94,45.52,14.29Z"/><path class="cls-2" d="M42,16s0,0,0,0,0,0,0-.13-.14-.26-.19-.29,0-.06-.11-.07-.21,0-.25,0,0,0-.08.09-.08,0-.06.21,0,.07,0,.2-.07.1.12.16.13.1.26.07.13,0,.19-.08.12,0,.11-.08v-.06"/><path class="cls-3" d="M41.93,16V16s0-.1,0-.12a.26.26,0,0,0,0-.07c0-.06-.06-.08-.08-.08s0,0-.06,0-.07,0-.07,0h-.06s-.08,0-.09.05,0,0,0,.12a.49.49,0,0,0,0,.24.18.18,0,0,0,.12.1s0,0,.07,0,.09,0,.12,0l0,0,0,0"/><path class="cls-4" d="M40.87,14.23c-.17.2,0,0-.09.2s-.15.06-.08.27-.07.16.07.3.15,0,.2.06a.15.15,0,0,0,.23,0c.06-.08.39,0,.35-.17a.42.42,0,0,0-.11-.25c0-.06,0-.07-.09-.13s-.08-.16-.17-.22-.09-.06-.23-.07S40.87,14.23,40.87,14.23Z"/><path class="cls-5" d="M41.25,14.67c0-.21-.1-.23-.17-.2s0-.1-.14.08-.16.09-.11.21-.07.09.1.12a.36.36,0,0,0,.23,0,.72.72,0,0,0,.18-.07l-.06-.13Z"/><path class="cls-4" d="M41.41,15.91c-.18.2,0,0-.1.2s-.14.06-.08.27-.07.16.07.3.15,0,.2.06.18.06.24,0,.38.05.34-.16a.42.42,0,0,0-.11-.25c0-.06,0-.07-.08-.13s-.08-.16-.17-.22a.38.38,0,0,0-.24-.08C41.42,15.88,41.41,15.91,41.41,15.91Z"/><path class="cls-5" d="M41.79,16.35c0-.21-.11-.23-.17-.2s0-.1-.14.07-.17.1-.11.22-.08.09.09.12a.52.52,0,0,0,.24,0,.72.72,0,0,0,.18-.07l-.06-.13Z"/><path class="cls-4" d="M40.27,15.93c-.18.2,0,0-.1.2s-.14.06-.07.27-.07.16.07.3.15,0,.2.06a.15.15,0,0,0,.23,0c.06-.08.39,0,.35-.17s-.09-.19-.11-.25,0-.07-.09-.13-.08-.16-.17-.22-.09-.06-.24-.07A.07.07,0,0,0,40.27,15.93Z"/><path class="cls-5" d="M40.65,16.37c0-.21-.11-.23-.17-.2s0-.1-.14.08-.17.09-.11.21-.08.09.09.12a.4.4,0,0,0,.24,0,.72.72,0,0,0,.18-.07l-.06-.13Z"/><path class="cls-4" d="M40.78,15c-.18.19,0,0-.1.19s-.14.07-.08.28-.06.16.07.3.16,0,.21,0,.17.07.23,0,.39.05.35-.16-.09-.19-.11-.25,0-.07-.09-.14-.08-.16-.17-.22a.38.38,0,0,0-.24-.07A.08.08,0,0,0,40.78,15Z"/><path class="cls-5" d="M41.16,15.48c0-.22-.11-.23-.17-.21s-.05-.09-.14.08-.17.1-.11.21-.08.1.09.13a.47.47,0,0,0,.24,0,.51.51,0,0,0,.18-.06l-.06-.14Z"/><path class="cls-4" d="M40.41,14.38c-.18.2-.07.06-.15.11s-.14.07-.08.28-.07.16.07.3.34.09.39.18,0,.24.1.16.33-.25.29-.46a.39.39,0,0,0-.11-.25c0-.06,0-.07-.08-.14s-.08-.16-.17-.22-.09-.05-.13,0S40.41,14.38,40.41,14.38Z"/><path class="cls-3" d="M42,15.4l0,0v0c0-.06,0-.18,0-.21A.3.3,0,0,0,42,15a.23.23,0,0,0-.19-.15c-.06,0-.06,0-.12-.07a.47.47,0,0,0-.16,0l-.16,0c-.06,0-.16,0-.18.08s-.12.08-.12.2a.76.76,0,0,0,.06.42.38.38,0,0,0,.28.19c.07,0,0,0,.14,0s.21,0,.29-.07.08,0,.1-.08,0-.06.06-.07"/><path class="cls-4" d="M40.15,14.8c-.18.2-.16,0-.22.24s-.14.06-.07.27-.07.16.07.3.33.1.38.18,0,.24.1.16.34-.25.3-.46-.09-.19-.11-.25,0-.07-.09-.13-.08-.16-.17-.22-.12-.17-.16-.13Z"/><path class="cls-4" d="M41.06,15.4c-.17.19-.15,0-.21.23s-.14.07-.07.28-.07.16.07.3a.59.59,0,0,0,.38.18.28.28,0,0,0,.26-.12c.06-.07.18,0,.14-.18s-.09-.19-.11-.25,0-.07-.09-.14-.08-.16-.17-.22-.12-.17-.16-.13Z"/><path class="cls-2" d="M40.86,15s0,0,0,0,0,0,0-.13-.14-.26-.2-.29,0-.06-.1-.07-.21,0-.25,0,0,0-.08.09-.09,0-.06.21,0,.07,0,.2-.07.1.11.16.14.1.27.07.13,0,.19-.08.12,0,.11-.08V15"/><path class="cls-2" d="M40.44,15.42s0,0,0,0,0,0,0-.08-.09-.17-.13-.19,0,0-.06,0-.13,0-.16,0,0,0,0,.06-.05,0,0,.13,0,0,0,.13,0,.06.07.1.09.06.17,0a.23.23,0,0,0,.12,0s.07,0,.07-.05v0"/><path class="cls-2" d="M41.42,16s0,0,0,0,0,0,0-.11-.1-.22-.14-.24,0,0-.08,0-.15,0-.18,0,0,0-.06.08-.06,0,0,.17,0,.06,0,.17-.05.08.08.13.1.08.19.06a.29.29,0,0,0,.14-.07s.09,0,.08-.07v-.05"/><path class="cls-4" d="M40.34,15.49c-.17.19-.15,0-.21.23s-.14.07-.08.28-.07.16.07.3a.63.63,0,0,0,.39.18.28.28,0,0,0,.26-.12c0-.07.17,0,.13-.18a.39.39,0,0,0-.11-.25c0-.06,0-.07-.08-.14s-.08-.16-.17-.22-.12-.17-.16-.13Z"/><path class="cls-2" d="M40.7,16.12s0,0,0,0,0,0,0-.11-.09-.22-.13-.24,0,0-.08,0-.16,0-.18,0,0,0-.06.08-.07,0,0,.17,0,.06,0,.17,0,.08.08.13.09.08.19.06a.35.35,0,0,0,.14-.07s.09,0,.08-.07v0"/><path class="cls-2" d="M41.84,15.29s0,0,0,0,0,0,0-.1-.13-.21-.19-.23,0-.05-.1-.06-.2,0-.23,0,0,0-.07.07-.08,0-.06.15,0,.06,0,.16-.06.07.11.12.13.09.25.07.12,0,.18-.06.11,0,.1,0l0-.05"/><path class="cls-3" d="M40.51,16a0,0,0,0,0,0,0,0,0,0,0,0,0,0c0-.06,0-.18,0-.21a.49.49,0,0,0,0-.13.21.21,0,0,0-.18-.15c-.06,0-.07,0-.13-.07a.44.44,0,0,0-.16,0l-.15,0c-.07,0-.17,0-.18.08s-.12.08-.12.2a.86.86,0,0,0,.05.42.41.41,0,0,0,.28.19c.08,0,0,0,.15,0s.21,0,.29-.07l.09-.07s.05-.07.07-.08"/><path class="cls-2" d="M40.34,15.85s0,0,0,0,0,0,0-.1-.14-.21-.19-.23,0,0-.1,0a.46.46,0,0,0-.24,0s0,0-.07.07-.08,0,0,.15,0,.06,0,.16-.06.07.12.13.12.08.24.06.12,0,.18-.06.11,0,.1-.05v0"/><path class="cls-3" d="M41.57,16.53v-.06s0-.13,0-.15,0,0,0-.1a.27.27,0,0,0-.18-.12c-.06,0-.06,0-.12-.05a.36.36,0,0,0-.14,0A.58.58,0,0,0,41,16c-.06,0-.15,0-.16.05s-.11.06-.11.15a.59.59,0,0,0,.07.31.47.47,0,0,0,.26.15c.07,0,0,0,.14,0a.47.47,0,0,0,.26,0l.09-.05s0-.05.06-.06"/><path class="cls-2" d="M41.41,16.44s0,0,0,0,0,0,0-.07-.13-.16-.18-.18,0,0-.1,0a.48.48,0,0,0-.21,0s0,0-.07.05-.07,0,0,.11,0,0,0,.12-.05,0,.11.1.12.06.23.05.12,0,.17,0,.1,0,.09,0v0"/><path class="cls-3" d="M40.75,15v0a.41.41,0,0,1,0-.12.26.26,0,0,0,0-.07c0-.06-.06-.08-.08-.08s0,0-.06,0a.1.1,0,0,0-.07,0h-.07s-.07,0-.08.05,0,.05-.06.12a.58.58,0,0,0,0,.23.17.17,0,0,0,.12.11s0,0,.07,0,.09,0,.12,0l0-.05,0,0"/><path class="cls-3" d="M41,15.93l0-.13s0-.13,0-.15-.1,0-.13,0,0-.08-.08-.09a1.11,1.11,0,0,0-.26.07s-.12.05-.12.13a.26.26,0,0,0,.06.21c.06.07,0,.07.12.15a.25.25,0,0,0,.23.06.48.48,0,0,0,.16-.09S41,16,41,15.93Z"/><path class="cls-2" d="M40.83,15.9s0,0,0,0,0,0,0-.08-.06-.14-.09-.15,0,0,0,0-.11,0-.13,0,0,0,0,.05,0,0,0,.11,0,0,0,.11,0,.06.06.09.06.05.13,0l.1,0s.06,0,.05,0v0"/><path class="cls-15" d="M15,15.71a1.47,1.47,0,0,0,.1.49l.12.38.19.59,1.19,3.6,1.12-3.5A7.66,7.66,0,0,0,17,15.66a1,1,0,0,0-.21-.17.69.69,0,0,0-.25-.09h-.33l0-.11h2.3l0,.11a1.23,1.23,0,0,0-.46.06c-.08,0-.13.15-.13.32a6.64,6.64,0,0,0,.4,1.4l1.2,3.6,1.13-3.6A6.3,6.3,0,0,0,21,15.71a.26.26,0,0,0-.16-.26,1.5,1.5,0,0,0-.49-.06l0-.11h2.08v.11a1.42,1.42,0,0,0-.63.1,1.08,1.08,0,0,0-.4.47,8.81,8.81,0,0,0-.46,1.21l-1.31,4.14H19l-1.24-3.69-1.14,3.69h-.54L14.7,17.17c-.15-.46-.27-.79-.34-1a1.85,1.85,0,0,0-.29-.52.56.56,0,0,0-.32-.24,2.67,2.67,0,0,0-.47,0v-.11h2.3l0,.11a1.29,1.29,0,0,0-.47.06A.26.26,0,0,0,15,15.71Z"/><path class="cls-15" d="M24.72,18.51v.86a8,8,0,0,0,.06,1.25c0,.19.14.29.29.29a.9.9,0,0,0,.38-.12l.05.09-.18.12a2.66,2.66,0,0,1-.46.19,1.91,1.91,0,0,1-.65.12,5.17,5.17,0,0,1-.09-1.14,2.62,2.62,0,0,1-.49.86,1.08,1.08,0,0,1-.84.33,1.2,1.2,0,0,1-.85-.29,1,1,0,0,1-.32-.78c0-.92.84-1.38,2.5-1.39v-.31a2,2,0,0,0-.18-.94.7.7,0,0,0-.67-.32.68.68,0,0,0-.44.13.76.76,0,0,0-.23.3c-.1.3-.24.45-.43.45s-.29-.11-.29-.32.14-.39.43-.54a2.31,2.31,0,0,1,1-.21,1.41,1.41,0,0,1,1,.35A1.29,1.29,0,0,1,24.72,18.51Zm-2.28,2.36a.58.58,0,0,0,.51.22.84.84,0,0,0,.65-.34A2.18,2.18,0,0,0,24,20a4.34,4.34,0,0,0,.12-.88,2.31,2.31,0,0,0-1.4.35,1.05,1.05,0,0,0-.45.87A.88.88,0,0,0,22.44,20.87Z"/><path class="cls-15" d="M27.22,17.23h1.05v.18H27.22v3.26a.5.5,0,0,0,.08.29.28.28,0,0,0,.22.11,1.89,1.89,0,0,0,.73-.18l0,.09a2.08,2.08,0,0,1-1.06.38.61.61,0,0,1-.45-.15.73.73,0,0,1-.14-.5v-3.3H26.1v-.18a.73.73,0,0,0,.65-.27,1.94,1.94,0,0,0,.28-.77l.19,0Z"/><path class="cls-15" d="M30,17.23H31v.18H30v3.26A.43.43,0,0,0,30,21a.28.28,0,0,0,.22.11,1.89,1.89,0,0,0,.73-.18L31,21a2.11,2.11,0,0,1-1.06.38.61.61,0,0,1-.45-.15.68.68,0,0,1-.14-.5v-3.3h-.52v-.18a.73.73,0,0,0,.65-.27,2.11,2.11,0,0,0,.28-.77l.19,0Z"/><path class="cls-15" d="M32.73,15v4.8A3.63,3.63,0,0,0,32.84,21c.08.15.28.22.62.22l0,.1h-2.1l0-.1c.34,0,.55-.07.62-.22a3.31,3.31,0,0,0,.11-1.17V16.52a3.51,3.51,0,0,0-.1-1.15.31.31,0,0,0-.13-.12.48.48,0,0,0-.2-.07h-.3l0-.09A8.41,8.41,0,0,1,32.73,15Z"/><path class="cls-15" d="M37.53,19.11h-2.8v.14a2.1,2.1,0,0,0,.38,1.38,1.19,1.19,0,0,0,1,.48,1.29,1.29,0,0,0,1.23-.69l.13.07a1.54,1.54,0,0,1-1.49.87,1.81,1.81,0,0,1-1.32-.56,2.06,2.06,0,0,1-.54-1.5,2.41,2.41,0,0,1,.48-1.55,1.55,1.55,0,0,1,1.29-.61,1.51,1.51,0,0,1,1.25.55A2.22,2.22,0,0,1,37.53,19.11Zm-1.66-1.8a.89.89,0,0,0-.78.42,2.4,2.4,0,0,0-.35,1.13h2.13C36.83,17.83,36.5,17.31,35.87,17.31Z"/><path class="cls-15" d="M1.74.61H.35V.18H3.61V.61H2.22V4.33H1.74Z"/><path class="cls-15" d="M4.32,0h.46V1.8a1.16,1.16,0,0,1,1-.6A1.12,1.12,0,0,1,7,2.43v1.9H6.55V2.54a.82.82,0,0,0-.85-.93.91.91,0,0,0-.92,1V4.33H4.32Z"/><path class="cls-15" d="M9.33,4a1.25,1.25,0,0,0,1-.44l.28.26a1.6,1.6,0,0,1-1.26.58A1.53,1.53,0,0,1,7.79,2.8,1.51,1.51,0,0,1,9.26,1.2a1.46,1.46,0,0,1,1.43,1.63,1.1,1.1,0,0,1,0,.16H8.25A1.08,1.08,0,0,0,9.33,4Zm.9-1.39a1,1,0,0,0-1-1,1.06,1.06,0,0,0-1,1Z"/><path class="cls-15" d="M7.35,11.68v1.48a5.92,5.92,0,0,1-1.43.61,5.83,5.83,0,0,1-1.7.25A4.06,4.06,0,0,1,1.16,12.8,4.28,4.28,0,0,1,0,9.75a4.32,4.32,0,0,1,1.12-3,3.93,3.93,0,0,1,3-1.22,6.09,6.09,0,0,1,1.68.24,4.75,4.75,0,0,1,1.25.49V7.73l-.14,0A1.9,1.9,0,0,0,6,6.26a3.37,3.37,0,0,0-1.87-.5A2.67,2.67,0,0,0,1.83,6.85,4.8,4.8,0,0,0,1,9.74a4.71,4.71,0,0,0,.83,2.9,2.84,2.84,0,0,0,2.42,1.11,2.47,2.47,0,0,0,2.24-1v-.92a5.08,5.08,0,0,0-.15-1.63c-.1-.2-.39-.3-.86-.3l0-.12H8.4l0,.12c-.45,0-.73.11-.85.32A3.93,3.93,0,0,0,7.35,11.68Z"/><path class="cls-15" d="M9.32,11.1A3.15,3.15,0,0,1,10,9,2.42,2.42,0,0,1,12,8.17a2.52,2.52,0,0,1,2,.84,3,3,0,0,1,.75,2.09A3.1,3.1,0,0,1,14,13.19,2.45,2.45,0,0,1,12,14a2.51,2.51,0,0,1-2-.84A3.06,3.06,0,0,1,9.32,11.1ZM10.69,13a1.49,1.49,0,0,0,1.34.76A1.42,1.42,0,0,0,13.34,13a3.7,3.7,0,0,0,.45-1.93,3.55,3.55,0,0,0-.48-1.94A1.49,1.49,0,0,0,12,8.41a1.43,1.43,0,0,0-1.31.75,3.73,3.73,0,0,0-.45,1.93A3.63,3.63,0,0,0,10.69,13Z"/><path class="cls-15" d="M17.34,5.16v6.68a5,5,0,0,0,.15,1.62c.1.2.39.3.86.3l0,.14H15.46l0-.14q.72,0,.87-.3a4.92,4.92,0,0,0,.15-1.62V7.3a4.76,4.76,0,0,0-.14-1.59.59.59,0,0,0-.18-.17.66.66,0,0,0-.27-.09h-.43l0-.13A11.28,11.28,0,0,1,17.34,5.16Z"/><path class="cls-15" d="M22.57,13.61a1.6,1.6,0,0,1-1.12.41,2.06,2.06,0,0,1-1.1-.26,1.71,1.71,0,0,1-.67-.69,3.86,3.86,0,0,1-.48-2A2.86,2.86,0,0,1,20,9a2.81,2.81,0,0,1,2.16-.87,4.09,4.09,0,0,1,1.08.14V7.18A7.72,7.72,0,0,0,23.19,6c0-.21-.1-.34-.19-.39a1.58,1.58,0,0,0-.75-.14l0-.13a10.78,10.78,0,0,1,1.85-.14v6.09A12,12,0,0,0,24.16,13c.06.27.19.4.41.4a1.27,1.27,0,0,0,.53-.16l.06.12-.25.17a3,3,0,0,1-.63.27,2.73,2.73,0,0,1-.91.16,5.92,5.92,0,0,1-.16-1.37A2.17,2.17,0,0,1,22.57,13.61Zm-1.74-.19a1.24,1.24,0,0,0,1.52-.06,1.8,1.8,0,0,0,.53-.76,4.72,4.72,0,0,0,.37-1.84V8.94a1.75,1.75,0,0,0-1.12-.4,1.79,1.79,0,0,0-1,.26,1.63,1.63,0,0,0-.61.69,3.67,3.67,0,0,0-.41,1.69,4.43,4.43,0,0,0,.29,1.61A1.36,1.36,0,0,0,20.83,13.42Z"/><path class="cls-15" d="M30.67,10.9H26.78v.2A3,3,0,0,0,27.31,13a1.65,1.65,0,0,0,1.33.66,1.81,1.81,0,0,0,1.71-.95l.18.09A2.14,2.14,0,0,1,28.46,14a2.46,2.46,0,0,1-1.83-.77,2.86,2.86,0,0,1-.76-2.08A3.4,3.4,0,0,1,26.54,9a2.19,2.19,0,0,1,1.8-.84,2,2,0,0,1,1.72.76A3,3,0,0,1,30.67,10.9Zm-2.3-2.49A1.25,1.25,0,0,0,27.28,9a3.31,3.31,0,0,0-.48,1.57h3C29.7,9.12,29.24,8.41,28.37,8.41Z"/><path class="cls-15" d="M33.65,8.17v2.12a3.07,3.07,0,0,1,.59-1.49,1.57,1.57,0,0,1,1.3-.63c1.21,0,1.82.63,1.82,1.9v1.87a4.11,4.11,0,0,0,.16,1.53c.1.19.39.29.84.29l0,.14H35.5l0-.14c.47,0,.76-.1.85-.3a5,5,0,0,0,.14-1.62V10.19A2.42,2.42,0,0,0,36.27,9a.89.89,0,0,0-.81-.41,1.24,1.24,0,0,0-.92.37,2.24,2.24,0,0,0-.54.94,7.45,7.45,0,0,0-.35,2.22,3.91,3.91,0,0,0,.15,1.41c.1.19.38.28.85.28l0,.14h-2.9l0-.14c.47,0,.76-.1.87-.29a4.55,4.55,0,0,0,.15-1.55V11a7.07,7.07,0,0,0-.18-2.15.66.66,0,0,0-.21-.24.75.75,0,0,0-.32-.13l-.47,0,0-.13A15.71,15.71,0,0,1,33.65,8.17Z"/><g class="cls-16"><rect class="cls-17" y="5.48" width="8.4" height="8.54"/></g><g class="cls-18"><rect class="cls-17" x="10.22" y="8.41" width="2.76" height="5.38"/><rect class="cls-17" x="12.98" y="8.41" width="0.09" height="5.38"/><rect class="cls-17" x="13.07" y="8.41" width="0.09" height="5.38"/><rect class="cls-19" x="13.16" y="8.41" width="0.09" height="5.38"/><rect class="cls-20" x="13.25" y="8.41" width="0.09" height="5.38"/><rect class="cls-20" x="13.33" y="8.41" width="0.09" height="5.38"/><rect class="cls-21" x="13.42" y="8.41" width="0.09" height="5.38"/><rect class="cls-22" x="13.51" y="8.41" width="0.09" height="5.38"/><rect class="cls-23" x="13.59" y="8.41" width="0.09" height="5.38"/><rect class="cls-24" x="13.68" y="8.41" width="0.09" height="5.38"/><rect class="cls-24" x="13.77" y="8.41" width="0.02" height="5.38"/><rect class="cls-17" x="9.32" y="8.17" width="3.66" height="5.85"/><rect class="cls-17" x="12.98" y="8.17" width="0.09" height="5.85"/><rect class="cls-17" x="13.07" y="8.17" width="0.09" height="5.85"/><rect class="cls-19" x="13.16" y="8.17" width="0.09" height="5.85"/><rect class="cls-20" x="13.25" y="8.17" width="0.09" height="5.85"/><rect class="cls-20" x="13.33" y="8.17" width="0.09" height="5.85"/><rect class="cls-21" x="13.42" y="8.17" width="0.09" height="5.85"/><rect class="cls-22" x="13.51" y="8.17" width="0.09" height="5.85"/><rect class="cls-23" x="13.59" y="8.17" width="0.09" height="5.85"/><rect class="cls-24" x="13.68" y="8.17" width="0.09" height="5.85"/><rect class="cls-24" x="13.77" y="8.17" width="0.09" height="5.85"/><rect class="cls-25" x="13.86" y="8.17" width="0.09" height="5.85"/><rect class="cls-26" x="13.94" y="8.17" width="0.09" height="5.85"/><rect class="cls-26" x="14.03" y="8.17" width="0.09" height="5.85"/><rect class="cls-27" x="14.12" y="8.17" width="0.09" height="5.85"/><rect class="cls-28" x="14.21" y="8.17" width="0.09" height="5.85"/><rect class="cls-29" x="14.29" y="8.17" width="0.09" height="5.85"/><rect class="cls-30" x="14.38" y="8.17" width="0.09" height="5.85"/><rect class="cls-31" x="14.47" y="8.17" width="0.09" height="5.85"/><rect class="cls-32" x="14.56" y="8.17" width="0.09" height="5.85"/><rect class="cls-33" x="14.64" y="8.17" width="0.04" height="5.85"/></g><g class="cls-34"><rect class="cls-35" x="15.46" y="5.16" width="0.06" height="8.74"/><rect class="cls-36" x="15.52" y="5.16" width="0.09" height="8.74"/><rect class="cls-37" x="15.6" y="5.16" width="0.09" height="8.74"/><rect class="cls-38" x="15.69" y="5.16" width="0.09" height="8.74"/><rect class="cls-39" x="15.78" y="5.16" width="0.09" height="8.74"/><rect class="cls-40" x="15.87" y="5.16" width="0.09" height="8.74"/><rect class="cls-41" x="15.95" y="5.16" width="0.09" height="8.74"/><rect class="cls-42" x="16.04" y="5.16" width="0.09" height="8.74"/><rect class="cls-43" x="16.13" y="5.16" width="0.09" height="8.74"/><rect class="cls-44" x="16.22" y="5.16" width="0.09" height="8.74"/><rect class="cls-45" x="16.3" y="5.16" width="0.09" height="8.74"/><rect class="cls-46" x="16.39" y="5.16" width="0.09" height="8.74"/><rect class="cls-47" x="16.48" y="5.16" width="0.09" height="8.74"/><rect class="cls-48" x="16.57" y="5.16" width="0.09" height="8.74"/><rect class="cls-49" x="16.65" y="5.16" width="0.09" height="8.74"/><rect class="cls-50" x="16.74" y="5.16" width="0.09" height="8.74"/><rect class="cls-51" x="16.83" y="5.16" width="0.09" height="8.74"/><rect class="cls-52" x="16.92" y="5.16" width="0.09" height="8.74"/><rect class="cls-53" x="17" y="5.16" width="0.09" height="8.74"/><rect class="cls-54" x="17.09" y="5.16" width="0.09" height="8.74"/><rect class="cls-55" x="17.18" y="5.16" width="0.09" height="8.74"/><rect class="cls-56" x="17.27" y="5.16" width="0.09" height="8.74"/><rect class="cls-57" x="17.35" y="5.16" width="0.09" height="8.74"/><rect class="cls-58" x="17.44" y="5.16" width="0.09" height="8.74"/><rect class="cls-59" x="17.53" y="5.16" width="0.09" height="8.74"/><rect class="cls-60" x="17.61" y="5.16" width="0.09" height="8.74"/><rect class="cls-61" x="17.7" y="5.16" width="0.09" height="8.74"/><rect class="cls-62" x="17.79" y="5.16" width="0.09" height="8.74"/><rect class="cls-63" x="17.88" y="5.16" width="0.09" height="8.74"/><rect class="cls-64" x="17.96" y="5.16" width="0.09" height="8.74"/><rect class="cls-65" x="18.05" y="5.16" width="0.09" height="8.74"/><rect class="cls-66" x="18.14" y="5.16" width="0.09" height="8.74"/><rect class="cls-67" x="18.23" y="5.16" width="0.09" height="8.74"/><rect class="cls-68" x="18.31" y="5.16" width="0.06" height="8.74"/></g><g class="cls-69"><rect class="cls-70" x="20.1" y="8.54" width="0.05" height="5.12"/><rect class="cls-71" x="20.15" y="8.54" width="0.09" height="5.12"/><rect class="cls-72" x="20.24" y="8.54" width="0.09" height="5.12"/><rect class="cls-73" x="20.32" y="8.54" width="0.09" height="5.12"/><rect class="cls-73" x="20.41" y="8.54" width="0.08" height="5.12"/><rect class="cls-72" x="20.49" y="8.54" width="0.08" height="5.12"/><rect class="cls-74" x="20.57" y="8.54" width="0.08" height="5.12"/><rect class="cls-75" x="20.64" y="8.54" width="0.08" height="5.12"/><rect class="cls-76" x="20.72" y="8.54" width="0.08" height="5.12"/><rect class="cls-77" x="20.8" y="8.54" width="0.08" height="5.12"/><rect class="cls-78" x="20.87" y="8.54" width="0.08" height="5.12"/><rect class="cls-79" x="20.95" y="8.54" width="0.08" height="5.12"/><rect class="cls-80" x="21.03" y="8.54" width="0.08" height="5.12"/><rect class="cls-81" x="21.1" y="8.54" width="0.08" height="5.12"/><rect class="cls-82" x="21.18" y="8.54" width="0.08" height="5.12"/><rect class="cls-83" x="21.26" y="8.54" width="0.08" height="5.12"/><rect class="cls-84" x="21.33" y="8.54" width="0.08" height="5.12"/><rect class="cls-85" x="21.41" y="8.54" width="0.08" height="5.12"/><rect class="cls-86" x="21.49" y="8.54" width="0.08" height="5.12"/><rect class="cls-87" x="21.56" y="8.54" width="0.08" height="5.12"/><rect class="cls-88" x="21.64" y="8.54" width="0.08" height="5.12"/><rect class="cls-89" x="21.72" y="8.54" width="0.08" height="5.12"/><rect class="cls-90" x="21.8" y="8.54" width="0.08" height="5.12"/><rect class="cls-91" x="21.87" y="8.54" width="0.08" height="5.12"/><rect class="cls-92" x="21.95" y="8.54" width="0.08" height="5.12"/><rect class="cls-93" x="22.03" y="8.54" width="0.08" height="5.12"/><rect class="cls-94" x="22.1" y="8.54" width="0.08" height="5.12"/><rect class="cls-95" x="22.18" y="8.54" width="0.08" height="5.12"/><rect class="cls-96" x="22.26" y="8.54" width="0.08" height="5.12"/><rect class="cls-97" x="22.33" y="8.54" width="0.08" height="5.12"/><rect class="cls-98" x="22.41" y="8.54" width="0.08" height="5.12"/><rect class="cls-99" x="22.49" y="8.54" width="0.08" height="5.12"/><rect class="cls-100" x="22.56" y="8.54" width="0.08" height="5.12"/><rect class="cls-101" x="22.64" y="8.54" width="0.08" height="5.12"/><rect class="cls-102" x="22.72" y="8.54" width="0.08" height="5.12"/><rect class="cls-103" x="22.79" y="8.54" width="0.08" height="5.12"/><rect class="cls-104" x="22.87" y="8.54" width="0.08" height="5.12"/><rect class="cls-105" x="22.95" y="8.54" width="0.08" height="5.12"/><rect class="cls-106" x="23.03" y="8.54" width="0.08" height="5.12"/><rect class="cls-107" x="23.1" y="8.54" width="0.08" height="5.12"/><rect class="cls-108" x="23.18" y="8.54" width="0.07" height="5.12"/><rect class="cls-109" x="19.2" y="5.18" width="0.07" height="8.85"/><rect class="cls-110" x="19.28" y="5.18" width="0.09" height="8.85"/><rect class="cls-111" x="19.36" y="5.18" width="0.09" height="8.85"/><rect class="cls-112" x="19.45" y="5.18" width="0.09" height="8.85"/><rect class="cls-113" x="19.54" y="5.18" width="0.09" height="8.85"/><rect class="cls-114" x="19.62" y="5.18" width="0.09" height="8.85"/><rect class="cls-115" x="19.71" y="5.18" width="0.09" height="8.85"/><rect class="cls-116" x="19.8" y="5.18" width="0.09" height="8.85"/><rect class="cls-117" x="19.89" y="5.18" width="0.09" height="8.85"/><rect class="cls-118" x="19.97" y="5.18" width="0.09" height="8.85"/><rect class="cls-70" x="20.06" y="5.18" width="0.09" height="8.85"/><rect class="cls-71" x="20.15" y="5.18" width="0.09" height="8.85"/><rect class="cls-72" x="20.24" y="5.18" width="0.09" height="8.85"/><rect class="cls-73" x="20.32" y="5.18" width="0.09" height="8.85"/><rect class="cls-73" x="20.41" y="5.18" width="0.08" height="8.85"/><rect class="cls-72" x="20.49" y="5.18" width="0.08" height="8.85"/><rect class="cls-74" x="20.57" y="5.18" width="0.08" height="8.85"/><rect class="cls-75" x="20.64" y="5.18" width="0.08" height="8.85"/><rect class="cls-76" x="20.72" y="5.18" width="0.08" height="8.85"/><rect class="cls-77" x="20.8" y="5.18" width="0.08" height="8.85"/><rect class="cls-78" x="20.87" y="5.18" width="0.08" height="8.85"/><rect class="cls-79" x="20.95" y="5.18" width="0.08" height="8.85"/><rect class="cls-80" x="21.03" y="5.18" width="0.08" height="8.85"/><rect class="cls-81" x="21.1" y="5.18" width="0.08" height="8.85"/><rect class="cls-82" x="21.18" y="5.18" width="0.08" height="8.85"/><rect class="cls-83" x="21.26" y="5.18" width="0.08" height="8.85"/><rect class="cls-84" x="21.33" y="5.18" width="0.08" height="8.85"/><rect class="cls-85" x="21.41" y="5.18" width="0.08" height="8.85"/><rect class="cls-86" x="21.49" y="5.18" width="0.08" height="8.85"/><rect class="cls-87" x="21.56" y="5.18" width="0.08" height="8.85"/><rect class="cls-88" x="21.64" y="5.18" width="0.08" height="8.85"/><rect class="cls-89" x="21.72" y="5.18" width="0.08" height="8.85"/><rect class="cls-90" x="21.8" y="5.18" width="0.08" height="8.85"/><rect class="cls-91" x="21.87" y="5.18" width="0.08" height="8.85"/><rect class="cls-92" x="21.95" y="5.18" width="0.08" height="8.85"/><rect class="cls-93" x="22.03" y="5.18" width="0.08" height="8.85"/><rect class="cls-94" x="22.1" y="5.18" width="0.08" height="8.85"/><rect class="cls-95" x="22.18" y="5.18" width="0.08" height="8.85"/><rect class="cls-96" x="22.26" y="5.18" width="0.08" height="8.85"/><rect class="cls-97" x="22.33" y="5.18" width="0.08" height="8.85"/><rect class="cls-98" x="22.41" y="5.18" width="0.08" height="8.85"/><rect class="cls-99" x="22.49" y="5.18" width="0.08" height="8.85"/><rect class="cls-100" x="22.56" y="5.18" width="0.08" height="8.85"/><rect class="cls-101" x="22.64" y="5.18" width="0.08" height="8.85"/><rect class="cls-102" x="22.72" y="5.18" width="0.08" height="8.85"/><rect class="cls-103" x="22.79" y="5.18" width="0.08" height="8.85"/><rect class="cls-104" x="22.87" y="5.18" width="0.08" height="8.85"/><rect class="cls-105" x="22.95" y="5.18" width="0.08" height="8.85"/><rect class="cls-106" x="23.03" y="5.18" width="0.08" height="8.85"/><rect class="cls-107" x="23.1" y="5.18" width="0.08" height="8.85"/><rect class="cls-108" x="23.18" y="5.18" width="0.08" height="8.85"/><rect class="cls-119" x="23.26" y="5.18" width="0.08" height="8.85"/><rect class="cls-120" x="23.33" y="5.18" width="0.08" height="8.85"/><rect class="cls-121" x="23.41" y="5.18" width="0.08" height="8.85"/><rect class="cls-122" x="23.49" y="5.18" width="0.08" height="8.85"/><rect class="cls-123" x="23.56" y="5.18" width="0.08" height="8.85"/><rect class="cls-124" x="23.64" y="5.18" width="0.08" height="8.85"/><rect class="cls-125" x="23.72" y="5.18" width="0.08" height="8.85"/><rect class="cls-126" x="23.79" y="5.18" width="0.08" height="8.85"/><rect class="cls-127" x="23.87" y="5.18" width="0.08" height="8.85"/><rect class="cls-128" x="23.95" y="5.18" width="0.08" height="8.85"/><rect class="cls-129" x="24.02" y="5.18" width="0.08" height="8.85"/><rect class="cls-130" x="24.1" y="5.18" width="0.08" height="8.85"/><rect class="cls-131" x="24.18" y="5.18" width="0.08" height="8.85"/><rect class="cls-132" x="24.26" y="5.18" width="0.08" height="8.85"/><rect class="cls-133" x="24.33" y="5.18" width="0.08" height="8.85"/><rect class="cls-134" x="24.41" y="5.18" width="0.08" height="8.85"/><rect class="cls-135" x="24.49" y="5.18" width="0.08" height="8.85"/><rect class="cls-136" x="24.56" y="5.18" width="0.08" height="8.85"/><rect class="cls-137" x="24.64" y="5.18" width="0.08" height="8.85"/><rect class="cls-138" x="24.72" y="5.18" width="0.08" height="8.85"/><rect class="cls-139" x="24.79" y="5.18" width="0.08" height="8.85"/><rect class="cls-140" x="24.87" y="5.18" width="0.08" height="8.85"/><rect class="cls-141" x="24.95" y="5.18" width="0.08" height="8.85"/><rect class="cls-142" x="25.02" y="5.18" width="0.08" height="8.85"/><rect class="cls-143" x="25.1" y="5.18" width="0.06" height="8.85"/></g><g class="cls-144"><rect class="cls-145" x="26.8" y="8.41" width="2.96" height="2.15"/><rect class="cls-146" x="25.87" y="8.17" width="0.07" height="5.85"/><rect class="cls-145" x="25.95" y="8.17" width="0.08" height="5.85"/><rect class="cls-145" x="26.02" y="8.17" width="0.08" height="5.85"/><rect class="cls-145" x="26.1" y="8.17" width="4.57" height="5.85"/></g><g class="cls-147"><rect class="cls-145" x="31.62" y="8.17" width="6.77" height="5.74"/></g></g></g></svg>