<?xml version="1.0" encoding="UTF-8"?>
<!-- Generator: Adobe Illustrator 24.3.0, SVG Export Plug-In . SVG Version: 6.00 Build 0)  -->
<svg xmlns="http://www.w3.org/2000/svg" xmlns:xlink="http://www.w3.org/1999/xlink" version="1.1" id="Capa_1" x="0px" y="0px" viewBox="0 0 512.03 512.03" style="enable-background:new 0 0 512.03 512.03;" xml:space="preserve" width="512" height="512">
<g>
	<g id="Page-1_4_">
		<g id="household_export_4_" transform="translate(-56.000000, -783.000000)">
			<path id="drainage_x2C_-water_x2C_-excess_x2C_-removal_x2C_-underground" d="M312.03,1012.662v112.941h240.941     c8.317,0,15.059,6.742,15.059,15.059s-6.742,15.059-15.059,15.059H312.03c-16.633,0-30.118-13.484-30.118-30.118v-112.941     h-45.176v128c0,33.267,26.968,60.235,60.235,60.235h256c8.317,0,15.059,6.742,15.059,15.059s-6.742,15.059-15.059,15.059h-256     c-49.901,0-90.353-40.452-90.353-90.353v-128H71.089c-13.801,0-20.332-17.019-10.074-26.252l150.588-135.529     c2.765-2.489,6.354-3.866,10.074-3.866h301.176c13.801,0,20.332,17.019,10.074,26.252l-150.588,135.529     c-2.765,2.489-6.354,3.866-10.074,3.866H312.03z M110.332,982.545h256.155l117.124-105.412H227.456L110.332,982.545z      M371.394,903.587c6.182-5.564,15.703-5.062,21.267,1.119c5.564,6.182,5.062,15.704-1.119,21.267l-33.464,30.118     c-6.182,5.564-15.703,5.062-21.267-1.119c-5.564-6.182-5.062-15.704,1.119-21.267L371.394,903.587z M296.1,903.587     c6.182-5.564,15.703-5.062,21.267,1.119c5.564,6.182,5.062,15.704-1.119,21.267l-33.464,30.118     c-6.182,5.564-15.703,5.062-21.267-1.119c-5.564-6.182-5.062-15.704,1.119-21.267L296.1,903.587z M220.806,903.587     c6.182-5.564,15.703-5.062,21.267,1.119c5.564,6.182,5.062,15.704-1.119,21.267l-33.464,30.118     c-6.182,5.564-15.703,5.062-21.267-1.119c-5.564-6.182-5.062-15.704,1.119-21.267L220.806,903.587z"/>
		</g>
	</g>
</g>















</svg>
