<svg id="Layer_5" enable-background="new 0 0 64 64" height="512" viewBox="0 0 64 64" width="512" xmlns="http://www.w3.org/2000/svg"><g><path d="m34.39 58.263c-.707.482-1.534.737-2.39.737s-1.683-.255-2.39-.737l-4.512-3.076c-10.1.556-14.375 2.069-15.049 2.815.978 1.125 8.772 2.998 21.951 2.998s20.973-1.873 21.95-2.999c-.674-.749-4.955-2.259-15.049-2.814z"/><path d="m42.038 3h-20.076c-.487 6.373-5.589 11.475-11.962 11.962v20.639c0 4.302 2.122 8.317 5.677 10.741l15.06 10.268c.747.51 1.778.51 2.525 0l15.061-10.269c3.555-2.423 5.677-6.438 5.677-10.74v-20.639c-6.373-.487-11.475-5.589-11.962-11.962zm8.962 32.601c0 3.309-1.632 6.397-4.367 8.262l-14.633 9.977-14.633-9.977c-2.735-1.864-4.367-4.953-4.367-8.262v-18.107c5.614-1.451 10.043-5.88 11.494-11.494h15.013c1.45 5.614 5.879 10.043 11.494 11.494v18.107z"/><path d="m37 31v-6.941l-3.856 6.941z"/><path d="m45.949 28c-.221-3.108-1.455-5.934-3.381-8.154l-1.376 1.376-1.414-1.414 1.376-1.376c-2.22-1.926-5.047-3.16-8.154-3.381v1.949h-2v-1.949c-3.108.221-5.934 1.455-8.154 3.381l1.376 1.376-1.414 1.414-1.376-1.376c-1.926 2.22-3.16 5.047-3.381 8.154h1.949v2h-1.949c.221 3.108 1.455 5.934 3.381 8.154l1.376-1.376 1.414 1.414-1.376 1.376c2.22 1.926 5.047 3.16 8.154 3.381v-1.949h2v1.949c3.108-.221 5.934-1.455 8.154-3.381l-1.376-1.376 1.414-1.414 1.376 1.376c1.926-2.22 3.16-5.047 3.381-8.154h-1.949v-2zm-15.949 5v2h-8v-2.37l5.538-6.46c.298-.348.462-.792.462-1.25 0-1.059-.861-1.92-1.92-1.92h-.16c-1.059 0-1.92.861-1.92 1.92v1.08h-2v-1.08c0-2.162 1.758-3.92 3.92-3.92h.16c2.162 0 3.92 1.758 3.92 3.92 0 .935-.335 1.841-.944 2.551l-4.739 5.529zm11 0h-2v2h-2v-2h-6v-2.259l5.412-9.741h2.588v10h2z"/></g></svg>