<?xml version="1.0" encoding="UTF-8"?>
<svg xmlns="http://www.w3.org/2000/svg" id="Layer_1" data-name="Layer 1" viewBox="0 0 512 512" width="512" height="512"><path d="M471.127,36.653H398.378V12a12,12,0,0,0-24,0V36.653H268V12a12,12,0,0,0-24,0V36.653H137.622V12a12,12,0,0,0-24,0V36.653H40.873A40.92,40.92,0,0,0,0,77.526v393.6A40.92,40.92,0,0,0,40.873,512H471.127A40.92,40.92,0,0,0,512,471.127V77.526A40.92,40.92,0,0,0,471.127,36.653Zm-430.254,24h72.749V85.306a12,12,0,0,0,24,0V60.653H244V85.306a12,12,0,0,0,24,0V60.653H374.378V85.306a12,12,0,0,0,24,0V60.653h72.749A16.893,16.893,0,0,1,488,77.526v81.25H24V77.526A16.893,16.893,0,0,1,40.873,60.653ZM471.127,488H40.873A16.892,16.892,0,0,1,24,471.127V182.776H488V471.127A16.892,16.892,0,0,1,471.127,488ZM371.378,326.9a12,12,0,0,1,0,16.971l-88.04,88.041a12,12,0,0,1-16.971-16.971l67.38-67.38L139.49,347.28a12,12,0,0,1,.017-24h.018l194.574.284-67.732-67.731a12,12,0,0,1,16.971-16.971Z"/></svg>
