<svg width="13" height="15" viewBox="0 0 13 15" fill="none" xmlns="http://www.w3.org/2000/svg">
<path d="M11.9219 13.9297C12.0859 13.9297 12.25 14.0938 12.25 14.2578V14.8047H0V14.2578C0 14.0938 0.136719 13.9297 0.328125 13.9297H0.875V1.46094C0.875 1.10547 1.14844 0.804688 1.53125 0.804688H10.7188C11.0742 0.804688 11.375 1.10547 11.375 1.46094V13.9297H11.9219ZM3.5 2.88281V3.97656C3.5 4.16797 3.63672 4.30469 3.82812 4.30469H4.92188C5.08594 4.30469 5.25 4.16797 5.25 3.97656V2.88281C5.25 2.71875 5.08594 2.55469 4.92188 2.55469H3.82812C3.63672 2.55469 3.5 2.71875 3.5 2.88281ZM3.5 5.50781V6.60156C3.5 6.79297 3.63672 6.92969 3.82812 6.92969H4.92188C5.08594 6.92969 5.25 6.79297 5.25 6.60156V5.50781C5.25 5.34375 5.08594 5.17969 4.92188 5.17969H3.82812C3.63672 5.17969 3.5 5.34375 3.5 5.50781ZM4.92188 9.55469C5.08594 9.55469 5.25 9.41797 5.25 9.22656V8.13281C5.25 7.96875 5.08594 7.80469 4.92188 7.80469H3.82812C3.63672 7.80469 3.5 7.96875 3.5 8.13281V9.22656C3.5 9.41797 3.63672 9.55469 3.82812 9.55469H4.92188ZM7 13.9297V11.6328C7 11.4688 6.83594 11.3047 6.67188 11.3047H5.57812C5.38672 11.3047 5.25 11.4688 5.25 11.6328V13.9297H7ZM8.75 9.22656V8.13281C8.75 7.96875 8.58594 7.80469 8.42188 7.80469H7.32812C7.13672 7.80469 7 7.96875 7 8.13281V9.22656C7 9.41797 7.13672 9.55469 7.32812 9.55469H8.42188C8.58594 9.55469 8.75 9.41797 8.75 9.22656ZM8.75 6.60156V5.50781C8.75 5.34375 8.58594 5.17969 8.42188 5.17969H7.32812C7.13672 5.17969 7 5.34375 7 5.50781V6.60156C7 6.79297 7.13672 6.92969 7.32812 6.92969H8.42188C8.58594 6.92969 8.75 6.79297 8.75 6.60156ZM8.75 3.97656V2.88281C8.75 2.71875 8.58594 2.55469 8.42188 2.55469H7.32812C7.13672 2.55469 7 2.71875 7 2.88281V3.97656C7 4.16797 7.13672 4.30469 7.32812 4.30469H8.42188C8.58594 4.30469 8.75 4.16797 8.75 3.97656Z" fill="black"/>
</svg>
