<svg xmlns="http://www.w3.org/2000/svg" id="Layer_1" enable-background="new 0 0 500 500" viewBox="0 0 500 500"><path clip-rule="evenodd" d="m373.469 368.16c0-3.593 2.913-6.506 6.506-6.506s6.506 2.913 6.506 6.506v56.768c0 3.593-2.913 6.506-6.506 6.506h-56.768c-3.593 0-6.506-2.913-6.506-6.506s2.913-6.506 6.506-6.506h49.395c.478 0 .867-.389.867-.867zm71.734-238.098-86.746 57.729c-.257.171-.396.441-.387.75.01.309.166.569.433.723l19.168 11.067-.006.011c3.332 2.018 4.273 6.147 2.268 9.296-67.591 106.156-158.558 179.007-275.136 215.51-.429.134-.684.57-.589 1.01.094.437.501.73.946.679 52.311-5.958 100.299-20.049 143.723-42.725 63.818-33.325 117.927-85.27 161.572-157.277 1.844-3.114 5.855-4.176 9.002-2.367l19.176 11.071c.267.154.571.159.843.014.272-.146.436-.401.456-.709l6.623-104.004c.021-.337-.139-.637-.432-.806-.293-.17-.633-.159-.914.028zm-134.06-8.989c0-11.408-9.29-20.697-20.697-20.697h-3.98c-.478 0-.867-.389-.867-.867v-23.256c0-4.225 3.461-7.686 7.686-7.686h58.187c4.225 0 7.686 3.461 7.686 7.686v94.655c0 .299-.138.556-.387.722l-17.728 11.798c-4.082 2.708-3.94 8.809.338 11.282l22.825 13.178c.214.124.353.31.41.55.057.241.018.469-.118.676-16.037 24.503-33.321 47.019-51.842 67.562-.245.272-.613.36-.955.229s-.556-.444-.556-.81v-155.022zm-61.026 53.928c0-11.408-9.29-20.697-20.697-20.697h-3.98c-.478 0-.867-.389-.867-.867v-32.364c0-4.225 3.461-7.686 7.686-7.686h58.187c4.225 0 7.686 3.461 7.686 7.686v170.694c0 .236-.083.439-.249.608-14.726 14.99-30.182 28.817-46.363 41.486-.268.209-.609.246-.914.097-.306-.149-.488-.44-.488-.779v-158.178zm-61.025 53.928c0-11.408-9.29-20.697-20.697-20.697h-3.98c-.478 0-.867-.389-.867-.867v-32.363c0-4.225 3.461-7.686 7.686-7.686h58.187c4.225 0 7.686 3.461 7.686 7.686v169.256c0 .288-.127.536-.36.704-14.866 10.712-30.324 20.505-46.367 29.378-.276.153-.588.148-.86-.012s-.427-.431-.427-.747v-144.652zm-13.011 152.462c0 .335-.176.622-.475.773-22.855 11.589-46.841 21.39-71.952 29.414-.272.087-.545.043-.776-.126s-.356-.415-.356-.701v-181.822c0-4.225 3.461-7.686 7.686-7.686h58.187c4.225 0 7.686 3.461 7.686 7.686zm-109.62-246.949c0 3.593-2.913 6.506-6.506 6.506s-6.506-2.913-6.506-6.506v-56.768c0-3.593 2.913-6.506 6.506-6.506h56.768c3.593 0 6.506 2.913 6.506 6.506s-2.913 6.506-6.506 6.506h-49.395c-.478 0-.867.389-.867.867z" fill-rule="evenodd" fill="#ffffff"/></svg>