<svg xmlns="http://www.w3.org/2000/svg" id="Layer_1" enable-background="new 0 0 74 74" height="512" viewBox="0 0 74 74" width="512"><g><path d="m69 55.6h-2.4v-30.5h1.1c.5 0 .9-.3 1-.8l1.3-6.7c.1-.3 0-.6-.2-.8s-.5-.4-.8-.4h-6.7c-.3 0-.6.1-.8.4-.2.2-.3.5-.2.8l1.3 6.7c.1.5.5.8 1 .8h1.1v30.5h-3.7v-25.3c0-.5-.5-1-1-1h-5.8c-1.5-3.7-11.1-6.3-15.7-7.4v33.7h-3v-33.7c-3.8.8-10.9 2.8-14.1 5.5-.1.1-.2.1-.2.2-.6.5-1.1 1.1-1.3 1.7h-5.9c-.6 0-1 .5-1 1v25.3h-3.6v-30.5h1.1c.5 0 .9-.3 1-.8l1.3-6.7c.1-.3 0-.6-.2-.8s-.5-.4-.8-.4h-6.8c-.3 0-.6.1-.8.4-.2.2-.2.5-.2.8l1.3 6.7c.1.5.5.8 1 .8h1.1v30.5h-2.4c-.5 0-1 .4-1 1s.5 1 1 1h29.3 5.4 29.3c.6 0 1-.4 1-1 0-.5-.4-1-1-1zm-49.4 0h-4.6v-24.3h4.6zm2-25c0-.1.1-.2.1-.3 0-.3.2-.7.6-1.1h11.3v3.6h-12zm0 9.7h11.9v3.6h-11.9zm0 11.1h11.9v4.2h-11.9zm30.8 4.2h-11.9v-4.2h11.9zm0-11.7h-11.9v-3.6h11.9zm0-11.1h-11.9v-3.6h11.3c.4.4.6.7.6 1.1 0 .1 0 .2.1.3v2.2zm6.6 22.8h-4.6v-24.3h4.6z" fill="#fcfcfc"/></g></svg>