<svg clip-rule="evenodd" fill-rule="evenodd" height="512" stroke-linejoin="round" stroke-miterlimit="2" viewBox="0 0 134 134" width="512" xmlns="http://www.w3.org/2000/svg"><path d="m31.136 68.583c.007.012.015.025.022.038.469.79.963 1.564 1.482 2.32.641.933 1.318 1.838 2.03 2.712l21.918 31.365c-9.287.834-16.849 2.825-20.793 5.305-2.595 1.632-3.807 3.609-3.807 5.512 0 2.092 1.518 4.301 4.71 6.04 5.591 3.045 16.842 5.208 29.815 5.208s24.224-2.163 29.815-5.208c3.192-1.739 4.71-3.948 4.71-6.04 0-1.895-1.199-3.861-3.768-5.487-3.894-2.466-11.358-4.452-20.543-5.304l21.939-31.394c1.289-1.584 2.465-3.267 3.512-5.035l.017-.028c3.638-6.149 5.727-13.325 5.727-20.985 0-22.786-18.486-41.284-41.255-41.284-22.77 0-41.256 18.498-41.256 41.284 0 7.658 2.088 14.831 5.725 20.981zm28.222 40.399c-8.201.531-15.18 1.944-19.515 3.902-1.297.586-2.333 1.204-3.032 1.882-.367.356-.657.68-.657 1.069 0 .485.405.871.919 1.307.932.789 2.302 1.502 4.01 2.16 5.735 2.21 14.996 3.615 25.43 3.615s19.694-1.405 25.43-3.615c1.708-.658 3.078-1.371 4.009-2.16.515-.436.919-.822.919-1.307 0-.385-.284-.706-.645-1.059-.689-.672-1.712-1.286-2.991-1.868-4.278-1.947-11.165-3.358-19.273-3.907l-5.643 8.075c-.377.54-.994.861-1.652.861-.659 0-1.275-.321-1.653-.861zm27.389-25.315c-5.942 3.323-12.792 5.219-20.08 5.219-7.287 0-14.136-1.895-20.08-5.218l20.08 28.734 4.654-6.66c.032-.051.067-.1.103-.148zm12.009-17.184c3.262-5.536 5.135-11.992 5.135-18.881 0-20.56-16.679-37.253-37.224-37.253l-.481.003c-20.324.258-36.744 16.85-36.744 37.25 0 6.889 1.873 13.343 5.136 18.881l3.31 4.737c6.83 8.322 17.189 13.634 28.779 13.634 11.589 0 21.948-5.311 28.776-13.631zm-58.486-.775c5.771 8.405 15.445 13.92 26.397 13.92 17.663 0 32.005-14.35 32.005-32.026 0-17.677-14.342-32.027-32.005-32.027-17.664 0-32.005 14.35-32.005 32.027 0 6.717 2.071 12.954 5.608 18.106zm3.324-2.282c5.044 7.348 13.5 12.171 23.073 12.171 15.439 0 27.973-12.545 27.973-27.995 0-15.451-12.534-27.996-27.973-27.996-15.44 0-27.974 12.545-27.974 27.996 0 5.87 1.809 11.322 4.901 15.824zm16.667-28.793c0 .131.132 25.945.132 25.945.005 1.15.942 2.08 2.091 2.076 1.15-.005 2.08-.942 2.076-2.091l-.04-10.878h4.323c4.681 0 8.493-3.761 8.555-8.441v-.002c.031-2.295-.859-4.506-2.471-6.139-1.611-1.634-3.811-2.553-6.105-2.553-3.247 0-6.477 0-6.477 0-1.15 0-2.084.933-2.084 2.083zm4.212 2.084.032 8.801h4.338c2.401 0 4.357-1.929 4.389-4.33v-.002c.016-1.18-.442-2.317-1.271-3.157-.828-.84-1.959-1.312-3.139-1.312z"/></svg>