<svg xmlns="http://www.w3.org/2000/svg" id="Layer_3" height="512" viewBox="0 0 64 64" width="512" data-name="Layer 3"><path d="m62 7a1 1 0 0 0 1-1v-4a1 1 0 0 0 -1-1h-60a1 1 0 0 0 -1 1v4a1 1 0 0 0 1 1h1v6h-1a1 1 0 0 0 -1 1v4a1 1 0 0 0 1 1h1v18h-1a1 1 0 0 0 -1 1v4a1 1 0 0 0 1 1h1v19a1 1 0 0 0 1 1h18a1 1 0 0 0 1-1v-19h1a1 1 0 0 0 1-1v-4a1 1 0 0 0 -1-1h-.941a9 9 0 0 1 17.882 0h-.941a1 1 0 0 0 -1 1v4a1 1 0 0 0 1 1h1v19a1 1 0 0 0 1 1h18a1 1 0 0 0 1-1v-19h1a1 1 0 0 0 1-1v-4a1 1 0 0 0 -1-1h-1v-18h1a1 1 0 0 0 1-1v-4a1 1 0 0 0 -1-1h-1v-6zm-59-4h58v2h-58zm14 40v12h-12v-12zm-12 14h12v4h-12zm16 4h-2v-18h2zm2-20h-20v-2h20zm9-14a11.01 11.01 0 0 0 -10.949 10h-2a12.987 12.987 0 0 1 25.9 0h-2a11.01 11.01 0 0 0 -10.951-10zm11 16h2v18h-2zm4 18v-4h12v4zm12-6h-12v-12h12zm2-14h-20v-2h20zm-2-4h-12.051a14.981 14.981 0 0 0 -29.9 0h-12.049v-18h54zm2-20h-58v-2h58zm-2-4h-54v-6h54z" fill="#faf9f9"/><path d="m7 9h2v2h-2z" fill="#faf9f9"/><path d="m11 9h2v2h-2z" fill="#faf9f9"/><path d="m15 9h2v2h-2z" fill="#faf9f9"/><path d="m19 9h2v2h-2z" fill="#faf9f9"/><path d="m23 9h2v2h-2z" fill="#faf9f9"/><path d="m27 9h2v2h-2z" fill="#faf9f9"/><path d="m35 9h2v2h-2z" fill="#faf9f9"/><path d="m39 9h2v2h-2z" fill="#faf9f9"/><path d="m43 9h2v2h-2z" fill="#faf9f9"/><path d="m47 9h2v2h-2z" fill="#faf9f9"/><path d="m51 9h2v2h-2z" fill="#faf9f9"/><path d="m55 9h2v2h-2z" fill="#faf9f9"/><path d="m31 9h2v2h-2z" fill="#faf9f9"/></svg>