<svg xmlns="http://www.w3.org/2000/svg" id="Capa_1" enable-background="new 0 0 512.003 512.003" height="512" viewBox="0 0 512.003 512.003" width="512"><g><circle cx="496.001" cy="362" r="10" fill="#ffffff"/><circle cx="396.001" cy="342" r="10" fill="#ffffff"/><circle cx="216.001" cy="382" r="10" fill="#ffffff"/><path d="m500.095 491.584c-4.995.97-12.652 1.134-21.384-8.585-5.845-6.508-14.122-10.241-22.71-10.241s-16.865 3.732-22.714 10.245c-5.431 6.054-11.085 8.997-17.286 8.997s-11.855-2.943-17.29-9.001c-5.845-6.508-14.122-10.241-22.71-10.241s-16.865 3.732-22.714 10.245c-5.431 6.054-11.085 8.997-17.286 8.997s-11.855-2.943-17.29-9.001c-5.845-6.508-14.122-10.241-22.71-10.241s-16.865 3.732-22.714 10.245c-5.431 6.054-11.085 8.997-17.286 8.997s-11.855-2.943-17.29-9.001c-5.845-6.508-14.122-10.241-22.71-10.241s-16.865 3.732-22.714 10.245c-4.017 4.478-11.538 8.997-19.286 8.997-9.221 0-15.86-6.292-18.29-9.001-5.845-6.508-14.122-10.241-22.71-10.241s-16.865 3.732-22.714 10.245c-5.431 6.054-11.085 8.997-17.286 8.997-9.221 0-15.86-6.292-18.29-9.001-5.845-6.508-14.305-10.241-23.21-10.241s-17.365 3.732-23.214 10.245c-2.426 2.705-9.065 8.997-18.286 8.997-5.522 0-10 4.478-10 10s4.478 10 10 10c12.166 0 24.257-5.701 33.171-15.639 2.057-2.29 5.093-3.604 8.329-3.604s6.272 1.313 8.325 3.6c8.918 9.942 21.009 15.643 33.175 15.643 11.869 0 22.995-5.409 32.171-15.639 2.087-2.323 4.867-3.604 7.829-3.604s5.742 1.28 7.825 3.6c8.918 9.941 21.009 15.643 33.175 15.643 12.425 0 25.52-5.994 34.171-15.639 2.087-2.323 4.867-3.604 7.829-3.604s5.742 1.28 7.825 3.6c9.18 10.233 20.306 15.643 32.175 15.643s22.995-5.409 32.171-15.639c2.087-2.323 4.867-3.604 7.829-3.604s5.742 1.28 7.825 3.6c9.18 10.233 20.306 15.643 32.175 15.643s22.995-5.409 32.171-15.639c2.087-2.323 4.867-3.604 7.829-3.604s5.742 1.28 7.825 3.6c9.18 10.233 20.306 15.643 32.175 15.643s22.995-5.409 32.171-15.639c2.087-2.323 4.867-3.604 7.829-3.604s5.742 1.28 7.83 3.605c10.786 12.005 24.494 17.882 40.076 14.854 5.421-1.053 8.963-6.301 7.91-11.723-1.052-5.419-6.301-8.96-11.722-7.909z" fill="#ffffff"/><path d="m476.001 232h-40c-3.788 0-7.25 2.14-8.944 5.528-1.693 3.388-1.328 7.441.944 10.472l23.994 31.996c5.645 7.516 14.619 12.004 24.006 12.004 16.542 0 30-13.458 30-30s-13.458-30-30-30zm0 40c-3.177 0-6.098-1.463-8.01-4.009l-11.991-15.991h20.001c5.514 0 10 4.486 10 10s-4.486 10-10 10z" fill="#ffffff"/><circle cx="10.001" cy="216" r="10" fill="#ffffff"/><path d="m500.165 431.11c-5.207.972-10.016.069-14.577-2.736.269-2.111.413-4.24.413-6.374 0-24.146-17.205-44.348-40-48.994v-11.006c0-82.71-67.29-150-150-150h-10v-70c0-5.523-4.478-10-10-10h-20c-13.037 0-24.159 8.359-28.286 20h-86.434c-4.128-11.639-15.243-20-28.28-20h-10v-72h30c5.522 0 10-4.477 10-10v-40c0-5.523-4.478-10-10-10h-123c-5.522 0-10 4.477-10 10v161c0 5.523 4.478 10 10 10s10-4.477 10-10v-111h63v368.951c-3.988-2.059-6.866-4.867-8.287-6.449-5.845-6.516-14.306-10.252-23.213-10.252s-17.368 3.737-23.209 10.248c-1.424 1.585-4.299 4.404-8.291 6.464v-167.962c0-5.523-4.478-10-10-10s-10 4.477-10 10v180.49c0 5.523 4.478 10 10 10 12.158 0 24.248-5.696 33.174-15.632 2.058-2.293 5.092-3.608 8.326-3.608s6.269 1.315 8.33 3.613c8.922 9.932 21.012 15.627 33.17 15.627 11.862 0 22.986-5.404 32.174-15.632 2.088-2.327 4.867-3.608 7.826-3.608s5.738 1.281 7.83 3.613c8.922 9.932 21.012 15.627 33.17 15.627 12.418 0 25.511-5.988 34.174-15.632 2.088-2.327 4.867-3.608 7.826-3.608s5.738 1.281 7.83 3.613c9.184 10.224 20.308 15.627 32.17 15.627 12.735 0 23.682-6.142 32.174-15.632 2.088-2.327 4.867-3.608 7.826-3.608s5.738 1.281 7.83 3.613c9.184 10.224 20.308 15.627 32.17 15.627 12.845 0 23.57-6.096 32.174-15.632 2.088-2.327 4.867-3.608 7.826-3.608s5.738 1.281 7.845 3.629c1.902 2.108 3.776 3.919 5.682 5.502.085.072.171.142.258.211 7.917 6.565 16.733 9.898 26.215 9.898 11.862 0 22.986-5.404 32.174-15.632 2.088-2.327 4.867-3.608 7.826-3.608s5.738 1.281 7.83 3.612c8.471 9.433 19.446 15.631 32.327 15.631 2.528 0 5.092-.24 7.679-.723 5.429-1.014 9.008-6.236 7.994-11.666-1.014-5.428-6.234-9.006-11.666-7.994zm-357.164-259.11h83v70c0 5.523 4.478 10 10 10s10-4.477 10-10v-80c0-5.514 4.486-10 10-10h10v140h-10c-5.514 0-10-4.486-10-10 0-5.523-4.478-10-10-10h-93zm-30-20c5.514 0 10 4.486 10 10v120c0 5.514-4.486 10-10 10h-10v-140zm-93-112v-20h103v20c-8.827 0-90.476 0-103 0zm226 362c0 10.778 3.459 21.042 9.626 29.479-6.052-.117-11.591-3.052-16.913-8.977-5.845-6.516-14.123-10.252-22.713-10.252s-16.868 3.737-22.709 10.248c-4.021 4.476-11.545 8.993-19.291 8.993-9.218 0-15.862-6.289-18.287-8.988-5.845-6.516-14.123-10.252-22.713-10.252s-16.868 3.737-22.709 10.248c-2.379 2.649-4.8 4.701-7.291 6.172v-116.671h10c13.036 0 24.152-8.361 28.28-20h86.434c4.127 11.641 15.249 20 28.286 20h20c5.522 0 10-4.477 10-10v-8.28c11.639 4.128 20 15.243 20 28.28v31.008c-3.277-.667-6.629-1.008-10-1.008-27.57 0-50 22.43-50 50zm210 10.25c-8.59 0-16.868 3.737-22.709 10.248-5.436 6.051-11.092 8.993-17.291 8.993-3.487 0-6.782-.943-10-2.855v-46.636c0-5.523-4.478-10-10-10s-10 4.477-10 10v31.985c-3.195-1.13-6.571-1.735-10-1.735s-6.806.605-10 1.734v-91.984c0-5.523-4.478-10-10-10s-10 4.477-10 10v106.64c-3.206 1.905-6.506 2.85-10 2.85-6.199 0-11.855-2.941-17.287-8.988-5.845-6.516-14.123-10.252-22.713-10.252-8.389 0-16.474 3.572-22.3 9.816-4.906-5.446-7.7-12.551-7.7-20.066 0-16.542 13.458-30 30-30 5.275 0 10.461 1.386 14.994 4.007 3.096 1.79 6.909 1.791 10.003.005 3.096-1.786 5.003-5.088 5.003-8.662v-45.35c0-24.146-17.205-44.348-40-48.994v-41.006h10c71.683 0 130 58.318 130 130v20c0 5.523 4.478 10 10 10 13.621 0 25.143 9.128 28.791 21.586-2.834-.871-5.792-1.336-8.791-1.336z" fill="#ffffff"/></g></svg>