<svg xmlns="http://www.w3.org/2000/svg" id="Layer_1" viewBox="0 0 48 48" data-name="Layer 1"><path d="m45 39c-.552 0-1 .448-1 1v1c0 .552.448 1 1 1s1-.448 1-1v-1c0-.552-.448-1-1-1z" fill="#ffffff"/><path d="m15.036 33.5c-.66-.023-1.289-.225-1.728-.552-1.221-.911-3.1-1.191-4.61-.712-.527.167-.818.729-.651 1.255.167.527.731.821 1.255.651.899-.283 2.104-.117 2.81.408.767.573 1.78.91 2.853.948h.036c.536 0 .979-.424.999-.964.02-.552-.412-1.015-.964-1.035z" fill="#ffffff"/><path d="m31.299 32.235c-.395-.123-.812-.199-1.24-.224-.55-.038-1.024.387-1.057.939-.033.551.388 1.024.939 1.057.262.016.524.063.76.137.1.031.2.046.299.046.425 0 .82-.274.954-.702.165-.527-.129-1.088-.656-1.253z" fill="#ffffff"/><path d="m25.739 33.385c-.936.253-2.042.062-2.7-.428-.172-.133-.37-.253-.568-.359-.488-.262-1.094-.076-1.353.411-.26.487-.077 1.093.411 1.353.102.054.204.114.303.189.82.612 1.895.949 3.028.949.477 0 .948-.062 1.401-.185.533-.144.848-.693.704-1.227-.145-.533-.694-.849-1.227-.704z" fill="#ffffff"/><path d="m44 34h-1.5v-1h.5c.552 0 1-.448 1-1s-.448-1-1-1h-3c-.552 0-1 .448-1 1s.448 1 1 1h.5v1h-2.5v-7c0-.552-.448-1-1-1s-1 .448-1 1v2.192c-.998.486-2.393.405-3.26-.242-1.7-1.27-4.35-1.27-6.05 0-.99.74-2.67.74-3.66 0-1.7-1.27-4.36-1.27-6.06 0-.99.74-2.67.74-3.66 0-1.7-1.27-4.35-1.27-6.05 0-.867.648-2.262.728-3.26.242v-2.192c0-.552-.448-1-1-1s-1 .448-1 1v14c0 2.757 2.243 5 5 5h26c2.757 0 5-2.243 5-5v-5h6v.969c0 .552.448 1 1 1s1-.448 1-1v-.969c0-1.103-.897-2-2-2zm-11 10h-26c-1.654 0-3-1.346-3-3v-9.695c.463.126.945.195 1.43.195 1.09 0 2.18-.32 3.02-.95 1-.74 2.67-.74 3.67 0 1.69 1.27 4.35 1.27 6.05 0 .99-.74 2.67-.74 3.66 0 1.7 1.27 4.36 1.27 6.05 0 1-.74 2.67-.74 3.67 0 1.219.919 2.944 1.158 4.45.747v9.703c0 1.654-1.346 3-3 3z" fill="#ffffff"/><path d="m6.757 16.03c-.536.134-.861.677-.728 1.213l.5 2c.114.454.521.757.969.757.081 0 .162-.009.244-.03.536-.134.861-.677.728-1.213l-.5-2c-.134-.536-.676-.86-1.213-.728z" fill="#ffffff"/><path d="m15.591 16.03c-.536.134-.861.677-.728 1.213l.5 2c.114.454.521.757.969.757.081 0 .162-.009.244-.03.536-.134.861-.677.728-1.213l-.5-2c-.134-.536-.676-.86-1.213-.728z" fill="#ffffff"/><path d="m24.424 16.03c-.536.134-.861.677-.728 1.213l.5 2c.114.454.521.757.969.757.081 0 .162-.009.244-.03.536-.134.861-.677.728-1.213l-.5-2c-.134-.536-.678-.86-1.213-.728z" fill="#ffffff"/><path d="m33.257 16.03c-.536.134-.861.677-.728 1.213l.5 2c.114.454.521.757.969.757.081 0 .162-.009.244-.03.536-.134.861-.677.728-1.213l-.5-2c-.134-.536-.677-.86-1.213-.728z" fill="#ffffff"/><path d="m11.591 21.03c-.536.134-.861.677-.728 1.213l.5 2c.114.454.521.757.969.757.081 0 .162-.009.244-.03.536-.134.861-.677.728-1.213l-.5-2c-.134-.536-.678-.862-1.213-.728z" fill="#ffffff"/><path d="m20.424 21.03c-.536.134-.861.677-.728 1.213l.5 2c.114.454.521.757.969.757.081 0 .162-.009.244-.03.536-.134.861-.677.728-1.213l-.5-2c-.134-.536-.677-.862-1.213-.728z" fill="#ffffff"/><path d="m29.257 21.03c-.536.134-.861.677-.728 1.213l.5 2c.114.454.521.757.969.757.081 0 .162-.009.244-.03.536-.134.861-.677.728-1.213l-.5-2c-.134-.536-.676-.862-1.213-.728z" fill="#ffffff"/><path d="m5.132 14h29.735c.625 0 1.202-.284 1.585-.778.382-.493.512-1.121.357-1.723-.738-2.859-3.511-4.792-6.464-4.462-1.144-2.447-3.595-4.037-6.346-4.037-1.172 0-2.295.283-3.295.824-1.277-1.167-2.95-1.824-4.705-1.824-3.114 0-5.841 2.094-6.707 5.007-.097-.005-.195-.007-.293-.007-2.737 0-5.126 1.85-5.81 4.499-.155.602-.025 1.23.357 1.723.383.495.961.778 1.585.778zm3.868-5c.291 0 .567.031.847.095.273.063.559.008.789-.15s.384-.404.424-.681c.354-2.431 2.478-4.264 4.94-4.264 1.462 0 2.843.637 3.789 1.749.338.396.923.467 1.347.163.826-.596 1.816-.911 2.865-.911 2.179 0 4.095 1.397 4.768 3.478.164.507.699.797 1.21.658.336-.09.68-.136 1.021-.136 1.825 0 3.418 1.233 3.87 3h-29.744c.456-1.767 2.048-3 3.874-3z" fill="#ffffff"/></svg>