<svg id="Layer_1" enable-background="new 0 0 512 512" height="512" viewBox="0 0 512 512" width="512" xmlns="http://www.w3.org/2000/svg"><g><circle cx="502" cy="350.92" r="10"/><path d="m502 315.92c5.51 0 10-4.48 10-10v-249.92c0-2.63-1.07-5.21-2.93-7.07s-4.44-2.93-7.07-2.93h-40c-2.63 0-5.21 1.069-7.07 2.93-1.86 1.86-2.93 4.44-2.93 7.07v19h-392v-19c0-2.63-1.07-5.21-2.93-7.07s-4.44-2.93-7.07-2.93h-40c-2.63 0-5.21 1.069-7.07 2.93-1.86 1.86-2.93 4.44-2.93 7.07v400c0 2.63 1.07 5.21 2.93 7.069 1.86 1.861 4.44 2.931 7.07 2.931h492c2.63 0 5.21-1.07 7.07-2.931 1.86-1.859 2.93-4.439 2.93-7.069v-60.08c0-5.51-4.49-10-10-10s-10 4.49-10 10v50.08h-472v-380h20v350c0 5.522 4.477 10 10 10h412c5.523 0 10-4.478 10-10v-350h20v239.92c0 5.519 4.49 10 10 10zm-442-220.92h186v20h-186zm392 311h-392v-209.182l-.029-.013c12.434-1.64 22.003-5.539 26.079-7.565.12-.051 13.16-6.24 27.22-6.24 7.72 0 14.9 1.52 19.42 3.01 2.6.85 7.91 3.045 8.03 3.105 5.11 2.54 18.84 8.367 36.05 8.447 17.19-.08 31.1-5.969 36.21-8.499.44-.23 13.1-6.063 27.06-6.063 7.72 0 14.9 1.52 19.42 3.01 2.61.85 7.91 3.055 8.03 3.105 5.11 2.54 18.84 8.367 36.05 8.447 17.21-.08 30.94-6.001 36.05-8.541.12-.051 3.95-1.716 8.79-3.236 4.39-1.38 11.28-2.785 18.43-2.785 7.72 0 14.9 1.52 19.42 3.01 2.6.85 7.91 3.055 8.04 3.115 5.1 2.53 18.84 8.357 36.04 8.438 7.115-.017 14.391-1.459 21.69-4.19zm0-234.57c-1.43.78-2.9 1.5-4.38 2.14-4.08 1.79-10.459 3.931-17.3 3.931-7.72 0-14.8-1.771-19.32-3.26-2.57-.841-7.91-3.181-8.03-3.23-5.11-2.54-18.84-8.43-36.05-8.51-17.2.08-30.94 5.97-36.04 8.5-.12.06-3.96 2.21-8.8 3.729-4.38 1.38-11.317 3.271-18.467 3.271-7.72 0-14.854-2.021-19.374-3.51-2.6-.841-7.92-3.296-8.04-3.355-5.1-2.54-18.84-8.492-36.05-8.572-17.19.08-30.93 6.188-36.04 8.719-.12.06-13.26 6.719-27.23 6.719-7.72 0-14.89-2.021-19.41-3.51-2.59-.841-7.92-3.306-8.04-3.365-5.1-2.53-18.84-8.482-36.05-8.563-17.2.08-30.94 5.938-36.04 8.469-.12.06-8.36 3.948-17.34 5.559v-41.592h392v36.43zm0-56.43h-186v-20h186z"/><circle cx="288" cy="340" r="10"/><path d="m383 290c-16.542 0-30 13.458-30 30s13.458 30 30 30 30-13.458 30-30-13.458-30-30-30zm0 40c-5.514 0-10-4.486-10-10s4.486-10 10-10 10 4.486 10 10-4.486 10-10 10z"/><path d="m303 235c-16.542 0-30 13.458-30 30s13.458 30 30 30 30-13.458 30-30-13.458-30-30-30zm0 40c-5.514 0-10-4.486-10-10s4.486-10 10-10 10 4.486 10 10-4.486 10-10 10z"/></g></svg>