<svg id="Capa_1" enable-background="new 0 0 612 612" viewBox="0 0 612 612" xmlns="http://www.w3.org/2000/svg"><g><g clip-rule="evenodd" fill-rule="evenodd"><path d="m295.543 10.311c3.685-6.38 10.497-10.311 17.868-10.311 7.364 0 14.176 3.931 17.861 10.311 25.697 44.496 72.821 126.099 98.519 170.602 3.685 6.386 3.692 14.249.007 20.635-3.685 6.379-10.497 10.311-17.868 10.311-51.395 0-145.643 0-197.044 0-7.371 0-14.176-3.931-17.861-10.311-3.685-6.386-3.685-14.249 0-20.635 25.696-44.504 72.82-126.106 98.518-170.602zm8.249 124.721-23.216 32.044c-3.226 4.457-2.235 10.703 2.228 13.936 4.457 3.226 10.703 2.228 13.936-2.228l26.775-36.966c3.719-5.129 4.244-11.907 1.364-17.548-2.874-5.641-8.674-9.193-15.007-9.193h-2.814l14.715-22.591c3-4.617 1.696-10.803-2.92-13.81s-10.803-1.696-13.803 2.92l-17.834 27.387c-3.373 5.182-3.639 11.794-.692 17.229s8.635 8.821 14.814 8.821h2.454z"/><path d="m315.978 533.065v-301.25h-19.957v191.682h-271.002c-11.389 0-20.628 9.233-20.628 20.628v30.267c39.694-12.779 79.394-13.244 119.12-3.645 29.329 6.892 60.069 6.952 89.425.166 27.7-6.592 55.399-9.24 83.086-7.929v19.983c-26.15-1.324-52.326 1.138-78.502 7.371-.027.007-.047.007-.067.013-32.343 7.477-66.216 7.417-98.525-.18-.02-.007-.04-.013-.06-.02-38.177-9.227-76.334-8.255-114.477 5.328v95.891c-.001 11.397 9.239 20.63 20.628 20.63h561.962c11.388 0 20.628-9.233 20.628-20.628v-94.707c-52.333-17.502-104.665-20.954-157.005-7.391-.007.007-.013.007-.02.007-33.268 8.535-68.371 9.04-101.911 1.477-.06-.013-.12-.027-.18-.04-4.184-1.024-8.375-1.956-12.559-2.787v25.178h39.507c5.508 0 9.978 4.47 9.978 9.978s-4.47 9.978-9.978 9.978zm-51.72 46.166h83.485c5.508 0 9.978-4.47 9.978-9.978s-4.47-9.978-9.978-9.978h-83.485c-5.508 0-9.978 4.47-9.978 9.978s4.47 9.978 9.978 9.978zm31.764-66.122h-59.464c-5.508 0-9.978 4.47-9.978 9.978s4.47 9.978 9.978 9.978h59.464zm39.913-89.612v44.117c5.774 1.071 11.542 2.308 17.309 3.719 30.414 6.825 62.231 6.353 92.359-1.377 53.996-13.996 107.998-11.236 162.007 5.728v-31.558c0-11.395-9.24-20.628-20.628-20.628z"/></g></g><g/><g/><g/><g/><g/><g/><g/><g/><g/><g/><g/><g/><g/><g/><g/></svg>